/* XPM */
static char *cecbc743cd6644eaf030c773f0121c3b[] = {
/* columns rows colors chars-per-pixel */
"64 64 248 2 ",
"   c #180000",
".  c #000019",
"X  c #393D3D",
"o  c #433E3E",
"O  c #3B4016",
"+  c #274639",
"@  c #434300",
"#  c #524A00",
"$  c #565500",
"%  c #525214",
"&  c #53531F",
"*  c #676500",
"=  c #64641A",
"-  c #7B7B18",
";  c #585826",
":  c #5B5B28",
">  c #505034",
",  c #5A6225",
"<  c #696921",
"1  c #004C4D",
"2  c #015E5E",
"3  c #394141",
"4  c #3A4B4B",
"5  c #016363",
"6  c #086666",
"7  c #006B6B",
"8  c #106061",
"9  c #116E6E",
"0  c #186F6F",
"q  c #007575",
"w  c #0A7070",
"e  c #007C7C",
"r  c #0C7C7C",
"t  c #127676",
"y  c #157C7C",
"u  c #187E7E",
"i  c #316F64",
"p  c #2F746B",
"a  c #36776B",
"s  c #257A7A",
"d  c #3D7E70",
"f  c #454343",
"g  c #4A4444",
"h  c #454848",
"j  c #4A4C4B",
"k  c #4F504F",
"l  c #585846",
"z  c #415151",
"x  c #4D5050",
"c  c #4F5A5A",
"v  c #555556",
"b  c #545D5D",
"n  c #615D5D",
"m  c #5C5C61",
"M  c #615E69",
"N  c #556161",
"B  c #5A6464",
"V  c #656464",
"C  c #686767",
"Z  c #6C6C65",
"A  c #656568",
"S  c #676868",
"D  c #696A69",
"F  c #757562",
"G  c #7C7D68",
"H  c #706E77",
"J  c #767573",
"K  c #787870",
"L  c #767B7B",
"P  c #7E7D7E",
"I  c #827A00",
"U  c #06817F",
"Y  c #09807F",
"T  c #10817E",
"R  c #2F8179",
"E  c #3B8478",
"W  c #38887E",
"Q  c #5A8667",
"!  c #7F8069",
"~  c #80810F",
"^  c #908700",
"/  c #9F9700",
"(  c #9A9A1A",
")  c #BFBA00",
"_  c #B4B413",
"`  c #909834",
"'  c #9FA633",
"]  c #A2A72E",
"[  c #AFB430",
"{  c #C0C00A",
"}  c #D2CE00",
"|  c #D7D400",
" . c #D8D400",
".. c #C1C112",
"X. c #E1E102",
"o. c #E9E700",
"O. c #EEEE00",
"+. c #C6CA2F",
"@. c #D5D826",
"#. c #D2D52C",
"$. c #D2D231",
"%. c #ECEE23",
"&. c #E9E93A",
"*. c #858664",
"=. c #888867",
"-. c #87A769",
";. c #007E81",
":. c #008383",
">. c #0A8484",
",. c #008C8C",
"<. c #0C8D8D",
"1. c #118282",
"2. c #188080",
"3. c #138D8D",
"4. c #1D8B8B",
"5. c #008D96",
"6. c #019394",
"7. c #0B9393",
"8. c #009599",
"9. c #009B9B",
"0. c #0C9A9A",
"q. c #129494",
"w. c #1B9696",
"e. c #159E9E",
"r. c #1E9F9F",
"t. c #248B87",
"y. c #3B8D82",
"u. c #2A938F",
"i. c #2C9191",
"p. c #219B9B",
"a. c #2C9C9C",
"s. c #359696",
"d. c #349E9E",
"f. c #009EA0",
"g. c #00A3A3",
"h. c #0CA4A4",
"j. c #01ACAC",
"k. c #0DAAAA",
"l. c #14A3A3",
"z. c #1BA4A4",
"x. c #14ACAC",
"c. c #1CAEAE",
"v. c #03B1B1",
"b. c #0BB1B1",
"n. c #11B1B1",
"m. c #1DB2B2",
"M. c #1DBABB",
"N. c #24A3A3",
"B. c #2FA0A0",
"V. c #24AEAE",
"C. c #29AEAE",
"Z. c #34A5A5",
"A. c #38A6A6",
"S. c #36ABAB",
"D. c #3AABAB",
"F. c #23B4B4",
"G. c #2BB4B4",
"H. c #2EB7B8",
"J. c #23BABA",
"K. c #2CB9B9",
"L. c #37B1B1",
"P. c #3BB3B3",
"I. c #33BBBB",
"U. c #3CBDBD",
"Y. c #448F80",
"T. c #509684",
"R. c #449E9E",
"E. c #7E8585",
"W. c #7F8888",
"Q. c #43A7A7",
"!. c #4DA6A6",
"~. c #42ABAB",
"^. c #55ADAD",
"/. c #5BACAC",
"(. c #44B6B6",
"). c #41BEBE",
"_. c #4CBBBB",
"`. c #5BB2B2",
"'. c #52BEBE",
"]. c #5BBBBB",
"[. c #65A9A9",
"{. c #70AEAE",
"}. c #6BB0B0",
"|. c #62BEBE",
" X c #6CBDBD",
".X c #71B1B1",
"XX c #7BB4B4",
"oX c #74BEBE",
"OX c #1BC0C1",
"+X c #3EC1C2",
"@X c #45C1C1",
"#X c #4BC3C3",
"$X c #4EC8C8",
"%X c #52C4C4",
"&X c #5CC4C4",
"*X c #5CC9C9",
"=X c #63C7C7",
"-X c #6AC6C6",
";X c #66C9C9",
":X c #6CC9C9",
">X c #75C4C4",
",X c #7DC4C4",
"<X c #75CACA",
"1X c #7CCDCD",
"2X c #7CD0D0",
"3X c #818989",
"4X c #898888",
"5X c #908E93",
"6X c #869494",
"7X c #8A9090",
"8X c #919796",
"9X c #9D9D9D",
"0X c #A19F9F",
"qX c #A09FA0",
"wX c #9CA7A7",
"eX c #87B8B8",
"rX c #88BEBE",
"tX c #A3A3A3",
"yX c #ABACAC",
"uX c #B4B5B5",
"iX c #8AC1C1",
"pX c #80CECE",
"aX c #8ECFCF",
"sX c #91C3C3",
"dX c #84D1D1",
"fX c #8DD5D5",
"gX c #8FD8D8",
"hX c #92D5D5",
"jX c #9DD3D3",
"kX c #95D9D9",
"lX c #9BDDDD",
"zX c #A2DFDF",
"xX c #A8DDDD",
"cX c #9EE2E2",
"vX c #A4E1E1",
"bX c #ABE4E4",
"nX c #ABE8E8",
"mX c #B2E6E6",
"MX c #B8E4E4",
"NX c #B5E9E9",
"BX c #BBEBEB",
"VX c #C2C6C6",
"CX c #C7CACA",
"ZX c #D6D9D9",
"AX c #C5EFEF",
"SX c #C1F1F1",
"DX c #CDF2F2",
"FX c #DEFAFA",
/* pixels */
"X X 3 X 3 X 3 3 X X X X X 3 X 3 3 X 3 X X 3 X 3 3 X X 3 3 X X 3 3 X X 3 X X 3 3 X 3 X X 3 X X 3 X 3 X 3 X X X 3 X 3 X X 3 3 3 X ",
"X 9 w w w w w 7 w w w w w w w 7 w w w w w w w 7 w w w w w w w 7 w w w w w w w 7 w w w w w w w 7 w w w w w w w 7 w w w w w w 0 f ",
"3 e :.:.:.e :.p.>.U U :.:.e :.p.>.e :.:.e U :.p.>.:.U e :.e U p.>.e U :.e :.U w.>.:.U U e :.:.p.>.e e :.:.:.:.p.>.e :.e e U t 4 ",
"3 <.6.6.6.,.e 3.8.6.6.6.6.6.e 3.8.6.6.6.6.6.e 3.8.6.6.6.6.6.:.q.8.6.6.6.6.,.e q.6.6.6.6.6.6.e 3.9.6.6.6.6.,.e q.8.6.6.6.6.6.y 3 ",
"4 h.j.h.j.9.e ,.g.g.g.g.g.9.:.:.9.g.g.g.g.9.:.:.g.g.g.g.g.9.,.,.g.g.g.g.g.9.:.,.g.g.g.g.g.9.U ,.g.g.g.h.h.0.1.>.e.g.g.j.k.g.>.X ",
"4 V.F.b.m.C.y 2 5 5 5 5 5 5 5 5 5 5 5 5 5 5 5 5 5 5 5 5 5 5 5 5 5 5 5 5 5 5 5 5 5 5 2 5 5 2 2 2 5 5 5 5 7 5 5 5 5 q F.F.v.m.<.X ",
"4 V.F._.G.U.L.,.,.,.,.:.e :.:.e e e q q q q 7 q 7 q q q q e e e U ;.:.:.:.:.:.,.,.,.q.e.e.l.l.C.Z.C.(.].|.|.>XpX,Xt V.F._.G.,.X ",
"4 C.k.aX_.I.I.g.g.9.6.6.,.:.:.:.e e e q q q q q e e q e :.e :.:.:.,.,.6.6.9.9.g.j.n.m.F.J.K.I.).$X;X<X1XkXlXnXnXxXs m.k.aX_.>.X ",
"4 V.9.9.m.U.P.6.8.6.,.,.:.:.e e e q q q q q q e e e e e U U U :.,.,.6.6.6.9.g.g.x.m.F.F.m.I.@X@X&X<X1XdXlXzXbXBXxXy c.9.6.F.<.X ",
"4 V.x.V.m.U.L.6.<.,.,.:.U U U e e e q q q q q q e e e e U :.:.,.,.,.6.6.9.g.k.x.V.m.F.F.I.@X#X-X:XpXgXlXvXbXNXBXaXq V.c.m.F.<.X ",
"4 V.F.F.m.U.L.,.6.:.,.:.:.e e e q q q q q q e e e e e U :.,.,.,.,.6.6.9.f.g.x.F.F.F.J.K.@X#X%X<XpXfXkXvXbXBXBXbXpXq C.F.F.m.<.X ",
"4 V.F.F.m.).L.,.>.,.:.e e e e q q 7 q q q q e e e e U U :.,.,.6.6.9.9.g.g.k.c.F.F.F.U.U.@X=X<X1XfXzXvXbXBXBXnXvX>X7 C.F.V.F.<.X ",
"4 V.F.G.m.U.S.:.:.:.:.e e e q q q q q e e e e e :.:.:.:.,.,.,.6.6.9.g.h.k.m.m.F.J.K.).%X%X-X1XfXlXvXnXNXBXnXlXfX`.7 C.F.F.F.<.X ",
"4 V.F.b.m.).S.;.>.:.e e e q q q q e q q e e e e U :.:.,.,.6.6.6.9.g.g.k.F.F.F.m.I.@X@X&X<XdXdXlXzXbXBXBXbXlXkX1X^.7 F.F.b.F.<.X ",
"4 V.F._.C.U.D.e :.e e q q q q q q q e e e e e :.:.:.,.,.,.6.6.9.g.g.k.m.F.m.K.I.@X#X=X-XpXgXkXbXbXBXBXbXvXlX2X:X^.7 F.F._.C.,.X ",
"4 F.k.aX_.I.D.e e e e q q q q q q q e e e e :.:.:.,.,.,.6.6.9.g.g.k.F.F.F.F.I.U.@X%X<X1XdXlXvXbXBXNXbXzXfX1X=X=XA.7 F.l.aX_.:.X ",
"4 V.9.9.F.).A.q e e q q q q q q e e e e U ;.:.:.,.,.,.6.9.9.g.g.x.F.F.F.F.U.U.@X:X:X1XfXlXvXbXNXBXmXlXhX1X:X=X#XZ.7 V.6.6.F.<.X ",
"4 V.x.c.c.U.D.q e q q q q q q e e e U e :.:.:.,.,.,.6.9.9.9.g.x.c.F.F.F.K.@X%X&X:XdXfXkXzXmXBXBXbXlXfX1X:X%X#X+XB.7 c.c.m.F.<.X ",
"4 V.F.G.m.).A.7 r q q q q q q e e e e ;.:.:.,.,.,.6.6.9.9.g.m.m.F.F.J.U.@X@X=X<X1XfXlXvXmXBXNXbXbXkX1X:X*X%XU.I.r.7 V.F.F.m.<.X ",
"4 V.F.F.m.U.S.7 q q q q q e e e e e :.:.,.,.,.,.6.9.9.g.g.k.c.F.F.K.K.U.%X=X:X1XkXkXvXvXNXBXmXcXdXdX=X&X@X).K.J.e.7 F.F.V.F.<.X ",
"4 V.F.F.c.U.Z.7 q q q q e e e e e e :.:.,.,.,.6.6.9.g.g.k.m.F.F.m.K.@X@X&X<X1XdXlXlXmXNXBXmXlXhX1X-X%X$X).I.F.F.w.7 F.F.F.F.<.X ",
"4 V.F.n.b.%X!.5 r q q e e e e e :.:.:.,.,.,.6.9.9.g.g.x.m.F.F.J.I.+X@X;X:XpXkXlXbXmXNXBXvXvXkX1X<X&X#XU.K.G.F.F.q.7 V.F.b.F.<.X ",
"4 V.F.'.m.&X/.7 t q e e e e e U :.:.,.,.,.6.6.9.f.g.x.c.V.F.G.K.+X%X%X:XdXfXkXcXmXBXBXbXvXgX1X-X$X#X).I.m.F.c.j.6.7 V.F._.C.,.X ",
"4 C.k.aXP.;X}.5 r q e e e e :.:.:.,.,.6.6.6.9.g.g.c.m.F.J.m.I.@X@X&X<X1XfXlXvXbXNXBXmXlXkX2X-X;X#X@XK.F.F.F.c.j.6.6 V.h.aX_.:.X ",
"4 V.9.0.j.fXrX7 y e e e e :.:.:.,.,.<.8.8.8.h.h.k.m.F.F.K.K.@X#X=X:XdXfXkXvXvXBXBXvXzXfX1X-X&X@XU.F.F.F.F.j.g.g.,.5 c.:.6.m.<.X ",
"4 V.x.C.j.gXsX5 y e e e :.:.:.,.,.,.6.6.9.g.g.j.k.F.F.F.K.@X@X%X:X1XdXkXvXNXNXBXmXbXkX<X:X*X%X).U.J.F.m.x.g.g.f.,.5 c.c.x.g.,.X ",
"4 V.F.H.j.kXsX7 ;.r T >.:.:.,.4.i.s.d.d.A.A.D.~.P.J.J.U.U.@X-X:X1XfXlXvXmXNXBXNXvXfXpX:X=X@XU.I.F.F.F.k.g.g.f.9.>.5 V.F.g.9.>.3 ",
"4 V.F.H.j.hXsX7 s ;.e :.:.,.:.b L W.=.3XE.3X3X3X6XP.J.@X%X&X:XdXhXkXzXmXNXNXbXlXkX2X=X&X#XU.K.F.F.m.k.k.g.f.9.,.:.5 c.g.8.,.>.3 ",
"4 V.F.C.j.kXsX7 1.y.Y.y.t.5.e h M M V V n n n n E.'.+X@X=X<XpXfXlXvXNXNXBXNXlXfX1X-X=X@X@XI.F.F.F.c.g.g.g.9.6.6.U 2 f.9.6.,.>.X ",
"4 V.F.m.j.kXsXq e ] %.O.-.5.1.j V V S S S V B V W.'.#X=X:X1XgXkXvXvXNXBXvXzXfX2X:X%X@XU.U.F.F.F.k.g.g.f.9.6.6.,.e 5 6.,.,.6.>.X ",
"4 V.F.'.j.kXsX7 8 * X.o.Q 8.r h A C C C S S D n W.%X&X<X1XdXlXzXnXBXNXmXzXfX1X:X%X%X@XJ.F.F.m.c.j.g.f.9.6.,.,.,.q 2 ,.,.q.6.>.3 ",
"4 C.k.aXG.hXsX5 2 +  .@.,.9.:.j C C A A A A S V 3X<X-XpXkXlXvXmXNXBXNXzXgXpX:X&X@X@XK.F.F.F.k.g.g.9.9.6.,.,.:.,.q 5 ,.U N.7.>.3 ",
"4 V.9.0.j.fXiX5 :.i | #.,.f.,.f C C Z Z Z F D n 7X1X2XfXkXzXbXBXBXbXlXkX2X;X%X#XU.K.F.F.m.k.k.f.9.9.6.6.,.:.:.:.q 5 ,.e U 6.<.X ",
"4 V.x.V.v.&X^.7 6.p | #.6.g.,.g Z n < ( { &.G m 8XpXfXzXvXbXBXBXbXzXkX1X;X=X#X@XI.F.F.F.k.g.g.g.9.6.,.,.:.:.:.;.q 2 ,.,.6.f.,.X ",
"4 V.F.F.l.g.6.T 6.p | #.9.k.,.g S k % > @ $.=.M tXkXkXzXbXNXBXbXzXpX1X-X&X@XU.I.F.F.F.j.g.g.9.9.6.,.,.,.:.:.e e q 2 ,.6.9.k.3.X ",
"4 V.F.F.f.h.7.Y 9.a } +.f.n.q.f S j & k . ..*.H uXxXzXmXBXBXbXlXkX1X:X=X%X@XG.F.F.m.x.g.g.9.9.6.6.,.:.:.:.U e e q 2 ,.f.k.F.<.X ",
"4 V.J.F.h.9.6.U f.d ) [ z.F.q.f D o ; K l _ ! 5XVXbXbXBXSXbXzXlX1X-X=X@XU.I.K.F.F.k.g.g.9.9.6.,.,.,.:.:.e e e e 7 5 9.k.G.m.,.X ",
"4 V.F.b.f.f.6.>.g.s / ' C.M.q.o S X @ : = - J qXVXmXBXNXbXvXfX1X=X&X%XU.K.F.F.m.k.k.g.9.6.6.6.,.,.:.U :.e e e q q 2 k.F.j.g.<.X ",
"4 V.F._.e.f.6.>.j.E ^ ` D.M.q.f S h X g k m P 0XCXBXBXbXlXfX1X:X-X@X).K.F.F.F.c.g.g.g.9.6.6.,.:.U :.e e e q q e 7 6 V.m.~.V.<.X ",
"4 V.k.aX~.9.7.,.0., ~ I T.OXw.f Z C D A Z J 4XyXZXAXbXlXfX1X:X%X#XU.U.J.F.F.j.g.g.f.9.6.,.,.:.,.U e e e q e q q 7 6 c.g.aX_.:.X ",
"4 V.9.9.0.9.6.U 5 O $ # i.+Xa.o A A S S D P qXuXZXNXvXkX2X-X&X%X+XK.F.F.m.c.g.g.f.9.6.6.,.,.:.:.e e e e q q q q q 5 f.6.9.F.<.X ",
"4 V.x.m.f.f.6.q 5 1 q z.K.@Xa.o S D A D ! wXuXtXVXbXdXdX-X%X@X@XK.F.F.F.k.g.g.g.9.6.,.,.:.:.e e e e q e q q q q q 2 h.c.m.F.<.X ",
"4 V.F.F.h.9.6.e q ;.n.I.).$XZ.g S D J 4XyXuXqX4XyXlX1X;X*X%X@XI.F.F.m.x.j.f.9.9.6.,.,.,.:.U U e e e q q q q q q 7 5 V.J.F.F.<.X ",
"4 V.F.F.9.f.6.q :.c.U.).@X:XR.  f o k V P H x x wXaX-X&X@XU.K.F.F.F.x.g.g.f.9.6.6.6.U U :.U e e e q q q q q e q q 5 V.F.V.V.<.X ",
"4 V.F.G.h.g.9.,.m.K.@X#X#X<XoX[..X.XXXeXXX{.XX`.>X;X%X#X).I.F.F.m.j.g.g.g.9.6.6.,.U :.U e e e e q q q q q e q e q 5 m.F.F.F.<.X ",
"4 V.F.n.j.P.P.k.U.U.@X=X<X1XgXcXnXNXBXSXBXbXcXdX=X=X%X@XK.J.F.V.c.g.g.f.9.6.,.,.,.U :.U e e e q q q q q q q q U q 5 V.F.b.m.<.X ",
"4 V.F._.v.1XpXv.).%X&X:X1XfXkXvXvXBXBXvXzXfX<X=X&X#XI.F.F.F.F.j.g.g.9.9.6.,.,.,.U U U e e q q e q q q e q e e U q 5 V.J._.G.,.X ",
"4 C.k.aXG.hXlXJ.@X&X<XdXdXlXzXmXNXBXbXbXkX<X:X=X#X@XU.J.F.m.x.g.g.f.9.6.6.,.:.:.:.U e e e q q q q q q q q e U :.q 6 V.k.aX_.>.X ",
"4 V.9.0.v.fXkXI.;X:XdXkXkXvXmXNXNXNXvXfXpX;X=X@XU.I.F.F.G.k.g.g.f.6.6.6.,.,.:.:.e e e e q q q q q q q e :.e :.:.e 5 c.9.9.F.<.X ",
"4 V.x.C.j.hXkX).<X1XdXkXvXmXBXBXvXlXkX2X=X&X%XU.K.F.F.m.k.j.g.9.9.5.6.,.:.:.e :.e e q e q q q q q q e e e :.:.,.r 5 c.c.c.F.<.X ",
"4 V.F.K.j.fXzX-X1XhXlXvXmXNXBXbXvXfX1X=X=X#X@XI.F.F.F.c.g.g.g.9.6.6.,.:.:.:.e e e e q q q q q q q e e e :.:.:.,.:.5 V.F.F.F.<.X ",
"4 V.F.G.v.hXvX<XfXkXzXmXNXNXmXvXdX1X>X$X%XI.I.F.F.F.j.g.g.9.9.6.,.,.,.:.:.e e e e q q q q q q q q e e :.:.,.,.6.:.5 V.F.V.V.<.X ",
"4 C.F.G.j.fXbXpXcXzXNXNXBXmXkXkXdX-X&X%X#XF.F.F.F.c.g.g.g.9.6.,.,.,.U :.e e e e q q q q q q q e e :.:.:.:.,.,.6.:.5 F.F.F.F.<.X ",
"4 V.F.F.j.fXNXkXbXvXBXBXbXcXgXpX=X&X#X+XK.F.F.F.k.g.g.f.9.6.,.,.,.U U e e e e q q q q q q q e e e :.:.:.,.6.6.9.6.5 V.F.b.m.<.X ",
"4 V.F._.j.fXmXlXmXmXNXmXvXfX1X:X%X%XU.I.F.F.m.k.k.g.9.9.6.,.,.,.:.:.U e e q e q q q q q q e e e U :.:.,.,.6.9.g.6.5 V.F._.G.,.X ",
"4 C.j.jX_.fXBXbXNXBXNXvXfXpX:X&X#X#XK.F.K.G.c.k.l.l.0.0.7.<.,.:.:.r >.r r r t q 7 q r r r r >.1.>.<.<.7.0.0.0.j.6.2 V.k.aX'.:.X ",
"4 V.6.A.@XMXDXmXBXbXlXkX:X-X@X+XJ.n.v.v.j.g.9.9.6.6.,.,.:.e e q q q 7 7 7 7 5 7 7 7 7 7 q q q e :.:.,.,.6.9.9.g.7.2 c.9.9.F.<.X ",
"4 c.F.=X-XMXFXBXmXbXzXlXfXhXdXdXdX2X2X2X1X<X1X<X,X,X X`.`.`.D.D.D././.`.`././.d.0.B./.^./.`.`.`.`.`.`.`.].].].&XV.w c.c.m.F.<.X ",
"4 G.&X<X:XkXMXfX<X:X1X<X1X<X1X1X1X1X1X2XpX2X1X1X1X1X:X].|.`.D.L.D.`.].].&X&X&XG.j.U.&X=X=X=X&X%X&X=X&X&X=X&X&X'.F.z.V.F.F.V.<.X ",
"4 |.1X<X<X<X=X%Xn.v.v.v.v.v.v.I.v.v.j.v.j.j.v.P.v.j.g.9.,.,.,.,.,.,.6.g.j.v.j.Q.V.m.j.v.j.j.b.(.c.j.v.v.b.j.b.(.C.F.F.F.F.F.<.X ",
"z >X1X<X1X:X(.fX_.c.K.G.G.K.z.aX_.m.G.G.G.H.z.aX_.j.e.7.7.<.:.N.w.9.x.F.G.F.9.aX_.b.G.F.F.G.z.aX_.n.G.F.F.G.z.aX_.b.F.F.F.F.<.X ",
"z :X<X1X:X+X9.9.F.F.F.F.F.c.9.9.F.F.m.F.F.m.9.9.k.g.6.,.6.,.e :.g.k.F.F.m.g.6.9.F.F.F.F.F.m.9.9.F.F.F.F.F.m.9.9.F.F.F.F.F.m.<.X ",
"c oX<X-X(.V.N.V.V.G.C.C.C.V.z.V.C.C.C.C.V.C.V.l.0.q.3.3.3.3.3.q.z.C.C.V.e.z.c.V.C.C.C.C.C.V.c.V.C.C.V.C.G.V.z.V.V.C.C.C.G.V.2.j ",
"v B B N N N N N N N N N N N B N N N N N b N N N b b v c b b b N N N N N b N N b N N N N N N N N N N N N N N B N N N N N b N b v "
};
