/* XPM */
static char *_facd216e98e4aefa0d9ad05e49fad79[] = {
/* columns rows colors chars-per-pixel */
"64 64 248 2 ",
"   c #180000",
".  c #000019",
"X  c #393D3D",
"o  c #433E3E",
"O  c #3B4016",
"+  c #274639",
"@  c #434300",
"#  c #524A00",
"$  c #565500",
"%  c #525214",
"&  c #53531F",
"*  c #676500",
"=  c #64641A",
"-  c #7B7B18",
";  c #585826",
":  c #5B5B28",
">  c #505034",
",  c #5A6225",
"<  c #696921",
"1  c #004C4D",
"2  c #015E5E",
"3  c #394141",
"4  c #3A4B4B",
"5  c #016363",
"6  c #086666",
"7  c #006B6B",
"8  c #106061",
"9  c #116E6E",
"0  c #186F6F",
"q  c #007575",
"w  c #0A7070",
"e  c #007C7C",
"r  c #0C7C7C",
"t  c #127676",
"y  c #157C7C",
"u  c #187E7E",
"i  c #316F64",
"p  c #2F746B",
"a  c #36776B",
"s  c #257A7A",
"d  c #3D7E70",
"f  c #454343",
"g  c #4A4444",
"h  c #454848",
"j  c #4A4C4B",
"k  c #4F504F",
"l  c #585846",
"z  c #415151",
"x  c #4D5050",
"c  c #4F5A5A",
"v  c #555556",
"b  c #545D5D",
"n  c #615D5D",
"m  c #5C5C61",
"M  c #615E69",
"N  c #556161",
"B  c #5A6464",
"V  c #656464",
"C  c #686767",
"Z  c #6B6B65",
"A  c #656568",
"S  c #676868",
"D  c #696A69",
"F  c #757562",
"G  c #7C7D68",
"H  c #706E77",
"J  c #767573",
"K  c #787870",
"L  c #767B7B",
"P  c #7E7D7E",
"I  c #827A00",
"U  c #06817F",
"Y  c #09807F",
"T  c #10817E",
"R  c #2F8179",
"E  c #3B8478",
"W  c #38887E",
"Q  c #5A8667",
"!  c #7F8069",
"~  c #80810F",
"^  c #908700",
"/  c #9F9700",
"(  c #9A9A1A",
")  c #BFBA00",
"_  c #B4B413",
"`  c #909834",
"'  c #9FA633",
"]  c #A2A72E",
"[  c #AFB430",
"{  c #C0C00A",
"}  c #D2CE00",
"|  c #D7D400",
" . c #D8D400",
".. c #C1C112",
"X. c #E1E102",
"o. c #E9E700",
"O. c #EEEE00",
"+. c #C6CA2F",
"@. c #D5D826",
"#. c #D2D52C",
"$. c #D2D231",
"%. c #ECEE23",
"&. c #E9E93A",
"*. c #858664",
"=. c #888867",
"-. c #87A769",
";. c #007E81",
":. c #008383",
">. c #0A8484",
",. c #008C8C",
"<. c #0C8D8D",
"1. c #118282",
"2. c #188080",
"3. c #138D8D",
"4. c #1D8B8B",
"5. c #008D96",
"6. c #019394",
"7. c #0B9393",
"8. c #009599",
"9. c #009B9B",
"0. c #0C9A9A",
"q. c #129494",
"w. c #1B9696",
"e. c #159E9E",
"r. c #1E9F9F",
"t. c #248B87",
"y. c #3B8D82",
"u. c #2A938F",
"i. c #2C9191",
"p. c #219B9B",
"a. c #2C9C9C",
"s. c #359696",
"d. c #349E9E",
"f. c #009EA0",
"g. c #00A3A3",
"h. c #0CA4A4",
"j. c #01ACAC",
"k. c #0DAAAA",
"l. c #14A3A3",
"z. c #1BA4A4",
"x. c #14ACAC",
"c. c #1CAEAE",
"v. c #03B1B1",
"b. c #0BB1B1",
"n. c #11B1B1",
"m. c #1DB2B2",
"M. c #1DBABB",
"N. c #24A3A3",
"B. c #2FA0A0",
"V. c #24AEAE",
"C. c #29AEAE",
"Z. c #34A5A5",
"A. c #38A6A6",
"S. c #36ABAB",
"D. c #3AABAB",
"F. c #23B4B4",
"G. c #2BB4B4",
"H. c #2EB7B8",
"J. c #23BABA",
"K. c #2CB9B9",
"L. c #37B1B1",
"P. c #3BB3B3",
"I. c #33BBBB",
"U. c #3CBDBD",
"Y. c #448F80",
"T. c #509684",
"R. c #449E9E",
"E. c #7E8585",
"W. c #7F8888",
"Q. c #43A7A7",
"!. c #4DA6A6",
"~. c #42ABAB",
"^. c #55ADAD",
"/. c #5BACAC",
"(. c #44B6B6",
"). c #41BEBE",
"_. c #4CBBBB",
"`. c #5BB2B2",
"'. c #52BEBE",
"]. c #5BBBBB",
"[. c #65A9A9",
"{. c #70AEAE",
"}. c #6BB0B0",
"|. c #62BEBE",
" X c #6CBDBD",
".X c #71B1B1",
"XX c #7BB4B4",
"oX c #74BEBE",
"OX c #1BC0C1",
"+X c #3EC1C2",
"@X c #45C1C1",
"#X c #4BC3C3",
"$X c #4EC8C8",
"%X c #52C4C4",
"&X c #5CC4C4",
"*X c #5CC9C9",
"=X c #63C7C7",
"-X c #6AC6C6",
";X c #66C9C9",
":X c #6CC9C9",
">X c #75C4C4",
",X c #7DC4C4",
"<X c #75CACA",
"1X c #7CCDCD",
"2X c #7CD0D0",
"3X c #818989",
"4X c #898888",
"5X c #908E93",
"6X c #869494",
"7X c #8A9090",
"8X c #919796",
"9X c #9D9D9D",
"0X c #A19F9F",
"qX c #A09FA0",
"wX c #9CA7A7",
"eX c #87B8B8",
"rX c #88BEBE",
"tX c #A3A3A3",
"yX c #ABACAC",
"uX c #B4B5B5",
"iX c #8AC1C1",
"pX c #80CECE",
"aX c #8ECFCF",
"sX c #91C3C3",
"dX c #84D1D1",
"fX c #8DD5D5",
"gX c #8FD8D8",
"hX c #92D5D5",
"jX c #9DD3D3",
"kX c #95D9D9",
"lX c #9BDDDD",
"zX c #A2DFDF",
"xX c #A8DDDD",
"cX c #9EE2E2",
"vX c #A4E1E1",
"bX c #ABE4E4",
"nX c #ABE8E8",
"mX c #B2E6E6",
"MX c #B8E4E4",
"NX c #B5E9E9",
"BX c #BBEBEB",
"VX c #C2C6C6",
"CX c #C7CACA",
"ZX c #D6D9D9",
"AX c #C5EFEF",
"SX c #C1F1F1",
"DX c #CDF2F2",
"FX c #DEFAFA",
/* pixels */
"X X X 3 X X X 3 3 X 3 X 3 X X 3 3 3 X X 3 X X 3 3 X 3 X X 3 X 3 3 X X X 3 X X 3 3 X 3 X X 3 3 X 3 X X 3 X X 3 X 3 3 X 3 X X 3 X ",
"h 0 w w w w w w 7 w w w w w w w 7 w w w w w w w 7 w w w w w w w 7 w w w w w w w 7 w w w w w w w 7 w w w w w w w 7 w w w w w 9 X ",
"h t e :.U :.e >.p.:.e e U :.e >.p.U U U U U U >.w.U U U :.U e >.p.:.:.U :.:.e >.p.e e :.e :.e >.p.:.U e :.U e 1.w.U ;.:.U :.r 3 ",
"3 r 6.6.6.6.6.8.q.e 6.6.6.6.6.8.3.e 6.6.6.6.6.8.q.e 6.6.6.6.6.8.q.:.6.6.6.6.6.6.q.e 6.6.6.6.6.8.q.e 6.6.6.6.6.8.q.e ,.6.6.6.6.3 ",
"X >.g.k.j.g.g.h.>.1.0.h.h.g.g.g.,.U 9.g.g.g.g.g.,.e 9.g.g.g.g.g.,.,.9.g.g.g.g.g.,.U 9.g.g.g.g.9.:.U 9.g.g.g.g.g.:.:.9.k.h.j.h.4 ",
"X <.m.v.F.F.w 5 5 5 5 7 5 5 5 5 5 2 2 5 5 2 5 2 5 5 5 5 5 5 5 5 5 5 5 5 5 5 5 5 5 5 5 5 5 5 5 5 5 5 5 5 5 5 5 5 2 y G.m.v.F.V.4 ",
"X <.G._.F.V.t ,XpX>X|.|.].(.C.Z.C.e.l.e.e.q.,.6.,.,.:.:.:.U U U e e e q w w w w w w w w q q e e e ;.:.U :.,.,.,.,.L.U.F._.G.V.4 ",
"X :._.aXx.c.s xXnXnXlXkX2X<X;X$X+XI.K.J.F.m.n.g.f.9.9.6.6.,.,.:.:.:.e :.e e e e q q q q e e e e :.:.:.,.6.6.9.h.g.I.I._.aXh.V.4 ",
"X <.F.9.9.c.y xXBXbXzXlXdX1X<X&X).).U.m.J.F.m.x.g.g.9.6.6.6.,.,.:.:.e e e e e e q q q w q q e e e e :.:.:.,.6.9.6.P.U.F.9.9.V.4 ",
"X <.F.c.x.V.w aXBXNXbXvXlXkX2X:X:X#X).I.F.F.m.m.x.h.g.9.9.6.,.,.,.:.:.:.e e e e e q q q q q q e e e :.:.:.,.,.<.6.P.U.m.c.x.V.4 ",
"X >.m.F.G.F.q pXnXBXBXbXzXkXfXpX<X%X#X@XK.M.F.F.F.x.g.9.9.6.6.,.,.:.:.:.e :.U e e q e q w w q q e e e :.:.:.,.6.,.L.U.m.F.G.V.4 ",
"X <.F.F.F.C.7 >XbXbXBXNXbXvXzXfX1X<X=X).).U.F.F.F.c.x.g.g.9.9.6.,.,.,.,.:.:.e e e e e q e q w q q e e e U :.:.,.,.L.).c.F.F.V.4 ",
"X <.F.V.F.F.7 `.fXzXbXBXBXvXvXlXfX1X:X&X%X).K.K.F.m.m.k.h.g.9.6.6.6.,.,.:.:.:.e e e e q q q q q q e e e e :.:.:.:.L.U.m.F.F.V.4 ",
"X 3.m.b.F.V.7 ^.2XkXkXbXBXBXmXzXlXdXdX<X&X).@XI.m.F.F.F.x.g.9.9.6.6.,.,.,.:.:.e e e e e q e q q w q q e e e ;.>.e D.U.c.b.F.V.4 ",
"X ,.G._.G.F.7 ^.:X1XkXbXnXBXBXbXbXkXkXdX:X&X#X).K.K.m.F.m.k.g.f.9.6.6.6.,.,.:.:.:.e e e e e q w q q w q e e e >.e D.U.G._.F.V.4 ",
"X ,._.aXh.F.5 D.*X=X1XfXvXbXmXBXbXvXkXdX1X<X#X#X).I.J.F.F.F.k.g.g.9.6.6.6.,.,.:.:.e :.e e e q e q q q q q q e :.q D.I._.aXk.C.4 ",
"X <.F.6.6.m.7 Z.#X=X:X2XfXlXmXBXNXbXbXlXfX2X:X=X@XU.U.F.F.F.m.x.g.g.9.9.6.6.,.,.:.:.:.e e e e e q q q q q e q e e A.+Xm.9.9.V.4 ",
"X 3.F.c.c.m.7 B.+X#X&X:X2XfXlXbXBXBXbXvXkXfXdX:X&X#X).I.F.F.F.m.x.g.f.9.6.6.,.,.,.:.:.:.e e e e e q q q q q q r q A.U.m.c.c.V.4 ",
"X <.F.F.F.V.7 r.K.U.#X=X-X1XkXbXbXNXBXmXvXlXfXpX<X=X).@XU.J.F.m.F.c.g.f.9.6.6.,.,.,.:.:.:.e e e e q e q q w w e w A.U.c.G.F.V.4 ",
"X >.F.V.F.V.7 e.J.K.).@X&X=XdXdXzXbXBXNXbXbXkXkX2X<X=X#XU.I.K.F.F.c.k.g.f.9.9.6.,.,.,.:.:.:.e e e e e q q q q q 7 A.+Xm.F.F.V.4 ",
"X <.F.F.F.F.7 w.J.F.I.@X#X&X:X1XfXlXmXBXmXbXzXlXdX2X<X&X#XU.K.m.F.F.m.k.g.g.9.8.6.6.,.:.:.:.:.e e e e q q e q q 7 Z.U.m.F.F.V.4 ",
"X <.F.b.F.V.7 q.F.F.G.K.U.#X&X:X1XkXvXvXBXBXbXvXlXkX1X:X=X#X+XU.F.F.F.m.x.g.f.9.9.6.6.,.,.:.:.:.U e e e e q w r 5 !.%Xb.b.F.V.4 ",
"X >.F._.G.V.7 6.j.c.F.F.I.+X#X%X:X1XfXbXbXBXBXbXvXlXfXdX:X%X#X).K.F.F.F.c.x.g.f.9.6.6.,.,.,.:.U ;.e e e e q q w 7 /.&Xm._.G.V.4 ",
"X ,._.aXg.F.6 ,.j.c.m.F.F.K.).#X=X=XpXkXlXmXBXBXbXvXlXfX1X<X&X@X@XI.m.F.F.F.c.g.g.9.6.6.,.,.,.,.:.U :.e e e e r 5 }.;XP.aXk.C.4 ",
"X ,.F.6.:.c.5 ,.g.g.g.G.F.F.J.U.#X&X:X<XfXvXvXBXBXbXvXkXfXdX:X&X#X).K.K.F.F.F.k.h.9.9.8.7.<.,.>.:.:.:.;.e e y ;.5 iXfXj.0.9.V.4 ",
"X >.g.x.c.c.6 ,.g.g.j.x.m.F.F.U.).#X=X:X<XkXbXbXBXmXmXvXlXdX2X<X#X#X).I.M.F.F.k.j.g.g.9.6.6.,.,.,.:.:.;.e e r s 5 sXkXj.F.x.V.4 ",
"3 >.9.g.F.V.5 ,.9.f.g.g.x.F.F.J.I.U.@X=X=XdXfXvXNXBXNXbXvXlXfX1X:X:X#XU.U.J.F.P.P.D.S.A.d.d.s.i.4.<.:.:.>.T r ;.7 sXhXj.G.G.V.4 ",
"3 >.6.6.g.c.5 e 6.9.9.g.g.k.m.F.F.K.U.#X&X=X2XlXlXbXBXBXbXvXkXfXdX:X&X#X#XJ.P.6XE.E.E.E.E.E.E.L b :.<.:.:.;.r ;.7 sXkXj.G.F.V.4 ",
"X >.6.,.8.g.2 U 6.6.9.f.g.g.c.F.F.F.I.).#X=X=X1XfXkXmXBXNXmXvXlXfXpX<X=X).+X'.E.n n n V n V V V h e 6.t.y.Y.y.1.7 sXhXj.G.F.V.4 ",
"X >.6.,.,.6.2 e ,.6.6.8.9.g.g.k.F.F.F.U.U.#X%X:XdXfXvXvXBXNXbXbXlXkX1X:X=X#X'.W.V B C C S C V V j T 5.-.O.%.] e w sXkXj.m.F.V.4 ",
"3 >.6.q.6.,.2 e :.,.6.6.9.f.g.g.m.m.F.F.J.@X#X&X:X2XfXzXbXBXNXbXlXlXdX1X<X&X%X3Xn S S C C C C C h >.8.Q o.X.* 8 7 sXkXj.'.F.V.4 ",
"3 >.7.r.U ,.2 q :.:.,.6.6.9.g.g.g.k.F.F.F.K.@X@X&X:X1XfXvXNXBXNXbXvXlXkX2X:X<X3XV S V A A A S C h :.9.,.@.| + 2 5 sXhXG.aXk.C.4 ",
"X <.6.e e ,.5 q :.:.:.,.,.6.9.g.f.j.k.m.G.J.K.+X#X%X=X2XkXlXvXBXBXmXzXkXfX1X1X7Xn D F F Z C C C h ,.9.,.#.| i ;.5 iXfXj.0.9.V.4 ",
"X <.g.6.6.,.2 q :.:.:.:.,.6.6.9.f.g.g.x.m.m.G.K.#X#X=X=X2XkXzXnXBXBXbXvXzXfXpX8Xm G &.{ ( < m D g ,.g.6.#.| p 6.7 ^.&Xb.V.x.V.4 ",
"X <.k.9.6.,.5 w e e :.:.:.,.,.6.9.9.g.g.j.F.F.m.I.I.#X&X-X1XdXzXbXBXNXbXzXkXjXtXM =.$.@ > % k C h ,.b.9.$.| p 6.T 6.g.h.F.F.V.4 ",
"X <.F.k.9.,.2 q e e e :.:.,.,.6.6.9.9.g.g.x.m.F.G.G.).#X=X:X1XkXlXbXBXBXmXcXvXuXH *.... j & j C f q.n.9.+.} a 9.Y 7.h.9.F.F.V.4 ",
"X ,.m.G.k.9.5 w e q e e :.:.,.,.,.6.8.f.g.g.k.G.F.J.I.).@X=X-X1XlXbXbXBXBXbXbXVX5XG _ l K ; f C o q.M.z.[ ) d f.>.6.f.f.F.F.V.4 ",
"X >.g.j.G.k.5 7 e e e e e :.:.:.,.6.6.6.9.g.g.x.m.F.F.I.U.#X&X=X1XfXvXbXmXBXmXVXqXK - = ; @ X S g q.J.C.' / R g.>.6.f.9.v.F.V.4 ",
"X <.V.~.m.V.5 w q q e e e e :.:.:.,.6.6.9.g.g.g.c.F.F.m.J.@X#X;X-X1XfXlXmXBXBXCX9XP m v h X j S o q.M.D.` ^ E j.:.6.9.z._.F.V.4 ",
"X ,._.aXg.c.6 7 q q e q e e e :.:.,.,.,.6.9.g.g.g.j.F.G.G.U.U.#X%X:X1XfXlXbXAXZXyX4XJ C C C S C g w.M.T.I ~ , 0.,.7.9.Q.aXk.G.4 ",
"X <.F.9.6.f.5 7 w q q e e e e e U :.,.,.6.6.9.9.g.g.c.c.F.G.K.).#X*X-X2XkXvXBXZXuX0X=.H C C C C o a.+Xu.# $ O 5 U 6.f.h.6.9.V.4 ",
"X <.F.c.c.h.5 q e w q q q q e e U U :.:.:.6.6.9.g.g.g.b.F.F.m.K.).#X&X-XdXdXvXVXtXuX9XP D A S S o B.@XH.z.7 1 5 7 8.9.9.m.x.V.4 ",
"X <.V.F.F.V.5 w q q q q q e e e e U U :.,.,.,.6.9.9.g.j.x.m.G.J.I.@X#X&X-X<XlXyX4XqXuXwX4XJ D S g B.$X+XI.n.U q e 6.g.h.F.J.V.4 ",
"X <.m.F.F.V.7 7 q e q w q q q e e e U :.:.:.,.6.6.6.g.g.g.x.F.m.K.F.U.#X=X:XaXwXx x J P V k 3 f   R.:X@X).U.c.,.q 8.9.f.F.F.V.4 ",
"X <.F.F.F.m.5 q e q q q q q q e q e e e :.:.,.,.6.6.9.9.g.g.j.m.F.m.I.).#X%X-X:X`.XX{.XXeXXX.X.X[.oX<X#X#X@XK.m.,.9.g.f.F.F.V.4 ",
"X <.F.b.F.V.5 q e q q e q w q q e e e e e :.:.:.,.,.6.9.g.g.g.c.m.J.F.K.@X#X=X=XdXcXnXBXSXBXNXnXcXgX2X<X=X@X).U.x.P.P.k.n.F.V.4 ",
"X >.G._.F.V.5 q :.e e q e w w q q q e e e e e :.,.,.,.6.9.9.g.g.g.F.F.J.F.I.#X&X=X<XfXzXvXBXMXvXvXgXfX1X-X&X#X).v.2XpXj._.F.V.4 ",
"X ,._.aXk.V.6 e :.e e e q q q q q q q e e e U :.:.:.,.6.6.9.9.g.g.c.m.F.J.U.).%X=X:X<XkXbXnXBXNXmXvXzXdXpX<X&X#XJ.lXhXG.aXk.C.4 ",
"X <.V.9.9.c.5 e :.:.e e e w q q 7 e q e q e e e U :.,.:.6.6.9.9.g.g.k.F.F.J.I.U.@X=X-XpXfXzXNXBXBXmXbXkXkXpX:X=XI.lXhXj.0.9.V.4 ",
"X <.F.c.x.m.6 e ,.:.:.U e e w e q q q q q e e e U U :.,.,.,.6.9.9.g.k.k.m.F.F.K.U.#X&X=X2XkXlXvXBXNXnXzXkXdX2X<X).lXhXj.G.x.V.4 ",
"X <.F.F.F.V.2 :.,.:.:.:.e e e q e q 7 e q q e e e :.:.:.,.,.6.6.9.g.g.g.c.F.F.F.I.).#X=X:X2XfXvXbXBXNXbXbXlXfX1X=XvXhXj.G.F.V.4 ",
"X <.m.V.G.V.5 :.,.,.,.:.:.:.e q 7 e e 7 q q q e e e U e :.:.,.6.6.9.9.g.g.k.F.F.F.U.I.#X%X:X1XdXbXbXNXBXbXvXkXfX<XzXfXj.G.F.V.4 ",
"X <.F.F.F.V.5 ,.6.,.,.:.:.:.U e e q q q q q q q e q e e :.:.:.,.,.6.9.g.g.g.c.m.F.J.F.@X#X=X:X2XkXlXmXBXNXmXzXlXdXbXfXj.G.F.V.4 ",
"X 3.F.b.F.V.6 ,.9.6.6.,.:.:.:.e e e q e q q q q q e e e e :.:.:.,.6.6.9.g.g.g.k.F.F.F.K.U.#X&X=X1XfXzXbXSXBXbXbXgXNXfXj.F.F.V.4 ",
"X ,.G._.F.V.5 ,.g.9.6.,.,.:.:.:.U e q q q q q q q q e q e :.e :.U ,.,.6.8.9.g.k.k.m.F.F.I.U.#X*X:X1XfXvXbXNXNXbXlXNXfXj._.F.V.4 ",
"X :._.aXk.F.5 6.h.h.0.0.7.<.<.>.T Y Y r r r q q q r r r r >.>.>.,.,.<.7.0.0.l.l.h.c.G.H.F.H.#X$X=X:X1XfXvXmXBXBXbXBXgX_.jXj.C.4 ",
"X <.F.9.9.c.2 6.j.9.9.6.,.,.:.e U q q q 7 7 7 7 7 5 7 7 7 7 q q q U U U ,.,.6.6.9.g.g.j.j.v.n.J.U.#X=X<XkXkXbXBXmXDXMX#XZ.6.V.4 ",
"X <.F.c.x.V.w V.].].].].].`.`.`.`./././././.B.0.d./././.`././.A.A.D.`./.^. X,X,X1X,X,X1X2X2X2X2XdXdXfXfXlXbXvXmXBXFXMX-X&XF.c.4 ",
"X <.F.F.G.F.l.K.%X&X=X&X=X&X=X&X&X&X=X&X&X=XU.j.F.&X&X&X].].`.P.L.L.`.].&X:X2X2X1XpX2X1X2X2X2X1X1X2X2X1X<X<X<X<XfXmXkX<X<X*XG.4 ",
"X <.m.F.F.F.F.G.(.b.j.j.j.v.j.c.P.b.v.v.v.v.m.V.~.j.b.j.g.8.,.,.,.,.,.,.9.g.j.j.I.j.j.j.j.j.j.v.I.j.v.j.v.v.j.b.%X=X<X<X1X<X|.4 ",
"X <.F.F.F.G.b._.aXx.G.F.F.G.n._.aXz.G.F.G.F.b._.aX9.V.G.F.x.9.q.N.U <.<.7.e.j._.aXz.G.G.G.G.c.'.aXz.H.G.G.G.m._.aX(.:X1X<X<X<Xz ",
"X >.m.F.m.F.m.F.9.9.m.F.F.F.F.F.9.8.m.F.F.F.F.F.9.9.g.c.F.F.x.f.:.U ,.6.,.6.f.k.9.9.m.J.F.m.F.F.9.9.m.F.F.m.F.J.9.9.U.:X1X<X>Xz ",
"h 4.V.C.C.C.C.C.V.N.V.C.C.C.C.C.V.c.C.C.C.V.C.C.V.V.z.h.V.C.V.z.q.3.3.3.3.3.3.0.l.c.V.C.C.C.C.C.V.c.V.C.C.C.C.G.V.N.V._.-X<XoXc ",
"v b N N N N N N N N N N N N N N N N N N N N N N b N N b N N N N N N v b b b b N N N N N N N N N N N N N N N N N N N N N N B B v "
};
