/* XPM */
static char *_1af1f3fb8fb41dcc8acf30c82aaa30b[] = {
/* columns rows colors chars-per-pixel */
"64 64 88 1 ",
"  c #34003F",
". c #330043",
"X c #340040",
"o c #350140",
"O c #340042",
"+ c #320044",
"@ c #330044",
"# c #320045",
"$ c #320046",
"% c #330046",
"& c #320047",
"* c #310049",
"= c #320048",
"- c #31004A",
"; c #30004B",
": c #31004B",
"> c #31004C",
", c #31004D",
"< c #30004F",
"1 c #31004F",
"2 c #300051",
"3 c #310051",
"4 c #300053",
"5 c #300054",
"6 c #300055",
"7 c #300056",
"8 c #310057",
"9 c #310058",
"0 c #310059",
"q c #31005A",
"w c #31005B",
"e c #32005C",
"r c #32005D",
"t c #32005F",
"y c #320060",
"u c #330061",
"i c #330062",
"p c #340064",
"a c #340065",
"s c #350066",
"d c #350067",
"f c #360069",
"g c #36006A",
"h c #38006B",
"j c #38006C",
"k c #38006D",
"l c #39006E",
"z c #39006F",
"x c #3A006F",
"c c #3B0071",
"v c #3C0071",
"b c #3C0072",
"n c #3C0073",
"m c #3D0074",
"M c #3E0075",
"N c #3F0076",
"B c #3F0077",
"V c #400077",
"C c #410079",
"Z c #420079",
"A c #42007A",
"S c #43007A",
"D c #44007C",
"F c #46007D",
"G c #46007E",
"H c #47007F",
"J c #490081",
"K c #4A0082",
"L c #4B0082",
"P c #4B0183",
"I c #4D0184",
"U c #4D0185",
"Y c #4E0185",
"T c #4E0186",
"R c #500187",
"E c #510188",
"W c #520188",
"Q c #520288",
"! c #54028A",
"~ c #55028B",
"^ c #56028B",
"/ c #58028D",
"( c #59028E",
") c #5C0391",
"_ c #5E0391",
"` c #610493",
"' c #610494",
"] c #630494",
/* pixels */
"CCCC^!~~JGGJlllchhhhiwyypdpgzzzzkghh=11=ww99CCCCCBBB7777####=***",
"CCCC!^~~JGGJlcllhhhhiiiipddpkczzlghh1==<9wwwCCCCCMBB7777####<=**",
"CCCC^!^^GGGGclclhhgkwiwwpdddllclhhhh=<<=9w99CCCCBBBB7755####****",
"CCCC!^^^GJJGllclhhhkiiiiddddclllhhhh<=1<ww99CCCCBBBB7775####****",
"GGGGCCZZCCCCGCGS7777   OiiiidghdMZMZwiwweettMccM597711=<7t7t5557",
"GGGGSCZZCCCCSGCG7777OO  iiiigddgZMZMwwpwtteeMMMM75771=1<t7tt5575",
"GGGGCSZZCCCCGGGG7795    iiiiggdgMZMZtewwttwwcMMM7777==<=7tt75757",
"GGGGSCZZCCCCCCGC7755 O  iiiidghdZMZZetttwwiwcMMM7777<1=<7t7t7575",
"9999hhhhCCCC3111%O#%pwppTTTPccccR^^RMMMMclclRR^Qcccc=<=1#oo#dppp",
"9999hhhgCCCC1111#OO#ppwpPPTTcccc^Q^^MMMMclcl!RRRcccc<=<1#o#opppp",
"9999hhgkCCCC1111O##OwwppTTPTcccc!!!!MMMMlcll!R!Rcccc1=1=oo#odpdp",
"9999hhkkCCCC1111%#O%pppwTPTTcccc!!!!MMMMlllcR!T!cccc=<=1#oo#ppdp",
"#%%%pdpp3333##=#iwpp~~!^KLLL444499w9ww9w1=<=kczz~(((lcllo##o###O",
"%%%%pdpd3333##=#iipw~~~!KKLL444499w9w9ww1==<zkzz((((lclc#o####%#",
"%%%%pppd3333#=##iiii~~^^LLLL4435wwwwww99=1==zzzz((((llzc#o#o#OO#",
"%%%%pppd3333###=iwii~~^^LLLL4553w99w9www1==<zzzz((((ckczo##oO%#O",
"53444444#=##iiiiTTLRSFFF1111####=###iiii=====#*$lhhhYYYYhlll####",
"55444444#=#=iiiiTTRRHHFF1111######==iiii======#$lghhLTYYllll###=",
"34444444####iiiiTTLLFFFF1111#####=##iiii====#=$*hhhhTLTLllll###=",
"55444444=###iiiiLRRTFFFF1111######=#iiii====#=$$hhhhLTLTllll==##",
"MMMMiiiigggg^^^^CCGC134<OOOOwww9wwwillllcccc++++11<<gggg____cMlM",
"MMMMiiiigggg^^^^GCCS33<4OOOO99wwiwwwllllcccc++++<<<<gggg____Mlxx",
"MMMMiiiigggg^^^^CCCC4<4<OOOOww9wttiwklzkcccc++##<<<<gggg____VxMx",
"MMMMiiiigggg^^^^CCCC<4<4OOO%w995ettwkckzcccc$$o#<<<<gggg____xxMx",
"KLLLppppZMZMKKKK1=11 oo 5777ZMMMFFFFxxMlR!RRllzz#==#====ZVMBGGGG",
"KLLLppppMZMZKKKK11=1 ++ 5577MMMZFFFFMxlMRRR!clzz####====VVCMGGHS",
"LLLLppppZMZMKKKK=111oooo7777ZMZMFFFFMlxMR^RRlkzz=##=====MMMMFFGS",
"LLLLpppdMZMZKKKK111=oooo7777MMMZFFFFllMlQRRQlczz=##=====ZMZMFFHH",
"dddd###=ppppdddd455599wwttwwwwee]]]]CCSZMMMM____cccM*<=*4444ptpp",
"dddd=##=ppppdddd5555ww9wttiwpwee]]]]CSZZMMMM____cMcc****4444tppt",
"dddd####ppppdddd555599ww7t7w9tee]]]]ZZZZMMMM__)_McMc<==<4444iptp",
"dddd#==#ppppdddd5555www9ttwiwtee]]]]ZZZZMMMV__))ccMc***=4433ipwp",
"lhgl4444ttttdddp50554444,;,;5553tpttppppTTTTKTPPwiiw;;;;4444nBBB",
"ghlh4444ttttppdd55004444;,;,3355ptptppppTTTTKKPPiwwi;*;;4444BBBC",
"lhgl4444ttttdddd05054444,;,;5535ttppppppTTTTKPPPwiiw*<*<4444MZCM",
"lhkk4444ttttdpdd50554453>>,,5353tpttppppTTTTTKPPiwii*<**4444ZMZC",
"YYYYiiiiMMMxTTLY5444++++>>>1::::====pppphhhhCCCCnMnMiiiihhhhQQQQ",
"YYYYiiiiMMMMTTYY5444++++>>>>::::====pppphhhhCCCCMnMniiiihhhhQQQQ",
"YYYYiiiiMcMMTTPR4444++%%1>1>::::====pppphhhgCCCCnMnMiiiihhhhQQQQ",
"YYYYiiiwMMMcRPRR4444+..%>>1>::::===%pppphhhkCCCCMnMniiiihhhgQQQQ",
"dddp13339999/Q!!YTRR5544oooo9999ptpw99wwgggg^!^~ZZZZ33333544dddd",
"pddp33339999Q/!/TTRR5544oooo9999ttwiw999gghd!^!~ZZZZ33334444dddd",
"dddd33339999/!/!QTQR4444ooo 9999wiiiw999gddg^!^^ZZZZ33334444dddd",
"dppd33339999!!!!TQRR4444ooo 9999iiwi9995ghdg!^^^ZZZS33334444dddd",
"pppp5e5e##==999wTTTPQQQQwpwtw77tddddhhhh((((HHHH1<<<  OOdppdcccc",
"ppppe5e5=###ww99PPTTQQQQwiwtw7t7ddpdhhhh((((HHHH11<<O   ddddcccc",
"pppp5e5e=###9999TTPTQQQQwwwiww7tdpddhhhh((((HHHH<<<<O   pdddcccc",
"ppppe5e5##==9w99TPTTQQQQwiwww9t7dddphhhh((((HHHH<<<<  O pdddcccc",
"MMMM////wwiw====5757/!!/UYYYgggggggg////TTTT9999oo##dddd((((SSSS",
"MMcM////iiwi====7575/!!!TYYYgggggggg////TTTT5959####dddd((((SSSS",
"McMM///(wiww====5555!/!/YYYYgggggggg////TTTT9995#OO#dddd((((SSSS",
"MMMc///(iwii====9555!!!!YYYYgggkgggg////TTTQ5995%#O%dddd((((SSSS",
"ddhdQQQQ))))www9oooo9999JJJJnnMnccMcKKKK55441=11gggg``''KHHKdddd",
"ggdgQQQQ))))w9wwoooo9999JJJJnMnMMcMcKKKK3544111=gggg''''KKKKdddd",
"ddggQQQQ))))9w9woooo9999JJJJMnMnlMccKKKK44441=11gggg''''HKKHdddd",
"gggdQQQQ))))ww9woooO9999JJJJnMnMMccMKKKK44441=1=gggg''''HKKKdddd",
"gggdgpgp((((TTTT<4<4###=wiwipwiwwwiw9999    dddd````CCCC999wiiii",
"ddggpgpg((((TTTT4<4<=#==iiiwwwwwwiwi9999    dddd````CCCC999wiwiw",
"gggggpgp((((TTTT<4<4==##iwtpwtwiiiwi9999    dddd````CCCC9999yyit",
"gdggpgpg((((TTTT4<43#===iittttwwiwiw9999    dddd````CCCC9ww9yyyy",
"5999KKKKCCCCMnnnhhhhiiiinMnMnMnMkkkkiiiittptLQLTMMMM4<4<<*=<7t77",
"9999KKKKCCCCnnnnhhhhiiiiMnMnMnMnkkkkiiwipttpYLQTMMMM<4<4=***t77t",
"9999KKKKCCCCnnnnhhlgiiiinMnMMMcMkklkpppitpptYYLTMMMM4<4<****wwt7",
"9999KKKKCCCCnnnnhhhgiiiiMnMncMMMkkllwwiitptpYYTTMMMM<4<4<*=1w77t"
};
