/* XPM */
static char *_cf99e4611c14109e428f18072780ed9[] = {
/* columns rows colors chars-per-pixel */
"64 64 27 1 ",
"  c gray11",
". c #231C0A",
"X c #312611",
"o c #382A15",
"O c #3F3115",
"+ c gray15",
"@ c #313131",
"# c #3F3F3F",
"$ c #493418",
"% c #50381C",
"& c #5E3F1F",
"* c #654223",
"= c #704626",
"- c #774D2A",
"; c #7E502D",
": c #494949",
"> c gray34",
", c #626262",
"< c #6C6C6C",
"1 c gray48",
"2 c #885431",
"3 c #8C5734",
"4 c #935B38",
"5 c #9D623B",
"6 c #A4693F",
"7 c gray52",
"8 c None",
/* pixels */
"88888888888888,,,,,,,,,,,,,,,,,<<<<<<<<<<<<111111188888888888888",
"88888888888888,,,,,,,,,,,,,,,,,<<<<<<<<<<<<111111188888888888888",
"8888888888<<,,:::::::::::::::::::::>>>>>>>>>>,,,,,11<<8888888888",
"8888888888<<,,:::::::::::::::::::::>>>>>>>>>>,,,,,11<<8888888888",
"88888888<<11::@@       ++++++++++++++@@@@#######::,,::,,88888888",
"88888888<<11::@@       ++++++++++++++@@@@#######::,,::,,88888888",
"88888888<<<<117777111<<<<<<<<<<,,,,,,,,>>>>>>>>:::##@@@@88888888",
"88888888<<<<117777111<<<<<<<<<<,,,,,,,,>>>>>>>>:::##@@@@88888888",
"8888882222<<<<1111<<<,,,,,,>>>>>>>>::::::######@@@@@@@OOOO888888",
"8888882222<<<<1111<<<,,,,,,>>>>>>>>::::::######@@@@@@@OOOO888888",
"888888--33;;2222--=====********&&&&&&%%%%%%OOOOOOOOOOO%%OO888888",
"888888--33;;2222--=====********&&&&&&%%%%%%OOOOOOOOOOO%%OO888888",
"888822--33335566226555533;;44443322;;**&&==****$**&&OOOO%%OO8888",
"888822--33335566226555533;;44443322;;**&&==****$**&&OOOO%%OO8888",
"8888--33--5566334465555;;--44443322;;**&&====**&%%**&&OO%%OO8888",
"8888--33--5566334465555;;--44443322;;**&&====**&%%**&&OO%%OO8888",
"8888--33--5566226655555;;;;44443322;;==%%======*$$**&&OO%%##8888",
"88::>><<11,,66226655544;;44443322;;--==%%======*$$########@@8888",
"88::>><<11,,66226655544;;44443322;;--==%%======*$$########@@8888",
"88::,,<<<<11117711<<<<<<<,,,,,,,,,,>>>>>>>>>>:::::::@@@@@@@@OO88",
"88::,,<<<<11117711<<<<<<<,,,,,,,,,,>>>>>>>>>>:::::::@@@@@@@@OO88",
"88::<<<<<<<<<<11,,,,,,,>>>>>>>>::::::::::::#######@@@@@@@@@@OO88",
"88::<<<<<<<<<<11,,,,,,,>>>>>>>>::::::::::::#######@@@@@@@@@@OO88",
"88--**::>>,,<<<<,,,,,,,>>>>>>>>::::::::::::#########@@@@@@%%OO88",
"88--**::>>,,<<<<,,,,,,,>>>>>>>>::::::::::::#########@@@@@@%%OO88",
"88--33--553333%%22;--==OO******&&&&&&&&..%%OOOOOOO$$%%%%OO%%OO88",
"88--33--553333%%22;--==OO******&&&&&&&&..%%OOOOOOO$$%%%%OO%%OO88",
"88--33--556666336655555;;44332222;;--==%%======*&&$$%%%%OO%%OO88",
"88--33--556666336655555;;44332222;;--==%%======*&&$$%%%%OO%%OO88",
"88--33--556666336655555;;44332222;;--==%%======*&&$$%%%%OO%%OO88",
"88--33--556666336655555;;44332222;;--==%%======*&&$$%%%%OO%%OO88",
"88--33--556666336655555--44332222;;--==%%======*&&$$%%%%OO%%OO88",
"88--33--556666336655555--44332222;;--==%%======*&&$$%%%%OO%%OO88",
"88--33--556666336655555--44332222;;--==%%======*&&$$%%%%OO%%OO88",
"88--33--556666336655555--44332222;;--==%%======*&&$$%%%%OO%%OO88",
"88--33--556666336655555--44332222;;--==%%======*&&$$%%%%OO%%OO88",
"88--33--556666336655555--44332222;;--==%%======*&&$$%%%%OO%%OO88",
"88--33--556666336655555--44332222;;--==%%======*&&$$%%%%OO%%OO88",
"88--33--556666336655555--44332222;;--==%%======*&&$$%%%%OO%%OO88",
"88<<33--556666226655555==44332222;;--==%%======*&&$$%%%%OO####88",
"88<<33--556666226655555==44332222;;--==%%======*&&$$%%%%OO####88",
"88,,111111<<66226655555==44332222;;--==%%======*&&$$########@@88",
"88,,111111<<66226655555==44332222;;--==%%======*&&$$########@@88",
"88>><<<<<<117711<<<<<<<<<,,,,,,,,,,>>>>>>>>>>:::::::##@@@@@@8888",
"88>><<<<<<117711<<<<<<<<<,,,,,,,,,,>>>>>>>>>>:::::::##@@@@@@8888",
"88::>>,,<<<<11<<,,,,,,,>>>>>>>>::::::::::::#########@@@@@@@@oo88",
"8888**::>>>>>>,,,,,,,,,>>>>>>>>::::::::::::#########oooooo$$%%88",
"8888**::>>>>>>,,,,,,,,,>>>>>>>>::::::::::::#########oooooo$$%%88",
"8888----===========&&&&XX&&&&%%%%%%%%%%..%%%%%%%oooo%%OO%%OO%%88",
"8888----===========&&&&XX&&&&%%%%%%%%%%..%%%%%%%oooo%%OO%%OO%%88",
"8888--33--4466226644422**22;;;;;;;;--==%%====**&OO%%%%OO%%OO8888",
"8888--33--4466226644422**22;;;;;;;;--==%%====**&OO%%%%OO%%OO8888",
"888888--333355--4444422**--;;;;;;;;--&&%%====**&OO%%%%OO%%OO8888",
"888888--333355--4444422**--;;;;;;;;--&&%%====**&OO%%%%OO%%OO8888",
"888888,,33--3333--44422**==;;;;;;--==%%%%====**%OO%%OO%%OO888888",
"888888,,33--3333--44422**==;;;;;;--==%%%%====**%OO%%OO%%OO888888",
"888888,,11771133--22222==**--------==%%&&==**&&O%%OOOOOO@@888888",
"888888,,11771133--22222==**--------==%%&&==**&&O%%OOOOOO@@888888",
"88888888<<<<<<1111111<<<<<<,,,,>>>>>>::::::#####@@@@++  88888888",
"88888888<<<<<<1111111<<<<<<,,,,>>>>>>::::::#####@@@@++  88888888",
"8888888888<<,,<<<<,,,,,>>>>>>>>::::::::######@@@@@++++8888888888",
"8888888888<<,,<<<<,,,,,>>>>>>>>::::::::######@@@@@++++8888888888",
"88888888888888:::::::::##########@@@@@@@@+++++++++88888888888888",
"88888888888888:::::::::##########@@@@@@@@+++++++++88888888888888"
};
