/* XPM */
static char *_543259431033[] = {
/* columns rows colors chars-per-pixel */
"64 64 2 1 ",
"  c #111111",
". c None",
/* pixels */
"................................................................",
"................................................................",
"................................................................",
"................................................................",
"................................................................",
"................................................................",
"................................................................",
"................................................................",
"................................................................",
"................................................................",
"................................   .............................",
"...............................     ............................",
".............................       ............................",
"............................        ............................",
"...........................         ............................",
"..........................          ............................",
".........................           ............................",
"........................            ............................",
".......................             ............................",
".....................               ............................",
"....................                ....   ...............   ...",
"...................                 ....    .............    ...",
"....                                ...      ...........     ...",
"...                                 ....     ..........      ...",
"...                                 .....     ........      ....",
"...                                 ......     .......     .....",
"...                                 ......      .....     ......",
"...                                 .......      ...     .......",
"...                                 ........      .      .......",
"...                                 .........           ........",
"...                                 ..........         .........",
"...                                 ...........       ..........",
"...                                 ...........      ...........",
"...                                 ...........       ..........",
"...                                 ..........         .........",
"...                                 .........           ........",
"...                                 ........      .      .......",
"...                                 .......      ...     .......",
"...                                 ......      .....     ......",
"...                                 ......     .......     .....",
"...                                 .....     ........      ....",
"...                                 ....      .........      ...",
"....                                ...      ...........     ...",
"...................                 ...     .............    ...",
"....................                ....   ...............   ...",
".....................               ............................",
"......................              ............................",
".......................             ............................",
".........................           ............................",
"..........................          ............................",
"...........................         ............................",
"............................        ............................",
".............................       ............................",
"..............................      ............................",
"...............................    .............................",
"................................. ..............................",
"................................................................",
"................................................................",
"................................................................",
"................................................................",
"................................................................",
"................................................................",
"................................................................",
"................................................................"
};
