/* XPM */
static char *a735d586286c4fccd95f5dafcf76dad9[] = {
/* columns rows colors chars-per-pixel */
"40 70 2 1 ",
"  c black",
". c None",
/* pixels */
"........................................",
"........................................",
"........................................",
"........................................",
"........................................",
"........................................",
"........................................",
"........................................",
"........................................",
"........................................",
"........................................",
"........................................",
"........................................",
"........................................",
"........................................",
"........................................",
"........................................",
"........................................",
"........................................",
"........................................",
"........................................",
"........................................",
"........................................",
"........................................",
".....  ............   ..................",
"....   ....     ...   ..................",
"....   ..        ...   .................",
"....   .           .   .................",
"...   .            ..   ................",
"...   .             .    ...............",
"...  .              ..   ...............",
"..   .              ...   ..............",
"..   .              ...    .............",
"..   .              ....   .............",
".   ..              .....   ............",
".   ...             .....   ............",
"     ...           ....    .............",
".     ...         ....    ..............",
"...     ..      ....     ...............",
".....    ...   ...      ................",
"......     .   ..     ..................",
"........            ....................",
".........          .....................",
"...........      .......................",
"............    ........................",
"............   .........................",
"............   .........................",
"............   .........................",
"............   .........................",
"............   .........................",
"............   ........  ...............",
"............   .......    ..............",
"............   .....      ..............",
"............   ..         ..............",
"............          .  ...............",
"............        ..   ...............",
"............     .....   ...............",
"............   .......   ...............",
"............   ......   ................",
"............   ......   ................",
"............   ......   ................",
".............   .....  .................",
".............   ....   .................",
"...             ....      ..............",
"..              ....       .............",
"..              .....      .............",
".   ....................................",
"    ....................................",
"   .....................................",
"........................................"
};
