/* XPM */
static char *_542903660730[] = {
/* columns rows colors chars-per-pixel */
"40 70 3 1 ",
"  c black",
". c white",
"X c None",
/* pixels */
"XXXXXXXXXXXXXXXXXXXXXXXXXXXXXXXXXXXXXXXX",
"XXXXXXXXXXXXXXXXXXXXXXXXXXXXXXXXXXXXXXXX",
"XXXXXXXXXXXXXXXXXXXXXXXXXXXXXXXXXXXXXXXX",
"XXXXXXXXXXXXXXXXXXXXXXXXXXXXXXXXXXXXXXXX",
"XXXXXXXXXXXXXXXXXXXXXXXXXXXXXXXXXXXXXXXX",
"XXXXXXXXXXXXXXXXXXXXXXXXXXXXXXXXXXXXXXXX",
"XXXXXXXXXXXXXXXXXXXXXXXXXXXXXXXXXXXXXXXX",
"XXXXXXXXXXXXXXXXXXXXXXXXXXXXXXXXXXXXXXXX",
"XXXXXXXXXXXXXXXXXXXXXXXXXXXXXXXXXXXXXXXX",
"XXXXXXXXXXXXXXXXXXXXXXXXXXXXXXXXXXXXXXXX",
"XXXXXXXXXXXXXXXXXXXXXXXXXXXXXXXXXXXXXXXX",
"XXXXXXXXXXXXXXXXXXXXXXXXXXXXXXXXXXXXXXXX",
"XXXXXXXXXXXXXXXXXXXXXXXXXXXXXXXXXXXXXXXX",
"XXXXXXXXXXXXXXXXXXXXXXXXXXXXXXXXXXXXXXXX",
"XXXXXXXXXXXXXXXXXXXXXXXXXXXXXXXXXXXXXXXX",
"XXXXXXXXXXXXXXXXXXXXXXXXXXXXXXXXXXXXXXXX",
"XXXXXXXXXXXXXXXXXXXXXXXXXXXXXXXXXXXXXXXX",
"XXXXXXXXXXXXXXXXXXXXXXXXXXXXXXXXXXXXXXXX",
"XXXXXXXXXXXXXXXXXXXXXXXXXXXXXXXXXXXXXXXX",
"XXXXXXXXXXXXXXXXXXXXXXXXXXXXXXXXXXXXXXXX",
"XXXXXXXXXXXXXXXXXXXXXXXXXXXXXXXXXXXXXXXX",
"XXXXXXXXXXXXXXXXXXXXXXXXXXXXXXXXXXXXXXXX",
"XXXXXXXXXXXXXXXXXXXXXXXXXXXXXXXXXXXXXXXX",
"XXXXX..XXXXXXXXXXXX...XXXXXXXXXXXXXXXXXX",
"XXXX.  .XXX.....XX.   .XXXXXXXXXXXXXXXXX",
"XXX.   .X..     .X.   .XXXXXXXXXXXXXXXXX",
"XXX.   ..        ...   .XXXXXXXXXXXXXXXX",
"XXX.   .           .   .XXXXXXXXXXXXXXXX",
"XX.   .            ..   .XXXXXXXXXXXXXXX",
"XX.   .             .    .XXXXXXXXXXXXXX",
"XX.  .              ..   .XXXXXXXXXXXXXX",
"X.   .              .X.   .XXXXXXXXXXXXX",
"X.   .              .X.    .XXXXXXXXXXXX",
"X.   .              .XX.   .XXXXXXXXXXXX",
".   ..              .XXX.   .XXXXXXXXXXX",
".   .X.             .XX..   .XXXXXXXXXXX",
".    .X.           .XX.    .XXXXXXXXXXXX",
".     ...         .X..    .XXXXXXXXXXXXX",
"X..     ..      ....     .XXXXXXXXXXXXXX",
"XXX..    ...   .X.      .XXXXXXXXXXXXXXX",
"XXXXX.     .   ..     ..XXXXXXXXXXXXXXXX",
"XXXXXX..            ..XXXXXXXXXXXXXXXXXX",
"XXXXXXXX.          .XXXXXXXXXXXXXXXXXXXX",
"XXXXXXXXX..      ..XXXXXXXXXXXXXXXXXXXXX",
"XXXXXXXXXXX.    .XXXXXXXXXXXXXXXXXXXXXXX",
"XXXXXXXXXXX.   .XXXXXXXXXXXXXXXXXXXXXXXX",
"XXXXXXXXXXX.   .XXXXXXXXXXXXXXXXXXXXXXXX",
"XXXXXXXXXXX.   .XXXXXXXXXXXXXXXXXXXXXXXX",
"XXXXXXXXXXX.   .XXXXXXXXXXXXXXXXXXXXXXXX",
"XXXXXXXXXXX.   .XXXXXXX..XXXXXXXXXXXXXXX",
"XXXXXXXXXXX.   .XXXXXX.  .XXXXXXXXXXXXXX",
"XXXXXXXXXXX.   .XXXX..    .XXXXXXXXXXXXX",
"XXXXXXXXXXX.   .X...      .XXXXXXXXXXXXX",
"XXXXXXXXXXX.   ..         .XXXXXXXXXXXXX",
"XXXXXXXXXXX.          .  .XXXXXXXXXXXXXX",
"XXXXXXXXXXX.        ..   .XXXXXXXXXXXXXX",
"XXXXXXXXXXX.     ...X.   .XXXXXXXXXXXXXX",
"XXXXXXXXXXX.   ..XXXX.   .XXXXXXXXXXXXXX",
"XXXXXXXXXXX.   .XXXX.   .XXXXXXXXXXXXXXX",
"XXXXXXXXXXX.   .XXXX.   .XXXXXXXXXXXXXXX",
"XXXXXXXXXXX.   .XXXX.   .XXXXXXXXXXXXXXX",
"XXXXXXXXXXXX.   .XXX.  .XXXXXXXXXXXXXXXX",
"XXX..........   .XX.   ...XXXXXXXXXXXXXX",
"XX.             .XX.      .XXXXXXXXXXXXX",
"X.              .XX.       .XXXXXXXXXXXX",
"X.              .XXX.      .XXXXXXXXXXXX",
".   ............XXXXXXXXXXXXXXXXXXXXXXXX",
".   .XXXXXXXXXXXXXXXXXXXXXXXXXXXXXXXXXXX",
".  .XXXXXXXXXXXXXXXXXXXXXXXXXXXXXXXXXXXX",
"XXXXXXXXXXXXXXXXXXXXXXXXXXXXXXXXXXXXXXXX"
};
