/* XPM */
static char *_597c1a56f7d43e8ede8bb2029079946[] = {
/* columns rows colors chars-per-pixel */
"40 70 33 1 ",
"  c black",
". c #000D0D",
"X c #001919",
"o c gray8",
"O c #1B1B1B",
"+ c #252525",
"@ c #2F2F2F",
"# c #373737",
"$ c #3C3C3C",
"% c #434343",
"& c gray31",
"* c #555555",
"= c gray36",
"- c #656565",
"; c gray44",
": c #777777",
"> c gray50",
", c #8E8E8E",
"< c gray58",
"1 c #A0A0A0",
"2 c gray66",
"3 c #AEAEAE",
"4 c #B4B4B4",
"5 c #C1C1C1",
"6 c #C8C8C8",
"7 c #D0D0D0",
"8 c gray84",
"9 c #DFDFDF",
"0 c gray91",
"q c #EFEFEF",
"w c gray96",
"e c gray98",
"r c None",
/* pixels */
"rrrrrrrrrrrrrrrrrrrrrrrrrrrrrrrrrrrrrrrr",
"rrrrrrrrrrrrrrrrrrrrrrrrrrrrrrrrrrrrrrrr",
"rrrrrrrrrrrrrrrrrrrrrrrrrrrrrrrrrrrrrrrr",
"rrrrrrrrrrrrrrrrrrrrrrrrrrrrrrrrrrrrrrrr",
"rrrrrrrrrrrrrrrrrrrrrrrrrrrrrrrrrrrrrrrr",
"rrrrrrrrrrrrrrrrrrrrrrrrrrrrrrrrrrrrrrrr",
"rrrrrrrrrrrrrrrrrrrrrrrrrrrrrrrrrrrrrrrr",
"rrrrrrrrrrrrrrrrrrrrrrrrrrrrrrrrrrrrrrrr",
"rrrrrrrrrrrrrrrrrrrrrrrrrrrrrrrrrrrrrrrr",
"rrrrrrrrrrrrrrrrrrrrrrrrrrrrrrrrrrrrrrrr",
"rrrrrrrrrrrrrrrrrrrrrrrrrrrrrrrrrrrrrrrr",
"rrrrrrrrrrrrrrrrrrrrrrrrrrrrrrrrrrrrrrrr",
"rrrrrrrrrrrrrrrrrrrrrrrrrrrrrrrrrrrrrrrr",
"rrrrrrrrrrrrrrrrrrrrrrrrrrrrrrrrrrrrrrrr",
"rrrrrrrrrrrrrrrrrrrrrrrrrrrrrrrrrrrrrrrr",
"rrrrrrrrrrrrrrrrrrrrrrrrrrrrrrrrrrrrrrrr",
"rrrrrrrrrrrrrrrrrrrrrrrrrrrrrrrrrrrrrrrr",
"rrrrrrrrrrrrrrrrrrrrrrrrrrrrrrrrrrrrrrrr",
"rrrrrrrrrrrrrrrrrrrrrrrrrrrrrrrrrrrrrrrr",
"rrrrrrrrrrrrrrrrrrrrrrrrrrrrrrrrrrrrrrrr",
"rrrrrrrrrrrrrrrrrrrrrrrrrrrrrrrrrrrrrrrr",
"rrrrrrrrrrrrrrrrrrrrrrrrrrrrrrrrrrrrrrrr",
"rrrrrrrrrrrrrrrrrrrrrrrrrrrrrrrrrrrrrrrr",
"rrrrrrrrrrrrrrrrrrrrrrrrrrrrrrrrrrrrrrrr",
"rrrrq >rrrrrrrrrrrr> wrrrrrrrrrrrrrrrrrr",
"rrrr8 #rrrr99990rrr& >rrrrrrrrrrrrrrrrrr",
"rrrr> :rr7+     >rrr  8rrrrrrrrrrrrrrrrr",
"rrrr# 5r;  ....   0r6  rrrrrrrrrrrrrrrrr",
"rrr9  r5          %rr; ;rrrrrrrrrrrrrrrr",
"rrr< >r            2rq  0rrrrrrrrrrrrrrr",
"rrr  8, X           rr, @rrrrrrrrrrrrrrr",
"rr8 or,             rrro 1rrrrrrrrrrrrrr",
"rr, ;r,             rrr0  wrrrrrrrrrrrrr",
"rr# 8r<             rrrr2 #rrrrrrrrrrrrr",
"r9 Orrq          . ,rrrrrO 9rrrrrrrrrrrr",
"r* >rrr, .        +wrrrrro 9rrrrrrrrrrrr",
"w   9rrrO      .  4rrrr5O $rrrrrrrrrrrrr",
"r8$  <rrr,      O9rrrr;  -rrrrrrrrrrrrrr",
"rrr5   5rr8<  -4rrrr1o  5rrrrrrrrrrrrrrr",
"rrrrr&  %rrr  3rrr9*  :qrrrrrrrrrrrrrrrr",
"rrrrrr7   ,r  2rr1o %5rrrrrrrrrrrrrrrrrr",
"rrrrrrrr;  +  3e$  ,rrrrrrrrrrrrrrrrrrrr",
"rrrrrrrrr9*   *  #9rrrrrrrrrrrrrrrrrrrrr",
"rrrrrrrrrrr3    <rrrrrrrrrrrrrrrrrrrrrrr",
"rrrrrrrrrrrr  -9rrrrrrrrrrrrrrrrrrrrrrrr",
"rrrrrrrrrrrr  3rrrrrrrrrrrrrrrrrrrrrrrrr",
"rrrrrrrrrrrr  2rrrrrrrrrrrrrrrrrrrrrrrrr",
"rrrrrrrrrrrr  2rrrrrrrrrrrrrrrrrrrrrrrrr",
"rrrrrrrrrrrr  2rrrrrrrrrrrrrrrrrrrrrrrrr",
"rrrrrrrrrrrr  2rrrrrrrrrrrrrrrrrrrrrrrrr",
"rrrrrrrrrrrr  2rrrrrrrrr<rrrrrrrrrrrrrrr",
"rrrrrrrrrrrr  2rrrrrrr5@ <rrrrrrrrrrrrrr",
"rrrrrrrrrrrr  2rrrrr>    1rrrrrrrrrrrrrr",
"rrrrrrrrrrrr  3rr7$   @  7rrrrrrrrrrrrrr",
"rrrrrrrrrrr5  <1&   ;0r  rrrrrrrrrrrrrrr",
"rrrrrrrrrrr6      3qrr4 -rrrrrrrrrrrrrrr",
"rrrrrrrrrrrr   *3rrrrr@ 4rrrrrrrrrrrrrrr",
"rrrrrrrrrrrr- ,rrrrrrr+ 9rrrrrrrrrrrrrrr",
"rrrrrrrrrrrr> 4rrrrrr8 $rrrrrrrrrrrrrrrr",
"rrrrrrrrrrrr5  rrrrrr1 *rrrrrrrrrrrrrrrr",
"rrrrrrrrrrrr9 orrrrrr& 5rrrrrrrrrrrrrrrr",
"rrrrrrrrrrrrr& 6rrrrr  rrrrrrrrrrrrrrrrr",
"rrrrrrrrrrrrr& 5rrrr5 Orrrrrrrrrrrrrrrrr",
"rrr*577777778> *rrrro %377rrrrrrrrrrrrrr",
"rr5            *rrrr%     5rrrrrrrrrrrrr",
"rr@ #%%%%%%%%%$3rrrrr55$%$qrrrrrrrrrrrrr",
"r; =rrrrrrrrrrrrrrrrrrrrrrrrrrrrrrrrrrrr",
"1  9rrrrrrrrrrrrrrrrrrrrrrrrrrrrrrrrrrrr",
"8@8rrrrrrrrrrrrrrrrrrrrrrrrrrrrrrrrrrrrr",
"rrrrrrrrrrrrrrrrrrrrrrrrrrrrrrrrrrrrrrrr"
};
