/* XPM */
static char *_aba3cc28c8e4ff096854cd93095676e[] = {
/* columns rows colors chars-per-pixel */
"64 64 13 1 ",
"  c #282810",
". c #383828",
"X c #686028",
"o c #405050",
"O c #687058",
"+ c #886018",
"@ c #C0A030",
"# c #888870",
"$ c #A8A870",
"% c #C0B8A0",
"& c #E8F0F8",
"* c #F8F8F8",
"= c None",
/* pixels */
"================================================================",
"================================================================",
"================================================================",
"================================================================",
"================================================================",
"================================================================",
"================================================================",
"================================================================",
"================================================================",
"================================================================",
"================================================================",
"================================================================",
"================================================================",
"================================================================",
"================================================================",
"================================================================",
"================================================================",
"================================================================",
"===================================.============================",
"==================================.%.===========================",
"==================================.%.===========================",
"================================..%#O..=========================",
"===============================.O#...o..========================",
"==============================.oO%*#O. o.=======================",
"==============================.##oo.  ooo.======================",
"===========..================.O###OooooOo.======================",
"===========.*.===============.#%%OOOOoOOO.======================",
"============.*.=============..#***%OOOOOOO.=====================",
"=============.*..===========.%*....%OOoOOO.=====================",
"==============.*O.==========...=.  .%OooOoO.====================",
"==============.O*O.=============   .%Oo.oO%.====================",
"===============.O*O.==========..$XX.%OOoOO*.====================",
"================.O*O.========.$X   ..%OO%* .====================",
"=================.O&O.======.%X    $.#%%. ...===================",
"==================.O&o.=====.X.$$*$XX.   ..XX.==================",
"===================.o&o.===..X..%XXX$$$XXXXX$.==================",
"====================.o&o.==.O.. .%$X...$$%XX$%.=================",
"=====================.o&o..O#O.%#...XX$$$$%%**.=================",
"======================.o&..%#o.##.oo..X$XX$$%$$.================",
"=======================.O.O*#oo   O*#o..$$XX$$X.================",
"========================..#*##O%.. #o....$XXXX...===============",
"=========================.%###O#%..  .#oo.$XXX..X.==============",
"=========================.%#OOOoOO.%O..oOo.$XXX.X..=============",
"=========================.O#OOOOO..O#o o#o..$XXX.$X..===========",
"==========================.O#OoOOoo .o #o...$XXX.X$%%.==========",
"==========================.oOOooOo. #..oo.X..$XXXX$$..==========",
"===========================.ooo.o.  .O o  .X.X%XX$X.============",
"==========================...o  . o#%O  ++.XX.%XXXX.============",
"==========================.+*..o%O..#o.@  XX..X%XX..============",
"===========================..@.# .O.o   XX$...X%XXX.============",
"=============================..  .O.. .X$..==.X%XXXX.===========",
"============================.O.O##o.o.  .====.%XXXXX.===========",
"============================.%o.#..OOo.======.%XX$$.============",
"============================.%*o..O#o.======.X%X$%%.============",
"=============================.#o  %  .======.%X$%$.=============",
"==============================.. . #O..=====.%X$..==============",
"================================ .%#.O.====.%X..================",
"================================ .oo  .====.%.==================",
"================================= ..Oo.====.$.==================",
"=================================  .#O.====..===================",
"==================================  .#o.========================",
"================================= ....O.========================",
"=================================.%#.*. .=======================",
"=============================== .*#O O.#%.======================"
};
