/* XPM */
static char *db92949f54764a7add3595ec32dc73bf[] = {
/* columns rows colors chars-per-pixel */
"64 64 11 1 ",
"  c #282810",
". c #383828",
"X c #686028",
"o c #405050",
"O c #687058",
"+ c #888870",
"@ c #A8A870",
"# c #C0B8A0",
"$ c #E8F0F8",
"% c #F8F8F8",
"& c None",
/* pixels */
"&&&&&&&&&&&&&&&&&&&&&&&&&&&&&&&&&&&&&&&&&&&&&&&&&&&&&&&&&&&&&&&&",
"&&&&&&&&&&&&&&&&&&&&&&&&&&&&&&&&&&&&&&&&&&&&&&&&&&&&&&&&&&&&&&&&",
"&&&&&&&&&&&&&&&&&&&&&&&&&&&&&&&&&&&&&&&&&&&&&&&&&&&&&&&&&&&&&&&&",
"&&&&&&&&&&&&&&&&&&&&&&&&&&&&&&&&&&&&&&&&&&&&&&&&&&&&&&&&&&&&&&&&",
"&&&&&&&&&&&&&&&&&&&&&&&&&&&&&&&&&&&&&&&&&&&&&&&&&&&&&&&&&&&&&&&&",
"&&&&&&&&&&&&&&&&&&&&&&&&&&&&&&&&&&&&&&&&&&&&&&&&&&&&&&&&&&&&&&&&",
"&&&&&&&&&&&&&&&&&&&&&&&&&&&&&&&&&&&&&&&&&&&&&&&&&&&&&&&&&&&&&&&&",
"&&&&&&&&&&&&&&&&&&&&&&&&&&&&&&&&&&&&&&&&&&&&&&&&&&&&&&&&&&&&&&&&",
"&&&&&&&&&&&&&&&&&&&&&&&&&&&&&&&&&&&&&&&&&&&&&&&&&&&&&&&&&&&&&&&&",
"&&&&&&&&&&&&&&&&&&&&&&&&&&&&&&&&&&&&&&&&&&&&&&&&&&&&&&&&&&&&&&&&",
"&&&&&&&&&&&&&&&&&&&&&&&&&&&&&&&&&&&&&&&&&&&&&&&&&&&&&&&&&&&&&&&&",
"&&&&&&&&&&&&&&&&&&&&&&&&&&&&&&&&&&&&&&&&&&&&&&&&&&&&&&&&&&&&&&&&",
"&&&&&&&&&&&&&&&&&&&&&&&&&&&&&&&&&&&&&&&&&&&&&&&&&&&&&&&&&&&&&&&&",
"&&&&&&&&&&&&&&&&&&&&&&&&&&&&&&&&&&&&&&&&&&&&&&&&&&&&&&&&&&&&&&&&",
"&&&&&&&&&&&&&&&&&&&&&&&&&&&&&&&&&&&&&&&&&&&&&&&&&&&&&&&&&&&&&&&&",
"&&&&&&&&&&&&&&&&&&&&&&&&&&&&&&&&&&&&&&&&&&&&&&&&&&&&&&&&&&&&&&&&",
"&&&&&&&&&&&&&&&&&&&&&&&&&&&&&&&&&&&&&&&&&&&&&&&&&&&&&&&&&&&&&&&&",
"&&&&&&&&&&&&&&&&&&&&&&&&&&&&&&&&.&&&&&&&&&&&&&&&&&&&&&&&&&&&&&&&",
"&&&&&&&&&&&&&&&&&&&&&&&&&&&&&&&.+.&&&&&&&&&&&&&&&&&&&&&&&&&&&&&&",
"&&&&&&&&&&&&&&&&&&&&&&&&&&&&&&&.+.&&&&&&&&&&&&&&&&&&&&&&&&&&&&&&",
"&&&&&&&&&&&&&&&&&&&&&&&&&&&&&&..O..&&&&&&&&&&&&&&&&&&&&&&&&&&&&&",
"&&&&&&&&&&&&&&&&..&&&&&&&&&&&..%+O..&&&&&&&&&&&&&&&&&&&&&&&&&&&&",
"&&&&&&&&&&&&&&&&.$.&&&&&&&&&.O+.+.Oo.&&&&&&&&&&&&&&&&&&&&&&&&&&&",
"&&&&&&&&&&&&&&&&&.$.&&&&&&&.OO#%.+Oo..&&&&&&&&&&&&&&&&&&&&&&&&&&",
"&&&&&&&&&&&&&&&&&&.$..&&&&&.+O.##O  o.&&&&&&&&&&&&&&&&&&&&&&&&&&",
"&&&&&&&&&&&&&&&&&&&.$O.&&&.O++O.. ..oo.&&&&&&&&&&&&&&&&&&&&&&&&&",
"&&&&&&&&&&&&&&&&&&&.O%O.&&.++OOOoo.ooo &&&&&&&&&&&&&&&&&&&&&&&&&",
"&&&&&&&&&&&&&&&&&&&&.O%O.&.+#+OOOooOoo &&&&&&&&&&&&&&&&&&&&&&&&&",
"&&&&&&&&&&&&&&&&&&&&&.O$O.O#%+OOOOoOoo..&&&&&&&&&&&&&&&&&&&&&&&&",
"&&&&&&&&&&&&&&&&&&&&&&.O$.+#%#+OO+OOooo.&&&&&&&&&&&&&&&&&&&&&&&&",
"&&&&&&&&&&&&&&&&&&&&&&...#o%#O+++OOooooO...&&&&&&&&&&&&&&&&&&&&&",
"&&&&&&&&&&&&&&&&&&&&&.XX.%#+#ooOOoo.ooOO.XX.&&&&&&&&&&&&&&&&&&&&",
"&&&&&&&&&&&&&&&&&&&&.#@X.##O+Oo. ..ooO++.X@#.&&&&&&&&&&&&&&&&&&&",
"&&&&&&&&&&&&&&&&&&&&.X%@X.%%OOOo..oOO#+.X@%X.&&&&&&&&&&&&&&&&&&&",
"&&&&&&&&&&&&&&&&&&&.XX@#XX  %%OOOOO#+  .X#@XX.&&&&&&&&&&&&&&&&&&",
"&&&&&&&&&&&&&&&&&&&.XX@@@XX.  #%%#+  ..X@@@XX.&&&&&&&&&&&&&&&&&&",
"&&&&&&&&&&&&&&&&&&&.X@@%@@XX..     ..XX@@%@@X.&&&&&&&&&&&&&&&&&&",
"&&&&&&&&&&&&&&&&&&&.@@XX#@@XXXX.....XX@@#XX@@.&&&&&&&&&&&&&&&&&&",
"&&&&&&&&&&&&&&&&&&&.@@XXXX@@@XXX..XX@@@XXXX@@.&&&&&&&&&&&&&&&&&&",
"&&&&&&&&&&&&&&&&&&.X@@@XXXX@#@@XXX@@#@XXXX@@@X.&&&&&&&&&&&&&&&&&",
"&&&&&&&&&&&&&&&&&&.XX@@XXXXX@##@@@##@XXXXX@@XX.&&&&&&&&&&&&&&&&&",
"&&&&&&&&&&&&&&&&&&.X.X@XXX.XX@%###%@XX.XXX@X.X.&&&&&&&&&&&&&&&&&",
"&&&&&&&&&&&&&&&&&.XX.X@XXXX.X@#%%%#@X.XXXX@X.XX.&&&&&&&&&&&&&&&&",
"&&&&&&&&&&&&&&&&&.X..X@XXXX..X@#%#@X..XXXX@X..X.&&&&&&&&&&&&&&&&",
"&&&&&&&&&&&&&&&&&.X..@@XXXX..X@#%#@X..XXXX@@..X.&&&&&&&&&&&&&&&&",
"&&&&&&&&&&&&&&&&.X. @@XXXXXX.X@###@X.XXXXXX@@ .X.&&&&&&&&&&&&&&&",
"&&&&&&&&&&&&&&&&.. .@@XXXXXX..X@#@X..XXXXXX@@. ..&&&&&&&&&&&&&&&",
"&&&&&&&&&&&&&&&&...@@XXXXXXX .X@#@X. XXXXXXX@@...&&&&&&&&&&&&&&&",
"&&&&&&&&&&&&&&&&.X@@@XXXXXX. .X@#@X. .XXXXXX@@@X.&&&&&&&&&&&&&&&",
"&&&&&&&&&&&&&&&.X@@@XXXXXX.  .X@#@X.  .XXXXXX@@@X.&&&&&&&&&&&&&&",
"&&&&&&&&&&&&&...@@XXXXX...  .X@###@X.  ...XXXXX@@...&&&&&&&&&&&&",
"&&&&&&&&&&&&.X@@XXXXXX......X@#XXX#@X......XXXXXX@@X.&&&&&&&&&&&",
"&&&&&&&&&&&&.@#XXXXXX...XX@##.......##@XX...XXXXXX#@.&&&&&&&&&&&",
"&&&&&&&&&&&&&..###X...@##@#..O.&&&.O..#@##@...X###..&&&&&&&&&&&&",
"&&&&&&&&&&&&&&&...####....o..O.&&&.O..o....####...&&&&&&&&&&&&&&",
"&&&&&&&&&&&&&&&&&&....&&&.# o.&&&&&.o #.&&&....&&&&&&&&&&&&&&&&&",
"&&&&&&&&&&&&&&&&&&&&&&&&&.+ +.&&&&&.+ +.&&&&&&&&&&&&&&&&&&&&&&&&",
"&&&&&&&&&&&&&&&&&&&&&&&&&& o+o.&&&.o+o &&&&&&&&&&&&&&&&&&&&&&&&&",
"&&&&&&&&&&&&&&&&&&&&&&&&&&.oO# &&& #Oo.&&&&&&&&&&&&&&&&&&&&&&&&&",
"&&&&&&&&&&&&&&&&&&&&&&&&&.. O+.&&&.+O ..&&&&&&&&&&&&&&&&&&&&&&&&",
"&&&&&&&&&&&&&&&&&&&&&&&&&Oo oO.&&&.Oo oO&&&&&&&&&&&&&&&&&&&&&&&&",
"&&&&&&&&&&&&&&&&&&&&&&&&&O.#..&&&&&..#.O&&&&&&&&&&&&&&&&&&&&&&&&",
"&&&&&&&&&&&&&&&&&&&&&&&&&  .o#.&&&.#o.  &&&&&&&&&&&&&&&&&&&&&&&&",
"&&&&&&&&&&&&&&&&&&&&&&&&&&  .o.&&&.o.  &&&&&&&&&&&&&&&&&&&&&&&&&"
};
