/* XPM */
static char *f27a74a4684840be9ea1efa4cae8ceca[] = {
/* columns rows colors chars-per-pixel */
"64 64 13 1 ",
"  c #282810",
". c #383828",
"X c #686028",
"o c #405050",
"O c #687058",
"+ c #886018",
"@ c #C0A030",
"# c #888870",
"$ c #A8A870",
"% c #C0B8A0",
"& c #E8F0F8",
"* c #F8F8F8",
"= c None",
/* pixels */
"================================================================",
"================================================================",
"================================================================",
"================================================================",
"================================================================",
"================================================================",
"================================================================",
"================================================================",
"================================================================",
"================================================================",
"================================================================",
"================================================================",
"================================================================",
"================================================================",
"================================================================",
"================================================================",
"================================================================",
"================================================================",
"===============================.================================",
"==============================.#.===============================",
"==============================.#.===============================",
"=============================..O..==============================",
"============================.o*#O..==========..=================",
"===========================.O#o..Oo.========.&.=================",
"==========================..O%*.#Oo..======.&.==================",
"==========================.OOo%%O .o.====..&.===================",
"=========================.O##O.   oOo.==.O&.====================",
"=========================.O%%#OoooOOo.=.O&O.====================",
"=========================.#%**%O%%#OO..O*O.=====================",
"========================.O#* .%%#. %O.O*O.======================",
"=====================...Oo%.       #.O*O..======================",
"====================.$X.* *..X$$$X.oo*O.X$.=====================",
"===================.$$$..*.X$o...o.o*o.X$$$.====================",
"==================...$X*.%.Xo    .o*o.X*X$...===================",
"==================.$*%.X*..$.   .o*o.X*X.%*$.===================",
"=================.$$XX$.X%$$o  .o*o.X%X.$XX$$.==================",
"=================.$X ..O..X$$o.o&o.XX..O.. X$.==================",
"=================.$ ooO.. ..X.o&o.X.. ..Ooo $.==================",
"================.%X ...O *#..o&o....#% O... X%.=================",
"================.%X.o%O..#O.o&o...o.O#..O%o.X%.=================",
"================.$X.O%..o..o&o..ooOo..o..%O.X$.=================",
"===============.$X...O. o.$&o.oooOoOooo..O...X$.================",
"==============.X$..O..  .$&$.##OOOooOoo ...O..$X.===============",
"=============.%$X.Oo. ..$$$.#%##OOo.oo. X .oO.X$%.==============",
"============.%$X. #%o @..$.#%*##OOoooo.XX o%#..X$%.=============",
"===========.$%XX. %.. +@..o##%##OOooo.  X ..% .XX%$.============",
"===========.%.X.. .oOO.+@..oO###Oooo  + .O#O. ..X.%.============",
"==========.%XXX...oO %O.@.+.oO#OOoo @++.O% O....XXX%.===========",
"==========.%XXX.. .#O  .+.+@..oOo. @+  .o O#O ..XXX%.===========",
"=========.%$.XXX. # % %o.O..**...@@  oO  o% # .XXX.$%.==========",
"=========.%X..XX.X % #o.%#Oo..**@..oO#%O.o % XXXX..X%.==========",
"========.%$X   .#.X  ..#*#oo.      oo#*%..  .X$X   X$%.=========",
"========.%XX ==.*#.XXX.%OO  O ... O  O#%.XX..$. == XX%.=========",
"========.%X.===...$$X..OO .%O X.X O%. O#..X$$.=====.X%.=========",
"========..$.======...= oo .#  $X$  #. oo =...======.$..=========",
"=========.%.===========  .O....$..  O   ===========.%.==========",
"=========..==============.%oO.=.=.Oo%.==============..==========",
"=========================.*#..===..#*.==========================",
"==========================.. ===== ..===========================",
"==========================.% ===== %.===========================",
"=========================..#O.===.O#..==========================",
"=========================.# o .=. o #.==========================",
"========================.#*O #O=O# O*#.=========================",
"========================.%%% o.=.o %%%.========================="
};
