/* XPM */
static char *_5beb9399e634b29d66d624368b44896[] = {
/* columns rows colors chars-per-pixel */
"64 64 13 1 ",
"  c #282810",
". c #383828",
"X c #686028",
"o c #405050",
"O c #687058",
"+ c #886018",
"@ c #C0A030",
"# c #888870",
"$ c #A8A870",
"% c #C0B8A0",
"& c #E8F0F8",
"* c #F8F8F8",
"= c None",
/* pixels */
"================================================================",
"================================================================",
"================================================================",
"================================================================",
"================================================================",
"================================================================",
"================================================================",
"================================================================",
"================================================================",
"================================================================",
"================================================================",
"================================================================",
"================================================================",
"================================================================",
"================================================================",
"================================================================",
"================================================================",
"================================================================",
"============================.===================================",
"===========================.%.==================================",
"===========================.%.==================================",
"=========================..O#%..================================",
"========================..o...#O.===============================",
"=======================.o .O#*%Oo.==============================",
"======================.ooo  .oo##.==============================",
"======================.oOooooO###O.================..===========",
"======================.OOOoOOOO%%#.===============.*.===========",
"=====================.OOOOOOO%***#..=============.*.============",
"=====================.OOOoOO%....*%.===========..*.=============",
"====================.OoOooO%.  .=...==========.O*.==============",
"====================.%Oo.oO%.   =============.O*O.==============",
"====================.*OOoOO%.XX$..==========.O*O.===============",
"====================. *%OO%..   X$.========.O*O.================",
"===================... .%%#.$    X%.======.O&O.=================",
"==================.XX..   .XX$*$$.X.=====.o&O.==================",
"==================.$XXXXX$$$XXX%..X..===.o&o.===================",
"=================.%$XX%$$...X$%. ..O.==.o&o.====================",
"=================.**%%$$$$XX...#%.O#O..o&o.=====================",
"================.$$%$$XX$X..oo.##.o#%..&o.======================",
"================.X$$XX$$..o#*O   oo#*O.O.=======================",
"===============...XXXX$....o# ..%O##*#..========================",
"==============.X..XXX$.oo#.  ..%#O###%.=========================",
"=============..X.XXX$.oOo..O%.OOoOOO#%.=========================",
"===========..X$.XXX$..o#o o#O..OOOOO#O.=========================",
"==========.%%$X.XXX$...o# o. ooOOoO#O.==========================",
"==========..$$XXXX$..X.oo..# .oOooOOo.==========================",
"============.X$XX%X.X.  o O.  .o.ooo.===========================",
"============.XXXX%.XX.++  O%#o .  o...==========================",
"============..XX%X..XX  @.o#..O%o..*+.==========================",
"============.XXX%X...$XX   o.O. #.@..===========================",
"===========.XXXX%X.==..$X. ..O.  ..=============================",
"===========.XXXXX%.====.  .o.o##O.O.============================",
"============.$$XX%.======.oOO..#.o%.============================",
"============.%%$X%X.======.o#O..o*%.============================",
"=============.$%$X%.======.  %  o#.=============================",
"==============..$X%.=====..O# . ..==============================",
"================..X%.====.O.#%. ================================",
"==================.%.====.  oo. ================================",
"==================.$.====.oO.. =================================",
"===================..====.O#.  =================================",
"========================.o#.  ==================================",
"========================.O.... =================================",
"=======================. .*.#%.=================================",
"======================.%#.O O#*. ==============================="
};
