/* XPM */
static char *b6dc31c774f14a598585c3e5b1d06d2a[] = {
/* columns rows colors chars-per-pixel */
"64 64 31 1 ",
"  c #0A0F01",
". c #0A1001",
"X c #0B1001",
"o c #0B1002",
"O c #0B1102",
"+ c #0B1202",
"@ c #0B1302",
"# c #0C1102",
"$ c #0C1202",
"% c #0D1202",
"& c #192107",
"* c #192207",
"= c #192307",
"- c #2A350F",
"; c #2B350F",
": c #29360F",
"> c #29370F",
", c #2A360E",
"< c #2B360F",
"1 c #2A370F",
"2 c #2B370F",
"3 c #2A380E",
"4 c #2A380F",
"5 c #2B380F",
"6 c #2B390F",
"7 c #730000",
"8 c #34480D",
"9 c #950000",
"0 c #FF1F1F",
"q c #FF4545",
"w c None",
/* pixels */
"wwwwwwwwwwwwwwwwwwwwwwwwwwwwwww88wwwwwwwwwwwwwwwwwwwwwwwwwwwwwww",
"wwwwwwwwwwwwwwwwwwwwwwwwwwwwwww8=wwwwwwwwwwwwwwwwwwwwwwwwwwwwwww",
"wwwwwwwwwwwwwwwwwwwwwwwwwwwwwww8=wwwwwwwwwwwwwwwwwwwwwwwwwwwwwww",
"wwwwwwwwwwwwwwwwwwwwwwwwwwwwwww*8wwwwwwwwwwwwwwwwwwwwwwwwwwwwwww",
"wwwwwwwwwwwwwwwwwwwwwwwwww88w@o*8o@w88wwwwwwwwwwwwwwwwwwwwwwwwww",
"wwwwwwwwwwwwwwwwwwwwwwwww*668o**8*o846=wwwwwwwwwwwwwwwwwwwwwwwww",
"wwwwwwwwwwwwwwwwwwwwwwwwww**88888886**wwwwwwwwwwwwwwwwwwwwwwwwww",
"wwwwwwwwwwwwwwwwwwwwwwwww@@o8*q00q*6o@@wwwwwwwwwwwwwwwwwwwwwwwww",
"wwwwwwwwwwwwwwwwwwwwoo@888884q0000q888888@2owwwwwwwwwwwwwwwwwwww",
"wwwwwwwwwwwwwwwww6@o6o*666**=900009***666*o6oo6wwwwwwwwwwwwwwwww",
"wwwwwwwwwwwwwww6666o*@o*==oo6790097*oo***o**o666wwwwwwwwwwwwwwww",
"wwwwwwwwwwwwww6o666@**ooo@o@6=7997=4oo@o@@=*o66666wwwwwwwwwwwwww",
"wwwwwwwwwwwww66=o6*6@*ooooo6=66774666@oooo*@6*2o*66wwwwwwwwwwwww",
"wwwwwwwwwwww6o6=2o*6oooooo*6**====*6*2oooo*o6*@666@6wwwwwwwwwwww",
"wwwwwwwwwww66=o66@*6*oooo@*6oo*66*@*66@oooo*6*o6o@*66wwwwwwwwwww",
"wwwwwwwwww66===o*2@*ooo*o66*ooo6=@oo*66o*ooo*@6*6=**66wwwwwwwwww",
"wwwwwwwwwww6666==6oooo=oo<*=oo@**ooo*22o@*oooo6*o6662wwwwwwwwwww",
"wwwwwwwwwwwow====w oo==oo*oo=o4*66oo@@*oo**oo@w****w@wwwwwwwwwww",
"wwwwwwwwwwwowwowww,oo===@o@==o4@@6@**o@o***@o6wwwowwowwwwwwwwwww",
"wwwwwwwwwwwowwoww6ooo==62<@===o4<o***o666**ooo6ww@ww@wwwwwwwwwww",
"wwwwwwwwwwwowwoww6oo=6,66===@ooooooo===666**@o6ww@ww@wwwwwwwwwww",
"wwwwwwwwwwwowwoww6===ooo**==444oo<64=*@*@o****6wwoww@wwwwwwwwwww",
"wwwwwwwwwwwowowww6=o= o  ***=@oo@@@****ooo@*o*6www@wowwwwwwwwwww",
"wwwwwwwwwwwowoww6o== w w @*@*44oo<6***@oowo@**@6wwowowwwwwwwwwww",
"wwwwwwwwwwwowwow6o==owow   ooooo*@@@ooow@wwo**o2woww@wwwwwwwwwww",
"wwwwwwwwwwwwowo=6o=oowowow oo==o**=*oowowww@@*@6w@wowwwwwwwwwwww",
"wwwwwwwwwwwwoww66ooowowwow o=o==o*@*oow@wwwwooo6www@wwwwwwwwwwww",
"wwwwwwwwwwwowww==oowwowwwwooo==o****o@ww@wwwwoo*6www@wwwwwwwwwww",
"wwwwwwwwwwwwoww==owwwwowwwoo*=oo****o ww@wwwww@*@ww@wwwwwwwwwwww",
"wwwwwwwwwwwoww6==owwwwwwwwo*o==o**@o* wwwwwwwwo*o2ww@wwwwwwwwwww",
"wwwwwwwwwwwwww6==owwwwwwwwooo==o==*o@ wwwwwwwwo*@6wwwwwwwwwwwwww",
"wwwwwwwwwwwwww6=owwwwww6666,oo==@=o@,6666w@wwwwoo6wwwwwwwwwwwwww",
"wwwwwwwwwwwww6*o@wwwww666666-@@*oo@6666666wwwww@**6wwwwwwwwwwwww",
"wwwwwwwwwwwww6*oowwwww66==**<2@oo@26**=*66wwwwwo**6wwwwwwwwwwwww",
"wwwwwwwwwwwww6*@owwwww6*==6**46**26**4===6wwwwwo==6wwwwwwwwwwwww",
"wwwwwwwwwwwww6*o@wwwww6*=6o@*666*66*@@4=*6wwwww@=*6wwwwwwwwwwwww",
"wwwwwwwwwwww6==oowwwww6@=6@o**6<*2*@o 4*@2wwwww@==*6wwwwwwwwwwww",
"wwwwwwwwwwww6=@**6www266@*2oo**@o***o<*@666www6=*@*6wwwwwwwwwwww",
"wwwwwwwwwwww6**o==6ww@*66o**ooooooo***@26*@ww6**@**6wwwwwwwwwwww",
"wwwwwwwwwwwww**o@*6ww@**66o@oooooooo@@62**oww6*@o**@wwwwwwwwwwww",
"wwwwwwwwwwwww**@w*=wwo**==66@oooooo<64*==*@ww==w***owwwwwwwwwwww",
"wwwwwwwwwwwww@*@ww*ww@@*===62ooooo@66====@@ww*ww=*wowwwwwwwwwwww",
"wwwwwwwwwwwwwo**@wwwwoo**=**62@oo@26*===*o2wwwwo==w@wwwwwwwwwwww",
"wwwwwwwwwwwww@w*owwwwooo**@*662oo26**@=*o@6wwww@@ww@wwwwwwwwwwww",
"wwwwwwwwwwwwwow=*****6@o***@*22o<66*o***oo6*==**oww@wwwwwwwwwwww",
"wwwwwwwwwwwww@w=*o@@w6ooo*==*@2@26o@***ooowwo@@=owwowwwwwwwwwwww",
"wwwwwwwwwwwww@www**ww66oo***@@<@62@*=**oo6www**w@ww@wwwwwwwwwwww",
"wwwwwwwwwwwwwwwwwwwwww66oo@*oo2@26o*=@@o66wwwwwwwwwwwwwwwwwwwwww",
"wwwwwwwwwwwwwwwwwwwwww*66@o**@<@26@**o@66*wwwwwwwwwwwwwwwwwwwwww",
"wwwwwwwwwwwwwwwwwwwwwww*66oo*@6o62o*@o66=wwwwwwwwwwwwwwwwwwwwwww",
"wwwwwwwwwwwwwwwwwwwwwww**66o**6o@2*@o26*=@wwwwwwwwwwwwwwwwwwwwww",
"wwwwwwwwwwwwwwwwwwwwwww@**66o*6oo6*666**wowwwwwwwwwwwwwwwwwwwwww",
"wwwwwwwwwwwwwwwwwwwwwwwow==66@6oo6o66**ow@wwwwwwwwwwwwwwwwwwwwww",
"wwwwwwwwwwwwwwwwwwwwwwwow=**666oo666***@wwwwwwwwwwwwwwwwwwwwwwww",
"wwwwwwwwwwwwwwwwwwwwwww@ww@*o*66o6***@w@wwwwwwwwwwwwwwwwwwwwwwww",
"wwwwwwwwwwwwwwwwwwwwwww@ww6o*@66o6o@o6owwwwwwwwwwwwwwwwwwwwwwwww",
"wwwwwwwwwwwwwwwwwwwwwwowwww2o*66o6*o6ww@wwwwwwwwwwwwwwwwwwwwwwww",
"wwwwwwwwwwwwwwwwwwwwwwwowwwo6@66o6@wowwowwwwwwwwwwwwwwwwwwwwwwww",
"wwwwwwwwwwwwwwwwwwwwwww@www@w666o66w@wwwwwwwwwwwwwwwwwwwwwwwwwww",
"wwwwwwwwwwwwwwwwwwwwwwwwwwwwww66o6wwwwwwwwwwwwwwwwwwwwwwwwwwwwww",
"wwwwwwwwwwwwwwwwwwwwwwwwwwwwwww6@wwwwwwwwwwwwwwwwwwwwwwwwwwwwwww",
"wwwwwwwwwwwwwwwwwwwwwwwwwwwwwww6owwwwwwwwwwwwwwwwwwwwwwwwwwwwwww",
"wwwwwwwwwwwwwwwwwwwwwwwwwwwwwwwwowwwwwwwwwwwwwwwwwwwwwwwwwwwwwww",
"wwwwwwwwwwwwwwwwwwwwwwwwwwwwwwwwwwwwwwwwwwwwwwwwwwwwwwwwwwwwwwww"
};
