/* XPM */
static char *c1b9959e6a4749dad7d5a8732a29be7e[] = {
/* columns rows colors chars-per-pixel */
"64 64 256 2 ",
"   c #111414",
".  c #231214",
"X  c #2C1311",
"o  c #311211",
"O  c #381412",
"+  c #3C2119",
"@  c #1E1622",
"#  c #172323",
"$  c #1A2624",
"%  c #1B2B2A",
"&  c #2E282C",
"*  c #28372E",
"=  c #35382F",
"-  c #213633",
";  c #263B37",
":  c #2B3D35",
">  c #233C3A",
",  c #2D3F38",
"<  c #431613",
"1  c #5D1A15",
"2  c #551713",
"3  c #6C1712",
"4  c #593815",
"5  c #6A2118",
"6  c #74251A",
"7  c #7E2C1F",
"8  c #501D32",
"9  c #693B38",
"0  c #2D4037",
"q  c #26413F",
"w  c #2F473E",
"e  c #324639",
"r  c #364A3D",
"t  c #324336",
"y  c #41423E",
"u  c #7D4938",
"i  c #3A244D",
"p  c #3B2350",
"a  c #503445",
"s  c #4E3650",
"d  c #472968",
"f  c #583568",
"g  c #5E377F",
"h  c #2A4948",
"j  c #2E4A46",
"k  c #354D43",
"l  c #304E48",
"z  c #3C5345",
"x  c #38574F",
"c  c #3E584B",
"v  c #365953",
"b  c #3A5B54",
"n  c #3F635A",
"m  c #405447",
"M  c #445C4B",
"N  c #4F4259",
"B  c #545953",
"V  c #7A5543",
"C  c #7A5542",
"Z  c #43665B",
"A  c #5A625A",
"S  c #62416D",
"D  c #654664",
"F  c #674278",
"G  c #486D62",
"H  c #506E62",
"J  c #5B6161",
"K  c #4D7264",
"L  c #4F7769",
"P  c #517565",
"I  c #537B6C",
"U  c #5C7F69",
"Y  c #63786F",
"T  c #717963",
"R  c #726D7E",
"E  c #8F1B14",
"W  c #81261C",
"Q  c #852B1E",
"!  c #992717",
"~  c #93271B",
"^  c #A52B1E",
"/  c #AC331F",
"(  c #952F20",
")  c #803429",
"_  c #913221",
"`  c #953820",
"'  c #933A2C",
"]  c #923732",
"[  c #A82F21",
"{  c #AC3021",
"}  c #A1332A",
"|  c #B83725",
" . c #B33C2E",
".. c #BF3E29",
"X. c #BB3A27",
"o. c #B23D31",
"O. c #C13E2A",
"+. c #8A760D",
"@. c #866112",
"#. c #BF5125",
"$. c #B74333",
"%. c #BC7223",
"&. c #C3422D",
"*. c #CB462F",
"=. c #C24929",
"-. c #C74838",
";. c #D3612B",
":. c #8D634C",
">. c #8A6D5E",
",. c #906A57",
"<. c #90635A",
"1. c #B1754F",
"2. c #934D73",
"3. c #A95078",
"4. c #8C7262",
"5. c #857D6A",
"6. c #907C65",
"7. c #946879",
"8. c #A87A69",
"9. c #C36A58",
"0. c #CB765E",
"q. c #5C816E",
"w. c #578070",
"e. c #5C8473",
"r. c #62846D",
"t. c #628973",
"y. c #648F7A",
"u. c #698D73",
"i. c #66907B",
"p. c #6B957E",
"a. c #6D987F",
"s. c #709679",
"d. c #AC8619",
"f. c #AF8E23",
"g. c #C58509",
"h. c #C6851B",
"j. c #CD9613",
"k. c #DE8C22",
"l. c #DEAF25",
"z. c #E0B023",
"x. c #898578",
"c. c #9A8C77",
"v. c #BF8468",
"b. c #AB8B78",
"n. c #CF806C",
"m. c #CB8B78",
"M. c #C39379",
"N. c #D19677",
"B. c #E68770",
"V. c #E2847A",
"C. c #E8A87F",
"Z. c #F3AE78",
"A. c #7E4BA8",
"S. c #81549D",
"D. c #A06894",
"F. c #8A52BC",
"G. c #9353B3",
"H. c #9F6AAF",
"J. c #B961A7",
"K. c #BF72A1",
"L. c #B170AB",
"P. c #D8779C",
"I. c #C263A1",
"U. c #9B5ECB",
"Y. c #9B60C2",
"T. c #A669CE",
"R. c #AA6FC9",
"E. c #A464CF",
"W. c #B76CC6",
"Q. c #AD74C1",
"!. c #AE6DDC",
"~. c #B06FDD",
"^. c #B778D7",
"/. c #B975E3",
"(. c #BC7AE3",
"). c #C276CC",
"_. c #6E9981",
"`. c #6C9480",
"'. c #729E84",
"]. c #799F85",
"[. c #74A186",
"{. c #7FA087",
"}. c #79A689",
"|. c #7DAB8E",
" X c #7FAE90",
".X c #809F85",
"XX c #82AC8D",
"oX c #8EAA8F",
"OX c #91A087",
"+X c #80AF90",
"@X c #92AE90",
"#X c #85B494",
"$X c #89B997",
"%X c #8AB799",
"&X c #8CBC9A",
"*X c #89B494",
"=X c #B2AA90",
"-X c #BBB195",
";X c #8E97A8",
":X c #8A93A4",
">X c #9193AC",
",X c #A28DB9",
"<X c #A5A9AA",
"1X c #C59C85",
"2X c #DB9C87",
"3X c #E49F88",
"4X c #E39188",
"5X c #F99D87",
"6X c #C8A68E",
"7X c #D9A887",
"8X c #D5AA8A",
"9X c #D4AE96",
"0X c #C1B592",
"qX c #DFBA9F",
"wX c #DBB893",
"eX c #E6A08F",
"rX c #FBA481",
"tX c #FDAC87",
"yX c #FAA889",
"uX c #F9B587",
"iX c #E1A192",
"pX c #F2AB9D",
"aX c #E9B097",
"sX c #EAB198",
"dX c #F6B491",
"fX c #FBB494",
"gX c #F4BB9D",
"hX c #FAB99A",
"jX c #DE88A2",
"kX c #D194BB",
"lX c #DDA2A4",
"zX c #F9BFA0",
"xX c #F1BFA4",
"cX c #8FC09C",
"vX c #91C29E",
"bX c #94C6A1",
"nX c #97C9A3",
"mX c #9ACCA6",
"MX c #9ED2A9",
"NX c #D7C1A0",
"BX c #DDCEBC",
"VX c #F4C1A6",
"CX c #F6C4A9",
"ZX c #F9C3A9",
"AX c #BD84C2",
"SX c #BB86D5",
"DX c #CC88DD",
"FX c #D496DC",
"GX c #C280E7",
"HX c #C383E8",
"JX c #E7AAE2",
"KX c #EEB6E8",
"LX c #F0B8E9",
"PX c #C3CFC6",
"IX c #E9D6D1",
"UX c None",
/* pixels */
"UXUXUXUXUXUXUXUXUXUXUXUXUXUXUXUXUXUXUXUXUXUXUXUXUXUXUXUXUXUXUXUXUXUXUXUXUXUXUXUXUXUXUXUXUXUXUXUXUXUXUXUXUXUXUXUXUXUXUXUXUXUXUXUX",
"UXUXUXUXUXUXUXUXUXUXUXUXUXUXUXUXUXUXUXUXUXUXUXUXUXUXUXUXUXUXUXUXUXUXUXUXUXUXUXUXUXUXUXUXUXUXUXUXUXUXUXUXUXUXUXUXUXUXUXUXUXUXUXUX",
"UXUXUXUXUXUXUXUXUXUXUXUXUXUXUXUXUXUXUXUXUXUXUXUXUXUXUXUXUXUXUXUXUXUXUXUXUXUXUXUXUXUXUXUXUXUXUXUXUXUXUXUXUXUXUXUXUXUXUXUXUXUXUXUX",
"UXUXUXUXUXUXUXUXUXUXUXUXUXUXUXUXUXUXUXUXUXUXUXUXUXUXUXUXUXUXUXUXUXUXUXUXUXUXUXUXUXUXUXUXUXUXUXUXUXUXUXUXUXUXUXUXUXUXUXUXUXUXUXUX",
"UXUXUXUXUXUXUXUXUXUXUXUXUXUXUXUXUXUXUXUXUXUXUXUXUXUXUXUXUXUXUXUXUXUXUXUXUXUXUXUXUXUXUXUXUXUXUXUXUXUXUXUXUXUXUXUXUXUXUXUXUXUXUXUX",
"UXUXUXUXUXUXUXUXUXUXUXUXUXUXUXUXUXUXUXUXUXUXUXUXUXUXUXUXUXUXUXUXUXUXUXUXUXUXUXUXUXUXUXUXUXUXUXUXUXUXUXUXUXUXUXUXUXUXUXUXUXUXUXUX",
"UXUXUXUXUXUXUXUXUXUXUXUXUXUXUXUXUXUXUXUXUXUXUXUXUXUXUXUXUXUXUXUXUXUXUXUXUXUXUXUXUXUXUXUXUXUXUXUXUXUXUXUXUXUXUXUXUXUXUXUXUXUXUXUX",
"UXUXUXUXUXUXUXUXUXUXUXUXUXUXUXUXUXUXUXUXUXUXUXUXUXUXUXUXUXUXUXUXUXUXUXUXUXUXUXUXUXUXUXUXUXUXUXUXUXUXUXUXUXUXUXUXUXUXUXUXUXUXUXUX",
"UXUXUXUXUXUXUXUXUXUXUXUXUXUXUXUXUXUXUXUXUXUXUXUXUXUXUXUXUXUXUXUXUXUXUXUXUXUXUXUXUXUXUXUXUXUXUXUXUXUXUXUXUXUXUXUXUXUXUXUXUXUXUXUX",
"UXUXUXUXUXUXUXUXUXUXUXUXUXUXUXUXUXUXUXUXUXUXUXUXUXUXUXUXUXUXUXUXUXUXUXUXUXUXUXUXUXUXUXUXUXUXUXUXUXUXUXUXUXUXUXUXUXUXUXUXUXUXUXUX",
"UXUXUXUXUXUXUXUXUXUXUXUXUXUXUXUXUXUXUXUXUXUXUXUXUXUXUXUXUXUXUXUXUXUXUXUXUXUXUXUXUXUXUXUXUXUXUXUXUXUXUXUXUXUXUXUXUXUXUXUXUXUXUXUX",
"UXUXUXUXUXUXUXUXUXUXUXUXUXUXUXUXUXUXUXUXUXUXUXUXUXUXUXUXUXUXUXUXUXUXUXUXUXUXUXUXUXUXUXUXUXUXUXUXUXUXUXUXUXUXUXUXUXUXUXUXUXUXUXUX",
"UXUXUXUXUXUXUXUXUXUXUXUXUXUXUXUXUXUXUXUXUXUXUXUXUXUXUXUXUXUXUXUXUXUXUXUXUXUXUXUXUXUXUXUXUXUXUXUXUXUXUXUXUXUXUXUXUXUXUXUXUXUXUXUX",
"UXUXUXUXUXUXUXUXUXUXUXUXUXUXUXUXUXUXUXUXUXUXUXUXUXUXUXUXUXUXUXUXUXUXUXUXUXUXUXUXUXUXUXUXUXUXUXUXUXUXUXUXUXUXUXUXUXUXUXUXUXUXUXUX",
"UXUXUXUXUXUXUXUXUXUXUXUXUXUXUXUXUXUXUXUXUXUXUXUXUXUXUXUXUXUXUXUXUXUXUXUXUXUXUXUXUXUXUXUXUXUXUXUXUXUXUXUXUXUXUXUXUXUXUXUXUXUXUXUX",
"UXUXUXUXUXUXUXUXUXUXUXUXUXUXUXUXUXUXUXUXUXUXUXUXUXUXUXUXUXUXUXUXUXUXUXUXUXUXUXUXUXUXUXUXUXUXUXUXUXUXUXUXUXUXUXUXUXUXUXUXUXUXUXUX",
"UXUXUXUXUXUXUXUXUXUXUXUXUXUXUXUXUXUXUXUXUXUXUXUXUXUXUXUXUXUXUXUXUXUXUXUXUXUXUXUXUXUXUXUXUXUXUXUXUXUXUXUXUXUXUXUXUXUXUXUXUXUXUXUX",
"UXUXUXUXUXUXUXUXUXUXUXUXUXUXUXUXUXUXUXUXUXUXUXUXUXUXUXUXUXUXUXUXUXUXUXUXUXUXUXUXUXUXUXUXUXUXUXUXUXUXUXUXUXUXUXUXUXUXUXUXUXUXUXUX",
"UXUXUXUXUXUXUXUXUXUXUXUXUXUXUXUXUXUXUXUXUXUXUXUXUXUXUXUXUXUXUXUXUXUXUXUXUXUXUXUXUXUXUXUXUXUXUXUXUXUXUXUXUXUXUXUXUXUXUXUXUXUXUXUX",
"UXUXUXUXUXUXUXUXUXUXUXUXUXUXUXUXUXUXUXUXUXUXUXUXUXUXUXUXUXUXUXUXUXUXUXUXUXUXUXUXUXUXUXUXUXUXUXUXUXUXUXUXUXUXUXUXUXUXUXUXUXUXUXUX",
"UXUXUXUXUXUXUXUXUXUXUXUXUXUXUXUXUXUXUXUXUXUXUXUXUXUXUXUXUXUXUXUXUXUXUXUXUXUXUXUXUXUXUXUXUXUXUXUXUXUXUXUXUXUXUXUXUXUXUXUXUXUXUXUX",
"UXUXUXUXUXUXUXUXUXUXUXUXUXUXUXUXUXUXUXUXUXUXUXUXUXUXUXUXUXUXUXUXUXUXUXUXUXUXUXUXUXUXUXUXUXUXUXUXUXUXUXUXUXUXUXUXUXUXUXUXUXUXUXUX",
"UXUXUXUXUXUXUXUXUXUXUXUXUXUXUXUXUXUXUXUXUXUXUXUXUXUXUXUXUXUXUXUXUXUXUXUXUXUXUXUXUXUXUXUXUXUXUXUXUXUXUXUXUXUXUXUXUXUXUXUXUXUXUXUX",
"UXUXUXUXUXUXUXUXUXUXUXUXUXUXUXUXUXUXUXUXUXUXUXUXUXUXUXUXUXUXUXUXUXUXUXUXUXUXUXUXUXUXUXUXUXUXUXUXUXUXUXUXUXUXUXUXUXUXUXUXUXUXUXUX",
"UXUXUXUXUXUXUXUXUXUXUXUXUXUXUXUXUXUXUXUXUXUXUXUXUXUXUXUXUXe m M M z r 0 UXF S UXUXUXUXUXUXUXUXUXUXUXUXUXUXUXUXUXUXUXUXUXUXUXUXUX",
"UXUXUXUXUXUXUXUXUXUXUXUXUXUXUXUXUXUXUXUXUXUXUXUXUXUXUXUXm t.#X$X$XXX'.t.R SXQ.N , UXUXUXUXUXUXUXUXUXUXUXUXUXUXUXUXUXUXUXUXUXUXUX",
"UXUXUXUXUXUXUXUXUXUXUXUXUXUXUXUXUXUXUXUXUXUXUXUXUXUXUXt.&XmXmXMXMXMXMXMX&X:XSX,X`.P r UXUXUXUXUXUXUXUXUXUXUXUXUXUXUXUXUXUXUXUXUX",
"UXUXUXUXUXUXUXUXUXUXUXUXUXUXUXUXUXUXUXUXUXUXUXUXz m r.cXMXmXnXmXMXMXMXMXMX$X;X>X|.}.U UXUXUXUXUXUXUXUXUXUXUXUXUXUXUXUXUXUXUXUXUX",
"UXUXUXUXUXUXUXUXUXUXUXUXUXUXUXUXUXUXUXUXUXUXUXs. X+XcXMXMXMXMXmXnXMXMXMXMXnX+Xp._.$X$XM UXUXUXUXUXUXUXUXUXUXUXUXUXUXUXUXUXUXUXUX",
"UXUXUXUXUXUXUXUXUXUXUXUXUXUXUXUXUXUXUXUXUXUXu.nXMXMXnXvXnXMXMXMXbXMXMXMXMXmX$X'.p.+X$Xq.e UXUXUXUXUXUXUXUXUXUXUXUXUXUXUXUXUXUXUX",
"UXUXUXUXUXUXUXUXUXUXUXUXUXUXUXUXUXUXUXUXUXe $XMXbXbXmXXX*XMXMXMXbXbXMXMXMXmX$X[.y.[.$X[.z UXUXUXUXUXUXUXUXUXUXUXUXUXUXUXUXUXUXUX",
"UXUXUXUXUXUXUXUXUXUXUXUXUXUXUXUXUXUXUXUXUXr cX$X'.OXNX7X0XMXMXMX&X&XnXMXmXvX$X[.y.[.$X}.z UXUXUXUXUXUXUXUXUXUXUXUXUXUXUXUXUXUXUX",
"UXUXUXUXUXUXUXUXUXUXUXUXUXUXUXUXUXUXUXUXUXt +X}.L 4.gXtXwXMXMXMX X X&XvXcX$X X[.e.'.$X}.z UXUXUXUXUXUXUXUXUXUXUXUXUXUXUXUXUXUXUX",
"UXUXUXUXUXUXUXUXUXUXUXUXUXUXUXUXUXUXUXUXUX* p.[.K 4.gXtX9XmXMXmX$X[.|. X X X}.i.L `. X_.r UXUXUXUXUXUXUXUXUXUXUXUXUXUXUXUXUXUXUX",
"UXUXUXUXUXUXUXUXUXUXUXUXUXUXUXUXUXUXUXUXUXUXr t.t.4.gXN.T *XnXmXcX_.i._.a.`.i.I n p.|.q.0 UXUXUXUXUXUXUXUXUXUXUXUXUXUXUXUXUXUXUX",
"UXUXUXUXUXUXUXUXUXUXUXUXUXUXUXUXUXUXUXUXUXUXUXz e.4.xX1X= r.*XnXbX}.e.e.e.e.I n Z _._.z UXUXUXUXUXUXUXUXUXUXUXUXUXUXUXUXUXUXUXUX",
"UXUXUXUXUXUXUXUXUXUXUXUXUXUXUXUXUXUXUXUXUXUXUX: Z >.VX1X& J Y XXvX$X].5.K n v v w.i.P - UXUXUXUXUXUXUXUXUXUXUXUXUXUXUXUXUXUXUXUX",
"UXUXUXUXUXUXUXUXUXUXUXUXUXUXUXUXUXUXUXUXUXUXUXUX$ >.VX1Xm <X<Xx..X$XoX7XA h q Z t.L w UXUXUXUXUXUXUXUXUXUXUXUXUXUXUXUXUXUXUXUXUX",
"UXUXUXUXUXUXUXUXUXUXUXUXUXUXUXUXUXUXUXUXUXUXUXUXUX4.xX6Xr.PXIXeXc. XoX9XB > j L I k UXUXUXUXUXUXUXUXUXUXUXUXUXUXUXUXUXUXUXUXUXUX",
"UXUXUXUXUXUXUXUXUXUXUXUXUXUXUXUXUXUXUXUXUXUXUXUXUX>.xXqX-XBXZXrXc.{.=Xb.y - b I I j UXUXUXUXUXUXUXUXUXUXUXUXUXUXUXUXUXUXUXUXUXUX",
"UXUXUXUXUXUXUXUXUXUXUXUXUXUXUXUXUXUXUXUXUXUXUXUXUX,.hXZXCXCXhXZ.m.6.8.7 X > n I I x % UXUXUXUXUXUXUXUXUXUXUXUXUXUXUXUXUXUXUXUXUX",
"UXUXUXUXUXUXUXUXUXUXUXUXUXUXUXUXUXUXUXUXUXUXUXUXUXV M.CXCXzXfXrXB.u + 6 o - v K I K > UXUXUXUXUXUXUXUXUXUXUXUXUXUXUXUXUXUXUXUXUX",
"UXUXUXUXUXUXUXUXUXUXUXUXUXUXUXUXUXUXUXUXUXUXUXUXUXUXUXM.dXdXyX5X4X9 UXUXUX$ > v G I b # UXUXUXUXUXUXUXUXUXUXUXUXUXUXUXUXUXUXUXUX",
"UXUXUXUXUXUXUXUXUXUXUXUXUXUXUXUXUXUXUXUXUXUXUXUXUXUXUXV :.<.L.).W.f UXUXUXUX# q x I Z % UXUXUXUXUXUXUXUXUXUXUXUXUXUXUXUXUXUXUXUX",
"UXUXUXUXUXUXUXUXUXUXUXUXUXUXUXUXUXUXUXUXUXUXUXUXUXUXUXUXp A.!././.U.g UXUXUXUX# > Z v $ UXUXUXUXUXUXUXUXUXUXUXUXUXUXUXUXUXUXUXUX",
"UXUXUXUXUXUXUXUXUXUXUXUXUXUXUXUXUXUXUXUXUXUXUXUXUXUXUXUXS.~.GXGXHX(.U.i UXUXUXUX# l > UXUXUXUXUXUXUXUXUXUXUXUXUXUXUXUXUXUXUXUXUX",
"UXUXUXUXUXUXUXUXUXUXUXUXUXUXUXUXUXUXUXUXUXUXUXUXUXUXUX8.kXDXJXLXKXFX^.i UXUXUXUX  - % UXUXUXUXUXUXUXUXUXUXUXUXUXUXUXUXUXUXUXUXUX",
"UXUXUXUXUXUXUXUXUXUXUXUXUXUXUXUXUXUXUXUXUXUXUXUXUXUXQ -.P.K.2XhXfX7.AXs UXUXUXUXUX  UXUXUXUXUXUXUXUXUXUXUXUXUXUXUXUXUXUXUXUXUXUX",
"UXUXUXUXUXUXUXUXUXUXUXUXUXUXUXUXUXUXUXUXUXUXUXUXUX1 { *.*.o.2XCXdXC & UXUXUXUXUXUXUXUXUXUXUXUXUXUXUXUXUXUXUXUXUXUXUXUXUXUXUXUXUX",
"UXUXUXUXUXUXUXUXUXUXUXUXUXUXUXUXUXUXUXUXUXUXUXUXUX1 ~ X.O. .2XCXdXC UXUXUXUXUXUXUXUXUXUXUXUXUXUXUXUXUXUXUXUXUXUXUXUXUXUXUXUXUXUX",
"UXUXUXUXUXUXUXUXUXUXUXUXUXUXUXUXUXUXUXUXUXUXUXUXUXUX2 7 3.J.lXCXdXC UXUXUXUXUXUXUXUXUXUXUXUXUXUXUXUXUXUXUXUXUXUXUXUXUXUXUXUXUXUX",
"UXUXUXUXUXUXUXUXUXUXUXUXUXUXUXUXUXUXUXUXUXUXUXUXUXUXUX. 2.I.lXZXdXC UXUXUXUXUXUXUXUXUXUXUXUXUXUXUXUXUXUXUXUXUXUXUXUXUXUXUXUXUXUX",
"UXUXUXUXUXUXUXUXUXUXUXUXUXUXUXUXUXUXUXUXUXUXUXUXUXUXUXUX_ &.9.n.0.' < UXUXUXUXUXUXUXUXUXUXUXUXUXUXUXUXUXUXUXUXUXUXUXUXUXUXUXUXUX",
"UXUXUXUXUXUXUXUXUXUXUXUXUXUXUXUXUXUXUXUXUXUXUXUXUXUXUXUX] -.o.$.o.} 8 UXUXUXUXUXUXUXUXUXUXUXUXUXUXUXUXUXUXUXUXUXUXUXUXUXUXUXUXUX",
"UXUXUXUXUXUXUXUXUXUXUXUXUXUXUXUXUXUXUXUXUXUXUXUXUXUXUXUXD.P.3XsXaX4XG.d UXUXUXUXUXUXUXUXUXUXUXUXUXUXUXUXUXUXUXUXUXUXUXUXUXUXUXUX",
"UXUXUXUXUXUXUXUXUXUXUXUXUXUXUXUXUXUXUXUXUXUXUXUXUXUXUXUXD 1XhXZXZXpXE.F.i UXUXUXUXUXUXUXUXUXUXUXUXUXUXUXUXUXUXUXUXUXUXUXUXUXUXUX",
"UXUXUXUXUXUXUXUXUXUXUXUXUXUXUXUXUXUXUXUXUXUXUXUXUXUXUXUXUXn.hXVXzXiXY.T.F UXUXUXUXUXUXUXUXUXUXUXUXUXUXUXUXUXUXUXUXUXUXUXUXUXUXUX",
"UXUXUXUXUXUXUXUXUXUXUXUXUXUXUXUXUXUXUXUXUXUXUXUXUXUXUXUXUX1.Z.uX3XV f ^.R.@ UXUXUXUXUXUXUXUXUXUXUXUXUXUXUXUXUXUXUXUXUXUXUXUXUXUX",
"UXUXUXUXUXUXUXUXUXUXUXUXUXUXUXUXUXUXUXUXUXUXUXUXUXUXUXUXUXd.z.l.f.@.a R.^.@ UXUXUXUXUXUXUXUXUXUXUXUXUXUXUXUXUXUXUXUXUXUXUXUXUXUX",
"UXUXUXUXUXUXUXUXUXUXUXUXUXUXUXUXUXUXUXUXUXUXUXUXUXUXUXUXUX` =.#.j.g.4 S H.UXUXUXUXUXUXUXUXUXUXUXUXUXUXUXUXUXUXUXUXUXUXUXUXUXUXUX",
"UXUXUXUXUXUXUXUXUXUXUXUXUXUXUXUXUXUXUXUXUXUXUXUXUXUXUXUX+.h.;.O.{ ! 3 . UXUXUXUXUXUXUXUXUXUXUXUXUXUXUXUXUXUXUXUXUXUXUXUXUXUXUXUX",
"UXUXUXUXUXUXUXUXUXUXUXUXUXUXUXUXUXUXUXUXUXUXUXUXUXUX1 ` %.k.;.O.X.^ E o UXUXUXUXUXUXUXUXUXUXUXUXUXUXUXUXUXUXUXUXUXUXUXUXUXUXUXUX",
"UXUXUXUXUXUXUXUXUXUXUXUXUXUXUXUXUXUXUXUXUXUXUXUXUXUX5 ..*.*.=.( W [ ^ O UXUXUXUXUXUXUXUXUXUXUXUXUXUXUXUXUXUXUXUXUXUXUXUXUXUXUXUX",
"UXUXUXUXUXUXUXUXUXUXUXUXUXUXUXUXUXUXUXUXUXUXUXUXUXUX< 6 7 Q 6 O . 5 5 X UXUXUXUXUXUXUXUXUXUXUXUXUXUXUXUXUXUXUXUXUXUXUXUXUXUXUXUX"
};
