/* XPM */
static char *ae8428880547490284faa85e11838a25[] = {
/* columns rows colors chars-per-pixel */
"64 64 256 2 ",
"   c #1A1211",
".  c #151B1A",
"X  c #271111",
"o  c #1A2623",
"O  c #1E2B26",
"+  c #24332C",
"@  c #243630",
"#  c #283B34",
"$  c #441210",
"%  c #4A1512",
"&  c #531713",
"*  c #581C16",
"=  c #621A14",
"-  c #6B1C15",
";  c #721C15",
":  c #5F2119",
">  c #6F2219",
",  c #7D2B1F",
"<  c #2F443B",
"1  c #33493E",
"2  c #7A4B3C",
"3  c #44295D",
"4  c #503E59",
"5  c #4E2F6A",
"6  c #59367A",
"7  c #79376B",
"8  c #334D44",
"9  c #3A5347",
"0  c #32504A",
"q  c #3D594E",
"w  c #3E5C51",
"e  c #3E625A",
"r  c #445F4F",
"t  c #785948",
"y  c #7B5F54",
"u  c #456253",
"i  c #40615A",
"p  c #47695D",
"a  c #4C665B",
"s  c #516F5B",
"d  c #5A4761",
"f  c #6F557B",
"g  c #476E63",
"h  c #4C7265",
"j  c #4E7568",
"k  c #577361",
"l  c #5C7769",
"z  c #567D6D",
"x  c #5B7365",
"c  c #666D62",
"v  c #756D62",
"b  c #637D6E",
"n  c #7E7C6D",
"m  c #637375",
"M  c #961C14",
"N  c #991E15",
"B  c #832018",
"V  c #93261A",
"C  c #98271B",
"Z  c #A3271B",
"A  c #A42C1E",
"S  c #AA2D1E",
"D  c #A62F20",
"F  c #A92F21",
"G  c #AB3122",
"H  c #B53524",
"J  c #B33826",
"K  c #BA3826",
"L  c #BC3B29",
"P  c #B83E34",
"I  c #C13F2D",
"U  c #B84233",
"Y  c #C4412C",
"T  c #CA462F",
"R  c #CC4733",
"E  c #CE4835",
"W  c #D8783C",
"Q  c #853568",
"!  c #933974",
"~  c #815844",
"^  c #925B51",
"/  c #AE4F40",
"(  c #BE4742",
")  c #AC5748",
"_  c #B75947",
"`  c #9A634F",
"'  c #996654",
"]  c #95725B",
"[  c #A1614C",
"{  c #AB6457",
"}  c #AB675A",
"|  c #BA6856",
" . c #A17157",
".. c #A9755A",
"X. c #AA4770",
"o. c #9B636D",
"O. c #9E7764",
"+. c #997967",
"@. c #977768",
"#. c #987968",
"$. c #A96379",
"%. c #B77577",
"&. c #CE4D46",
"*. c #C55946",
"=. c #CF6552",
"-. c #C56856",
";. c #CA6A55",
":. c #C76A58",
">. c #C96E5D",
",. c #D2795F",
"<. c #CA536E",
"1. c #C86760",
"2. c #C6686E",
"3. c #C07C68",
"4. c #CA7765",
"5. c #5B816E",
"6. c #5C8472",
"7. c #62846B",
"8. c #648071",
"9. c #658C75",
"0. c #658F79",
"q. c #738976",
"w. c #7B8F7A",
"e. c #67917B",
"r. c #69937D",
"t. c #DD8525",
"y. c #E0A92C",
"u. c #E1B32F",
"i. c #838A76",
"p. c #968776",
"a. c #928D77",
"s. c #BF8568",
"d. c #BE886D",
"f. c #BE8C78",
"g. c #BB947E",
"h. c #BD987C",
"j. c #C1826C",
"k. c #CA8A77",
"l. c #DD977D",
"z. c #E3877C",
"x. c #EC9675",
"c. c #FAA076",
"v. c #F9A67B",
"b. c #604182",
"n. c #704788",
"m. c #74488D",
"M. c #7D6385",
"N. c #904180",
"B. c #9D5B8D",
"V. c #944D9C",
"C. c #A74185",
"Z. c #A14997",
"A. c #B34D98",
"S. c #9448A3",
"D. c #8953B6",
"F. c #8E55BF",
"G. c #8F58BC",
"H. c #8652B2",
"J. c #B656AD",
"K. c #BA5CA0",
"L. c #9675A2",
"P. c #CB7D92",
"I. c #C45FA3",
"U. c #C560A0",
"Y. c #C874AF",
"T. c #995DC7",
"R. c #955BC3",
"E. c #A267C7",
"W. c #AA6BCB",
"Q. c #BA6FCF",
"!. c #AF6EDF",
"~. c #A365D2",
"^. c #B267D1",
"/. c #B36FDF",
"(. c #B170DE",
"). c #B26FE1",
"_. c #B673E2",
"`. c #B976E3",
"'. c #BD79E5",
"]. c #C07CE4",
"[. c #6E9A81",
"{. c #719D84",
"}. c #74A186",
"|. c #76A388",
" X c #79A68B",
".X c #7CAA8D",
"XX c #BC9784",
"oX c #84B08F",
"OX c #80AF90",
"+X c #84B494",
"@X c #88B797",
"#X c #88B897",
"$X c #8CBC9A",
"%X c #8B97A8",
"&X c #939EB4",
"*X c #A983B7",
"=X c #CD9E80",
"-X c #D09680",
";X c #C68891",
":X c #D98195",
">X c #EC969D",
",X c #D1A48D",
"<X c #D1A690",
"1X c #DEAA91",
"2X c #E9A68B",
"3X c #FAA987",
"4X c #FAA688",
"5X c #F9A283",
"6X c #F0B98C",
"7X c #E2AC95",
"8X c #F3AD91",
"9X c #EAB299",
"0X c #F5B093",
"qX c #F9B997",
"wX c #F3B599",
"eX c #F6BA9C",
"rX c #FABB9A",
"tX c #CD8CA4",
"yX c #CB80B3",
"uX c #D38DBC",
"iX c #E399A8",
"pX c #D3A1A1",
"aX c #DFABBE",
"sX c #F4AFAE",
"dX c #F8AFA9",
"fX c #F8BDA0",
"gX c #F9B3AD",
"hX c #EEB7B1",
"jX c #8EC09C",
"kX c #91C39E",
"lX c #94C6A1",
"zX c #97CAA3",
"xX c #99CCA5",
"cX c #9ECCAD",
"vX c #9CD0A7",
"bX c #9FD3AA",
"nX c #9FC4B3",
"mX c #F5C393",
"MX c #F6C1A5",
"NX c #D689D8",
"BX c #C99CDE",
"VX c #D899D1",
"CX c #E18FCB",
"ZX c #E39EC7",
"AX c #E693CC",
"SX c #E0A7C4",
"DX c #EEADC7",
"FX c #C381E7",
"GX c #CB87E7",
"HX c #C484E8",
"JX c #CE92EB",
"KX c #D49CEE",
"LX c #D8A6ED",
"PX c #DEAAEE",
"IX c #D3A3E7",
"UX c None",
/* pixels */
"UXUXUXUXUXUXUXUXUXUXUXUXUXUXUXUXUXUXUXUXUXUXUXUXUXUXUXUXUXUXUXUXUXUXUXUXUXUXUXUXUXUXUXUXUXUXUXUXUXUXUXUXUXUXUXUXUXUXUXUXUXUXUXUX",
"UXUXUXUXUXUXUXUXUXUXUXUXUXUXUXUXUXUXUXUXUXUXUXUXUXUXUXUXUXUXUXUXUXUXUXUXUXUXUXUXUXUXUXUXUXUXUXUXUXUXUXUXUXUXUXUXUXUXUXUXUXUXUXUX",
"UXUXUXUXUXUXUXUXUXUXUXUXUXUXUXUXUXUXUXUXUXUXUXUXUXUXUXUXUXUXUXUXUXUXUXUXUXUXUXUXUXUXUXUXUXUXUXUXUXUXUXUXUXUXUXUXUXUXUXUXUXUXUXUX",
"UXUXUXUXUXUXUXUXUXUXUXUXUXUXUXUXUXUXUXUXUXUXUXUXUXUXUXUXUXUXUXUXUXUXUXUXUXUXUXUXUXUXUXUXUXUXUXUXUXUXUXUXUXUXUXUXUXUXUXUXUXUXUXUX",
"UXUXUXUXUXUXUXUXUXUXUXUXUXUXUXUXUXUXUXUXUXUXUXUXUXUXUXUXUXUXUXUXUXUXUXUXUXUXUXUXUXUXUXUXUXUXUXUXUXUXUXUXUXUXUXUXUXUXUXUXUXUXUXUX",
"UXUXUXUXUXUXUXUXUXUXUXUXUXUXUXUXUXUXUXUXUXUXUXUXUXUXUXUXUXUXUXUXUXUXUXUXUXUXUXUXUXUXUXUXUXUXUXUXUXUXUXUXUXUXUXUXUXUXUXUXUXUXUXUX",
"UXUXUXUXUXUXUXUXUXUXUXUXUXUXUXUXUXUXUXUXUXUXUXUXUXUXUXUXUXUXUXUXUXUXUXUXUXUXUXUXUXUXUXUXUXUXUXUXUXUXUXUXUXUXUXUXUXUXUXUXUXUXUXUX",
"UXUXUXUXUXUXUXUXUXUXUXUXUXUXUXUXUXUXUXUXUXUXUXUXUXUXUXUXUXUXUXUXUXUXUXUXUXUXUXUXUXUXUXUXUXUXUXUXUXUXUXUXUXUXUXUXUXUXUXUXUXUXUXUX",
"UXUXUXUXUXUXUXUXUXUXUXUXUXUXUXUXUXUXUXUXUXUXUXUXUXUXUXUXUXUXUXUXUXUXUXUXUXUXUXUXUXUXUXUXUXUXUXUXUXUXUXUXUXUXUXUXUXUXUXUXUXUXUXUX",
"UXUXUXUXUXUXUXUXUXUXUXUXUXUXUXUXUXUXUXUXUXUXUXUXUXUXUXUXUXUXUXUXUXUXUXUXUXUXUXUXUXUXUXUXUXUXUXUXUXUXUXUXUXUXUXUXUXUXUXUXUXUXUXUX",
"UXUXUXUXUXUXUXUXUXUXUXUXUXUXUXUXUXUXUXUXUXUXUXUXUXUXUXUXUXUXUXUXUXUXUXUXUXUXUXUXUXUXUXUXUXUXUXUXUXUXUXUXUXUXUXUXUXUXUXUXUXUXUXUX",
"UXUXUXUXUXUXUXUXUXUXUXUXUXUXUXUXUXUXUXUXUXUXUXUXUXUXUXUXUXUXUXUXUXUXUXUXUXUXUXUXUXUXUXUXUXUXUXUXUXUXUXUXUXUXUXUXUXUXUXUXUXUXUXUX",
"UXUXUXUXUXUXUXUXUXUXUXUXUXUXUXUXUXUXUXUXUXUXUXUXUXUXUXUXUXUXUXUXUXUXUXUXUXUXUXUXUXUXUXUXUXUXUXUXUXUXUXUXUXUXUXUXUXUXUXUXUXUXUXUX",
"UXUXUXUXUXUXUXUXUXUXUXUXUXUXUXUXUXUXUXUXUXUXUXUXUXUXUXUXUXUXUXUXUXUXUXUXUXUXUXUXUXUXUXUXUXUXUXUXUXUXUXUXUXUXUXUXUXUXUXUXUXUXUXUX",
"UXUXUXUXUXUXUXUXUXUXUXUXUXUXUXUXUXUXUXUXUXUXUXUXUXUXUXUXUXUXUXUXUXUXUXUXUXUXUXUXUXUXUXUXUXUXUXUXUXUXUXUXUXUXUXUXUXUXUXUXUXUXUXUX",
"UXUXUXUXUXUXUXUXUXUXUXUXUXUXUXUXUXUXUXUXUXUXUXUXUXUXUXUXUXUXUXUXUXUXUXUXUXUXUXUXUXUXUXUXUXUXUXUXUXUXUXUXUXUXUXUXUXUXUXUXUXUXUXUX",
"UXUXUXUXUXUXUXUXUXUXUXUXUXUXUXUXUXUXUXUXUXUXUXUXUXUXUXUXUXUXUXUXUXUXUXUXUXUXUXUXUXUXUXUXUXUXUXUXUXUXUXUXUXUXUXUXUXUXUXUXUXUXUXUX",
"UXUXUXUXUXUXUXUXUXUXUXUXUXUXUXUXUXUXUXUXUXUXUXUXUXUXUXUXUXUXUXUXUXUXUXUXUXUXUXUXUXUXUXUXUXUXUXUXUXUXUXUXUXUXUXUXUXUXUXUXUXUXUXUX",
"UXUXUXUXUXUXUXUXUXUXUXUXUXUXUXUXUXUXUXUXUXUXUXUXUXUXUXUXUXUXUXUXUXUXUXUXUXUXUXUXUXUXUXUXUXUXUXUXUXUXUXUXUXUXUXUXUXUXUXUXUXUXUXUX",
"UXUXUXUXUXUXUXUXUXUXUXUXUXUXUXUXUXUXUXUXUXUXUXUXUXUXUXUXUXUXUXUXUXUXUXUXUXUXUXUXUXUXUXUXUXUXUXUXUXUXUXUXUXUXUXUXUXUXUXUXUXUXUXUX",
"UXUXUXUXUXUXUXUXUXUXUXUXUXUXUXUXUXUXUXUXUXUXUXUXUXUXUXUXUXUXUXUXUXUXUXUXUXUXUXUXUXUXUXUXUXUXUXUXUXUXUXUXUXUXUXUXUXUXUXUXUXUXUXUX",
"UXUXUXUXUXUXUXUXUXUXUXUXUXUXUXUXUXUXUXUXUXUXUXUXUXUXUXUXUXUXUXUXUXUXUXUXUXUXUXUXUXUXUXUXUXUXUXUXUXUXUXUXUXUXUXUXUXUXUXUXUXUXUXUX",
"UXUXUXUXUXUXUXUXUXUXUXUXUXUXUXUXUXUXUXUXUXUXUXUXUXUXUXUXUXUXUXUXUXUXUXUXUXUXUXUXUXUXUXUXUXUXUXUXUXUXUXUXUXUXUXUXUXUXUXUXUXUXUXUX",
"UXUXUXUXUXUXUXUXUXUXUXUXUXUXUXUXUXUXUXUXUXUXUXUXUXUXUXUXUXUXUXUXUXUXUXUXUXUXUXUXUXUXUXUXUXUXUXUXUXUXUXUXUXUXUXUXUXUXUXUXUXUXUXUX",
"UXUXUXUXUXUXUXUXUXUXUXUXUXUXUXUXUXUXUXUXUXUXUXUXUXUXUXUXUX6 m 7.7.b b.UXUXUXUXUXUXUXUXUXUXUXUXUXUXUXUXUXUXUXUXUXUXUXUXUXUXUXUXUX",
"UXUXUXUXUXUXUXUXUXUXUXUXUXUXUXUXUXUXUXUXUXUXUXUXUXUXUXUXk %XnXbXbXcX&Xb UXUXUXUXUXUXUXUXUXUXUXUXUXUXUXUXUXUXUXUXUXUXUXUXUXUXUXUX",
"UXUXUXUXUXUXUXUXUXUXUXUXUXUXUXUXUXUXUXUXUXUXUXUXUXUXr 7.oXvXbXbXbXbXvX$X9.s UXUXUXUXUXUXUXUXUXUXUXUXUXUXUXUXUXUXUXUXUXUXUXUXUXUX",
"UXUXUXUXUXUXUXUXUXUXUXUXUXUXUXUXUXUXUXUXUXUXUXUXUX8 0.#XbXbXbXbXbXbXbXbXjX[.r UXUXUXUXUXUXUXUXUXUXUXUXUXUXUXUXUXUXUXUXUXUXUXUXUX",
"UXUXUXUXUXUXUXUXUXUXUXUXUXUXUXUXUXUXUXUXUXUXUXUX@ k .XlXbXbXbXbXbXbXbXbXzXoX5.1 UXUXUXUXUXUXUXUXUXUXUXUXUXUXUXUXUXUXUXUXUXUXUXUX",
"UXUXUXUXUXUXUXUXUXUXUXUXUXUXUXUXUXUXUXUXUXUXUXUX9 r.OXlXbXbXbXbXbXbXbXbXzX+X{.u UXUXUXUXUXUXUXUXUXUXUXUXUXUXUXUXUXUXUXUXUXUXUXUX",
"UXUXUXUXUXUXUXUXUXUXUXUXUXUXUXUXUXUXUXUXUXUXUX+ 5.|. XlXbXbXbXbXbXbXbXbXzXOX|.0.< UXUXUXUXUXUXUXUXUXUXUXUXUXUXUXUXUXUXUXUXUXUXUX",
"UXUXUXUXUXUXUXUXUXUXUXUXUXUXUXUXUXUXUXUXUXUXUX9 r. X XlXbXbXbXbXbXbXbXbXzXOX|.{.u UXUXUXUXUXUXUXUXUXUXUXUXUXUXUXUXUXUXUXUXUXUXUX",
"UXUXUXUXUXUXUXUXUXUXUXUXUXUXUXUXUXUXUXUXUXUX+ z [.|. XlXbXbXbXbXbXbXbXbXvXOX}.{.6.< UXUXUXUXUXUXUXUXUXUXUXUXUXUXUXUXUXUXUXUXUXUX",
"UXUXUXUXUXUXUXUXUXUXUXUXUXUXUXUXUXUXUXUXUXUX+ 0.{.{.{.jXbXbXbXbXbXbXbXbXlX X[.}.r.1 UXUXUXUXUXUXUXUXUXUXUXUXUXUXUXUXUXUXUXUXUXUX",
"UXUXUXUXUXUXUXUXUXUXUXUXUXUXUXUXUXUXUXUXUXUX+ 8. X|.[.@XbXbXbXbXbXbXbXbXkX{.{. X0.< UXUXUXUXUXUXUXUXUXUXUXUXUXUXUXUXUXUXUXUXUXUX",
"UXUXUXUXUXUXUXUXUXUXUXUXUXUXUXUXUXUXUXUXUXUXO h [.{.r. XvXbXbXbXbXbXbXbX+Xr.[.}.z # UXUXUXUXUXUXUXUXUXUXUXUXUXUXUXUXUXUXUXUXUXUX",
"UXUXUXUXUXUXUXUXUXUXUXUXUXUXUXUXUXUXUXUXUXUXUX0 6.[.6.r.kXbXbXbXbXbXbXzX{.6.e.0.q UXUXUXUXUXUXUXUXUXUXUXUXUXUXUXUXUXUXUXUXUXUXUX",
"UXUXUXUXUXUXUXUXUXUXUXUXUXUXUXUXUXUXUXUXUXUXUXo a q.6.z |.zXcXbXbXbXxX+X5.5.9.x @ UXUXUXUXUXUXUXUXUXUXUXUXUXUXUXUXUXUXUXUXUXUXUX",
"UXUXUXUXUXUXUXUXUXUXUXUXUXUXUXUXUXUXUXUXUXUXUXUXt =Xl g [.+XxXbXbXvX$X}.h j h.] UXUXUXUXUXUXUXUXUXUXUXUXUXUXUXUXUXUXUXUXUXUXUXUX",
"UXUXUXUXUXUXUXUXUXUXUXUXUXUXUXUXUXUXUXUXUXUXUXUXt 1Xn i j [.@XjXjX$X}.z e c ,XO.UXUXUXUXUXUXUXUXUXUXUXUXUXUXUXUXUXUXUXUXUXUXUXUX",
"UXUXUXUXUXUXUXUXUXUXUXUXUXUXUXUXUXUXUXUXUXUXUXUX2 -X<Xv h 9. X@X@X.X0.h c XX2X` UXUXUXUXUXUXUXUXUXUXUXUXUXUXUXUXUXUXUXUXUXUXUXUX",
"UXUXUXUXUXUXUXUXUXUXUXUXUXUXUXUXUXUXUXUXUXUXUXUXUXy k.} 8 h [..X.X|.z 0 ^ k.@.UXUXUXUXUXUXUXUXUXUXUXUXUXUXUXUXUXUXUXUXUXUXUXUXUX",
"UXUXUXUXUXUXUXUXUXUXUXUXUXUXUXUXUXUXUXUXUXUXUXUXUXF.V.N.. w 0. X X[.p o 7 V.D.UXUXUXUXUXUXUXUXUXUXUXUXUXUXUXUXUXUXUXUXUXUXUXUXUX",
"UXUXUXUXUXUXUXUXUXUXUXUXUXUXUXUXUXUXUXUXUXUXUX3 D.!.!.~.B.3.a.[.{.w.d.$.T.).).R.6 UXUXUXUXUXUXUXUXUXUXUXUXUXUXUXUXUXUXUXUXUXUXUX",
"UXUXUXUXUXUXUXUXUXUXUXUXUXUXUXUXUXUXUXUXUXUXUXH.).'.'.'.uX8Xl.i.q.f.8XiX`.'.'._.G.5 UXUXUXUXUXUXUXUXUXUXUXUXUXUXUXUXUXUXUXUXUXUX",
"UXUXUXUXUXUXUXUXUXUXUXUXUXUXUXUXUXUXUXUXUXUX4 BXLXHXFXJXDXeX9Xp.@.7XwXsXKX].HXKXIXf UXUXUXUXUXUXUXUXUXUXUXUXUXUXUXUXUXUXUXUXUXUX",
"UXUXUXUXUXUXUXUXUXUXUXUXUXUXUXUXUXUXUXUXUXUXUXM.L.IXPXVX2.;.:./ ) -.-.1.uXPXLX*XM.UXUXUXUXUXUXUXUXUXUXUXUXUXUXUXUXUXUXUXUXUXUXUX",
"UXUXUXUXUXUXUXUXUXUXUXUXUXUXUXUXUXUXUXUXUXUXUXUXUXd o.z.=.L K L J J K *.z.%.d UXUXUXUXUXUXUXUXUXUXUXUXUXUXUXUXUXUXUXUXUXUXUXUXUX",
"UXUXUXUXUXUXUXUXUXUXUXUXUXUXUXUXUXUXUXUXUXUXUXUXUXUX' 5X,.G K H H H H _ 3Xd.UXUXUXUXUXUXUXUXUXUXUXUXUXUXUXUXUXUXUXUXUXUXUXUXUXUX",
"UXUXUXUXUXUXUXUXUXUXUXUXUXUXUXUXUXUXUXUXUXUXUXUXUXUX+.qXj.Q C.C.C.C.! ' qXXXUXUXUXUXUXUXUXUXUXUXUXUXUXUXUXUXUXUXUXUXUXUXUXUXUXUX",
"UXUXUXUXUXUXUXUXUXUXUXUXUXUXUXUXUXUXUXUXUXUXUXUXUXUX+.eX;XS.J.J.J.J.Z.} qXXXUXUXUXUXUXUXUXUXUXUXUXUXUXUXUXUXUXUXUXUXUXUXUXUXUXUX",
"UXUXUXUXUXUXUXUXUXUXUXUXUXUXUXUXUXUXUXUXUXUXUXUXUXUX+.wXyXA.R E E E P *.8Xg.UXUXUXUXUXUXUXUXUXUXUXUXUXUXUXUXUXUXUXUXUXUXUXUXUXUX",
"UXUXUXUXUXUXUXUXUXUXUXUXUXUXUXUXUXUXUXUXUXUXUXUXUX* ) P.Q.I.&.&.&.&.&.( >.| > UXUXUXUXUXUXUXUXUXUXUXUXUXUXUXUXUXUXUXUXUXUXUXUXUX",
"UXUXUXUXUXUXUXUXUXUXUXUXUXUXUXUXUXUXUXUXUXUXUXUXUX: P A.).NXAXAXAXAXCXY.U Y , UXUXUXUXUXUXUXUXUXUXUXUXUXUXUXUXUXUXUXUXUXUXUXUXUX",
"UXUXUXUXUXUXUXUXUXUXUXUXUXUXUXUXUXUXUXUXUXUXUXUXUX2 :X^.'.ZXgX>X>XdXgXhX9X2X[ UXUXUXUXUXUXUXUXUXUXUXUXUXUXUXUXUXUXUXUXUXUXUXUXUX",
"UXUXUXUXUXUXUXUXUXUXUXUXUXUXUXUXUXUXUXUXUXUXUXUXUX~ iX).'.SXMX4X5XfXMXMXMXrX..UXUXUXUXUXUXUXUXUXUXUXUXUXUXUXUXUXUXUXUXUXUXUXUXUX",
"UXUXUXUXUXUXUXUXUXUXUXUXUXUXUXUXUXUXUXUXUXUXUXUXUXt tX`.GXaXmXv.c.mXv.x.6X8X .UXUXUXUXUXUXUXUXUXUXUXUXUXUXUXUXUXUXUXUXUXUXUXUXUX",
"UXUXUXUXUXUXUXUXUXUXUXUXUXUXUXUXUXUXUXUXUXUXUXUXUXUXm.`.GXpXu.t.W u.y.W 4. .UXUXUXUXUXUXUXUXUXUXUXUXUXUXUXUXUXUXUXUXUXUXUXUXUXUX",
"UXUXUXUXUXUXUXUXUXUXUXUXUXUXUXUXUXUXUXUXUXUXUXUXUXUX6 E.HXK.S N M Z H V   UXUXUXUXUXUXUXUXUXUXUXUXUXUXUXUXUXUXUXUXUXUXUXUXUXUXUX",
"UXUXUXUXUXUXUXUXUXUXUXUXUXUXUXUXUXUXUXUXUXUXUXUXUXUXUXn.W.U.J M M S Y V   UXUXUXUXUXUXUXUXUXUXUXUXUXUXUXUXUXUXUXUXUXUXUXUXUXUXUX",
"UXUXUXUXUXUXUXUXUXUXUXUXUXUXUXUXUXUXUXUXUXUXUXUXUXUXUX= X.<.Y S Z L T J ; UXUXUXUXUXUXUXUXUXUXUXUXUXUXUXUXUXUXUXUXUXUXUXUXUXUXUX",
"UXUXUXUXUXUXUXUXUXUXUXUXUXUXUXUXUXUXUXUXUXUXUXUXUXUXUX- L R T S Z T T Y B X UXUXUXUXUXUXUXUXUXUXUXUXUXUXUXUXUXUXUXUXUXUXUXUXUXUX",
"UXUXUXUXUXUXUXUXUXUXUXUXUXUXUXUXUXUXUXUXUXUXUXUXUXUXUX* C F D ; = A F A ; UXUXUXUXUXUXUXUXUXUXUXUXUXUXUXUXUXUXUXUXUXUXUXUXUXUXUX",
"UXUXUXUXUXUXUXUXUXUXUXUXUXUXUXUXUXUXUXUXUXUXUXUXUXUXUXUX% & & UXUX& & & $ UXUXUXUXUXUXUXUXUXUXUXUXUXUXUXUXUXUXUXUXUXUXUXUXUXUXUX"
};
