/* XPM */
static char *_d16e91ad7914350ee2a190c78e142b1[] = {
/* columns rows colors chars-per-pixel */
"64 64 256 2 ",
"   c #131514",
".  c #1A1312",
"X  c #171D1A",
"o  c #3B1311",
"O  c #1B241F",
"+  c #222F28",
"@  c #242924",
"#  c #26332D",
"$  c #39312A",
"%  c #3F3730",
"&  c #343C31",
"*  c #411512",
"=  c #4D1C16",
"-  c #591813",
";  c #561411",
":  c #631B14",
">  c #6D1C16",
",  c #791F17",
"<  c #7A2017",
"1  c #62392D",
"2  c #643831",
"3  c #2D4139",
"4  c #674737",
"5  c #684738",
"6  c #6C493A",
"7  c #724038",
"8  c #57384F",
"9  c #452656",
"0  c #5C2A58",
"q  c #563750",
"w  c #5E375B",
"e  c #613854",
"r  c #4F2F6B",
"t  c #50306D",
"y  c #583477",
"u  c #5D3B73",
"i  c #5C377D",
"p  c #573376",
"a  c #364C41",
"s  c #384D40",
"d  c #3B5447",
"f  c #494F4D",
"g  c #4D574C",
"h  c #415552",
"j  c #4B5C50",
"k  c #525756",
"l  c #775B4E",
"z  c #785F52",
"x  c #476555",
"c  c #4F6B57",
"v  c #486759",
"b  c #456455",
"n  c #4F7161",
"m  c #537665",
"M  c #5B7B66",
"N  c #587C69",
"B  c #567966",
"V  c #627F70",
"C  c #971C14",
"Z  c #8D2219",
"A  c #912117",
"S  c #9F271B",
"D  c #9E2A1D",
"F  c #A52A1D",
"G  c #AC2F1F",
"H  c #AE3120",
"J  c #AB3C2B",
"K  c #B23423",
"L  c #BD3C2A",
"P  c #B43D2C",
"I  c #BB3B30",
"U  c #B05C16",
"Y  c #B86415",
"T  c #B74920",
"R  c #BC4F21",
"E  c #B74031",
"W  c #C4412D",
"Q  c #CD522C",
"!  c #CC5D26",
"~  c #CD4730",
"^  c #CE4830",
"/  c #CA4639",
"(  c #CE4A3B",
")  c #C04134",
"_  c #CF6425",
"`  c #D46827",
"'  c #D46727",
"]  c #8B2E51",
"[  c #8F3153",
"{  c #AA3968",
"}  c #964F41",
"|  c #8F5F4A",
" . c #855746",
".. c #9F594A",
"X. c #BD5F4D",
"o. c #8A604B",
"O. c #91604C",
"+. c #876859",
"@. c #896D5D",
"#. c #BA6253",
"$. c #B2476D",
"%. c #BA597F",
"&. c #9B7261",
"*. c #BC7F63",
"=. c #C55949",
"-. c #D2754C",
";. c #D17451",
":. c #C67564",
">. c #D77E63",
",. c #5E836E",
"<. c #6A856E",
"1. c #60856E",
"2. c #628770",
"3. c #638A74",
"4. c #678478",
"5. c #6A8C78",
"6. c #6C947B",
"7. c #DF8817",
"8. c #DF8818",
"9. c #DC8225",
"0. c #DE9E2A",
"q. c #DEA02C",
"w. c #E1B631",
"e. c #9A957E",
"r. c #A1816F",
"t. c #A58673",
"y. c #C88568",
"u. c #CA8A6D",
"i. c #C68569",
"p. c #DD876B",
"a. c #CB8771",
"s. c #D38773",
"d. c #D18C76",
"f. c #C89276",
"g. c #D29475",
"h. c #D7907A",
"j. c #D49979",
"k. c #E08A70",
"l. c #E59176",
"z. c #E3957E",
"x. c #EF9E7E",
"c. c #EC9278",
"v. c #F9A278",
"b. c #7C69A5",
"n. c #8F4699",
"m. c #8B4395",
"M. c #BD5F8A",
"N. c #94759F",
"B. c #B66C8B",
"V. c #8852B5",
"C. c #AD59BF",
"Z. c #826BAC",
"A. c #9676A1",
"S. c #9D7AA5",
"D. c #976DB4",
"F. c #9E72BC",
"G. c #A27AA4",
"H. c #C77BB9",
"J. c #9157C0",
"K. c #975CC6",
"L. c #9D5FD0",
"P. c #9E61CE",
"I. c #9F77C3",
"U. c #B673E2",
"Y. c #BD79E5",
"T. c #B875E3",
"R. c #CB79C7",
"E. c #719B83",
"W. c #75A186",
"Q. c #77A388",
"!. c #79A68A",
"~. c #7DAA8D",
"^. c #78A386",
"/. c #8A8D82",
"(. c #8E9F87",
"). c #BA9A87",
"_. c #89A98D",
"`. c #84B393",
"'. c #88B796",
"]. c #89B897",
"[. c #8CBD9B",
"{. c #91BD9B",
"}. c #A1A088",
"|. c #A8AC8D",
" X c #B18BBF",
".X c #A3A5A7",
"XX c #A6AFAD",
"oX c #ABABAE",
"OX c #C49F89",
"+X c #DE8C9C",
"@X c #DFA080",
"#X c #C8AA92",
"$X c #D6AB94",
"%X c #DDAD94",
"&X c #CFB79B",
"*X c #CFB99D",
"=X c #DBB490",
"-X c #DDBB95",
";X c #D2B89C",
":X c #E5A68E",
">X c #E4A484",
",X c #F1A383",
"<X c #FAA183",
"1X c #F1AA8A",
"2X c #F9A98C",
"3X c #EEB087",
"4X c #EFB288",
"5X c #F7B28F",
"6X c #F7AE95",
"7X c #F9AD94",
"8X c #ECB195",
"9X c #E8B899",
"0X c #F5B596",
"qX c #F4B99B",
"wX c #F9BC9D",
"eX c #F2B79B",
"rX c #DD8DA4",
"tX c #DB86BF",
"yX c #EB97AA",
"uX c #E7AEA9",
"iX c #E6ADA5",
"pX c #EBBFA4",
"aX c #F6BEA1",
"sX c #F9B1B5",
"dX c #F4B3BA",
"fX c #8FC09C",
"gX c #91C29E",
"hX c #AFC49F",
"jX c #B5C19F",
"kX c #94C6A1",
"lX c #97C9A3",
"zX c #9BCEA6",
"xX c #9CD0A7",
"cX c #9ED2A9",
"vX c #BBC8A4",
"bX c #A2D3AA",
"nX c #F5C696",
"mX c #E7C6AF",
"MX c #E9C3AA",
"NX c #F6C1A5",
"BX c #F8C1A3",
"VX c #F6C4A9",
"CX c #B38CC1",
"ZX c #E38DC1",
"AX c #E7A5C7",
"SX c #E3A2CF",
"DX c #C281E7",
"FX c #C485E9",
"GX c #CF9BE6",
"HX c #CC93ED",
"JX c #D79AE1",
"KX c #D09CE8",
"LX c #D7A0F1",
"PX c #C2CAC3",
"IX c #E3CCC8",
"UX c None",
/* pixels */
"UXUXUXUXUXUXUXUXUXUXUXUXUXUXUXUXUXUXUXUXUXUXUXUXUXUXUXUXUXUXUXUXUXUXUXUXUXUXUXUXUXUXUXUXUXUXUXUXUXUXUXUXUXUXUXUXUXUXUXUXUXUXUXUX",
"UXUXUXUXUXUXUXUXUXUXUXUXUXUXUXUXUXUXUXUXUXUXUXUXUXUXUXUXUXUXUXUXUXUXUXUXUXUXUXUXUXUXUXUXUXUXUXUXUXUXUXUXUXUXUXUXUXUXUXUXUXUXUXUX",
"UXUXUXUXUXUXUXUXUXUXUXUXUXUXUXUXUXUXUXUXUXUXUXUXUXUXUXUXUXUXUXUXUXUXUXUXUXUXUXUXUXUXUXUXUXUXUXUXUXUXUXUXUXUXUXUXUXUXUXUXUXUXUXUX",
"UXUXUXUXUXUXUXUXUXUXUXUXUXUXUXUXUXUXUXUXUXUXUXUXUXUXUXUXUXUXUXUXUXUXUXUXUXUXUXUXUXUXUXUXUXUXUXUXUXUXUXUXUXUXUXUXUXUXUXUXUXUXUXUX",
"UXUXUXUXUXUXUXUXUXUXUXUXUXUXUXUXUXUXUXUXUXUXUXUXUXUXUXUXUXUXUXUXUXUXUXUXUXUXUXUXUXUXUXUXUXUXUXUXUXUXUXUXUXUXUXUXUXUXUXUXUXUXUXUX",
"UXUXUXUXUXUXUXUXUXUXUXUXUXUXUXUXUXUXUXUXUXUXUXUXUXUXUXUXUXUXUXUXUXUXUXUXUXUXUXUXUXUXUXUXUXUXUXUXUXUXUXUXUXUXUXUXUXUXUXUXUXUXUXUX",
"UXUXUXUXUXUXUXUXUXUXUXUXUXUXUXUXUXUXUXUXUXUXUXUXUXUXUXUXUXUXUXUXUXUXUXUXUXUXUXUXUXUXUXUXUXUXUXUXUXUXUXUXUXUXUXUXUXUXUXUXUXUXUXUX",
"UXUXUXUXUXUXUXUXUXUXUXUXUXUXUXUXUXUXUXUXUXUXUXUXUXUXUXUXUXUXUXUXUXUXUXUXUXUXUXUXUXUXUXUXUXUXUXUXUXUXUXUXUXUXUXUXUXUXUXUXUXUXUXUX",
"UXUXUXUXUXUXUXUXUXUXUXUXUXUXUXUXUXUXUXUXUXUXUXUXUXUXUXUXUXUXUXUXUXUXUXUXUXUXUXUXUXUXUXUXUXUXUXUXUXUXUXUXUXUXUXUXUXUXUXUXUXUXUXUX",
"UXUXUXUXUXUXUXUXUXUXUXUXUXUXUXUXUXUXUXUXUXUXUXUXUXUXUXUXUXUXUXUXUXUXUXUXUXUXUXUXUXUXUXUXUXUXUXUXUXUXUXUXUXUXUXUXUXUXUXUXUXUXUXUX",
"UXUXUXUXUXUXUXUXUXUXUXUXUXUXUXUXUXUXUXUXUXUXUXUXUXUXUXUXUXUXUXUXUXUXUXUXUXUXUXUXUXUXUXUXUXUXUXUXUXUXUXUXUXUXUXUXUXUXUXUXUXUXUXUX",
"UXUXUXUXUXUXUXUXUXUXUXUXUXUXUXUXUXUXUXUXUXUXUXUXUXUXUXUXUXUXUXUXUXUXUXUXUXUXUXUXUXUXUXUXUXUXUXUXUXUXUXUXUXUXUXUXUXUXUXUXUXUXUXUX",
"UXUXUXUXUXUXUXUXUXUXUXUXUXUXUXUXUXUXUXUXUXUXUXUXUXUXUXUXUXUXUXUXUXUXUXUXUXUXUXUXUXUXUXUXUXUXUXUXUXUXUXUXUXUXUXUXUXUXUXUXUXUXUXUX",
"UXUXUXUXUXUXUXUXUXUXUXUXUXUXUXUXUXUXUXUXUXUXUXUXUXUXUXUXUXUXUXUXUXUXUXUXUXUXUXUXUXUXUXUXUXUXUXUXUXUXUXUXUXUXUXUXUXUXUXUXUXUXUXUX",
"UXUXUXUXUXUXUXUXUXUXUXUXUXUXUXUXUXUXUXUXUXUXUXUXUXUXUXUXUXUXUXUXUXUXUXUXUXUXUXUXUXUXUXUXUXUXUXUXUXUXUXUXUXUXUXUXUXUXUXUXUXUXUXUX",
"UXUXUXUXUXUXUXUXUXUXUXUXUXUXUXUXUXUXUXUXUXUXUXUXUXUXUXUXUXUXUXUXUXUXUXUXUXUXUXUXUXUXUXUXUXUXUXUXUXUXUXUXUXUXUXUXUXUXUXUXUXUXUXUX",
"UXUXUXUXUXUXUXUXUXUXUXUXUXUXUXUXUXUXUXUXUXUXUXUXUXUXUXUXUXUXUXUXUXUXUXUXUXUXUXUXUXUXUXUXUXUXUXUXUXUXUXUXUXUXUXUXUXUXUXUXUXUXUXUX",
"UXUXUXUXUXUXUXUXUXUXUXUXUXUXUXUXUXUXUXUXUXUXUXUXUXUXUXUXUXUXUXUXUXUXUXUXUXUXUXUXUXUXUXUXUXUXUXUXUXUXUXUXUXUXUXUXUXUXUXUXUXUXUXUX",
"UXUXUXUXUXUXUXUXUXUXUXUXUXUXUXUXUXUXUXUXUXUXUXUXUXUXUXUXUXUXUXUXUXUXUXUXUXUXUXUXUXUXUXUXUXUXUXUXUXUXUXUXUXUXUXUXUXUXUXUXUXUXUXUX",
"UXUXUXUXUXUXUXUXUXUXUXUXUXUXUXUXUXUXUXUXUXUXUXUXUXUXUXUXUXUXUXUXUXUXUXUXUXUXUXUXUXUXUXUXUXUXUXUXUXUXUXUXUXUXUXUXUXUXUXUXUXUXUXUX",
"UXUXUXUXUXUXUXUXUXUXUXUXUXUXUXUXUXUXUXUXUXUXUXUXUXUXUXUXUXUXUXUXUXUXUXUXUXUXUXUXUXUXUXUXUXUXUXUXUXUXUXUXUXUXUXUXUXUXUXUXUXUXUXUX",
"UXUXUXUXUXUXUXUXUXUXUXUXUXUXUXUXUXUXUXUXUXUXUXUXUXUXUXUXUXUXUXUXUXUXUXUXUXUXUXUXUXUXUXUXUXUXUXUXUXUXUXUXUXUXUXUXUXUXUXUXUXUXUXUX",
"UXUXUXUXUXUXUXUXUXUXUXUXUXUXUXUXUXUXUXUXUXUXUXUXUXUXUXUXUXUXUXUXUXUXUXUXUXUXUXUXUXUXUXUXUXUXUXUXUXUXUXUXUXUXUXUXUXUXUXUXUXUXUXUX",
"UXUXUXUXUXUXUXUXUXUXUXUXUXUXUXUXUXUXUXUXUXUXUXUXUXUXUXUXUXUXUXUXUXUXUXUXUXUXUXUXUXUXUXUXUXUXUXUXUXUXUXUXUXUXUXUXUXUXUXUXUXUXUXUX",
"UXUXUXUXUXUXUXUXUXUXUXUXUXUXUXUXUXUXUXUXUXUXUXUXUXUXUXUXUXUXt u u t UXUXUXUXUXUXUXUXUXUXUXUXUXUXUXUXUXUXUXUXUXUXUXUXUXUXUXUXUXUX",
"UXUXUXUXUXUXUXUXUXUXUXUXUXUXUXUXUXUXUXUXUXUXUXUXUXUXUXUX3 h Z.I.I.b.h 3 UXUXUXUXUXUXUXUXUXUXUXUXUXUXUXUXUXUXUXUXUXUXUXUXUXUXUXUX",
"UXUXUXUXUXUXUXUXUXUXUXUXUXUXUXUXUXUXUXUXUXUXUXUXUXUX3 x 3.!.~.E.E.~.!.3.x UXUXUXUXUXUXUXUXUXUXUXUXUXUXUXUXUXUXUXUXUXUXUXUXUXUXUX",
"UXUXUXUXUXUXUXUXUXUXUXUXUXUXUXUXUXUXUXUXUXUXUXUXUXUXm W.[.lXlX[.{.lXlXkX~.2.UXUXUXUXUXUXUXUXUXUXUXUXUXUXUXUXUXUXUXUXUXUXUXUXUXUX",
"UXUXUXUXUXUXUXUXUXUXUXUXUXUXUXUXUXUXUXUXUXUXUXUX# n !.fXxXcXcXxXcXcXcXbXzX].m + UXUXUXUXUXUXUXUXUXUXUXUXUXUXUXUXUXUXUXUXUXUXUXUX",
"UXUXUXUXUXUXUXUXUXUXUXUXUXUXUXUXUXUXUXUXUXUXUXUXs E.[.zXcXcXcXcXcXcXcXcXcXgXW.s UXUXUXUXUXUXUXUXUXUXUXUXUXUXUXUXUXUXUXUXUXUXUXUX",
"UXUXUXUXUXUXUXUXUXUXUXUXUXUXUXUXUXUXUXUXUXUXUXX N `.kXcXcXcXcXxX[.[.cXcXcXgX'.,.UXUXUXUXUXUXUXUXUXUXUXUXUXUXUXUXUXUXUXUXUXUXUXUX",
"UXUXUXUXUXUXUXUXUXUXUXUXUXUXUXUXUXUXUXUXUXUXUXa W.].lXcXcXhXvXjX|.|.cXcXxX`.].6.X UXUXUXUXUXUXUXUXUXUXUXUXUXUXUXUXUXUXUXUXUXUXUX",
"UXUXUXUXUXUXUXUXUXUXUXUXUXUXUXUXUXUXUXUXUXUXUXM `.`.cXcXcX-XwXVX0X-XbXbXzX_.~.6.  UXUXUXUXUXUXUXUXUXUXUXUXUXUXUXUXUXUXUXUXUXUXUX",
"UXUXUXUXUXUXUXUXUXUXUXUXUXUXUXUXUXUXUXUXUXUXM ^.!.[.cXcXcX-XaXVXBX-XzXbXxX`.E.,.  UXUXUXUXUXUXUXUXUXUXUXUXUXUXUXUXUXUXUXUXUXUXUX",
"UXUXUXUXUXUXUXUXUXUXUXUXUXUXUXUXUXUXUXUXUXc ~.^.'.xXbXcX[.=XBXVXBX=X{.xXcXlX3.b   UXUXUXUXUXUXUXUXUXUXUXUXUXUXUXUXUXUXUXUXUXUXUX",
"UXUXUXUXUXUXUXUXUXUXUXUXUXUXUXUXUXUXUXUXUXUXx ,.kXcXlX!.N u.wXVXaXd.<.].zXcX~.d UXUXUXUXUXUXUXUXUXUXUXUXUXUXUXUXUXUXUXUXUXUXUXUX",
"UXUXUXUXUXUXUXUXUXUXUXUXUXUXUXUXUXUXUXUXUXUXO B kXxX!.B # 6 %XVX9X .& B ~.zXkX,.UXUXUXUXUXUXUXUXUXUXUXUXUXUXUXUXUXUXUXUXUXUXUXUX",
"UXUXUXUXUXUXUXUXUXUXUXUXUXUXUXUXUXUXUXUXUXUXUXv `.kX3.f f % $XVXVXf.$ k 2.`.kX6.  UXUXUXUXUXUXUXUXUXUXUXUXUXUXUXUXUXUXUXUXUXUXUX",
"UXUXUXUXUXUXUXUXUXUXUXUXUXUXUXUXUXUXUXUXUXUXUX+ E.`.4..XXXg $XVXVX$Xj oX.X5.`.6.  UXUXUXUXUXUXUXUXUXUXUXUXUXUXUXUXUXUXUXUXUXUXUX",
"UXUXUXUXUXUXUXUXUXUXUXUXUXUXUXUXUXUXUXUXUXUXUX@ }._./.IXPX<.$XVXVX*X5.PXIX).(.e.  UXUXUXUXUXUXUXUXUXUXUXUXUXUXUXUXUXUXUXUXUXUXUX",
"UXUXUXUXUXUXUXUXUXUXUXUXUXUXUXUXUXUXUXUXUXUXUXUXt.#Xa.6XmX&XMXVXVXMX&XmX7Xc.OXr.UXUXUXUXUXUXUXUXUXUXUXUXUXUXUXUXUXUXUXUXUXUXUXUX",
"UXUXUXUXUXUXUXUXUXUXUXUXUXUXUXUXUXUXUXUXUXUXUXUXUX&.X.i.qXVXVXVXVXVXVX0Xy.X.&.UXUXUXUXUXUXUXUXUXUXUXUXUXUXUXUXUXUXUXUXUXUXUXUXUX",
"UXUXUXUXUXUXUXUXUXUXUXUXUXUXUXUXUXUXUXUXUXUXUXUXUX9 0 8 o.j.qXNXNXqXg. .q 0 9 UXUXUXUXUXUXUXUXUXUXUXUXUXUXUXUXUXUXUXUXUXUXUXUXUX",
"UXUXUXUXUXUXUXUXUXUXUXUXUXUXUXUXUXUXUXUXUXUXUXUXi J.L.V.e | h.2X2Xd.O.w V.L.J.y UXUXUXUXUXUXUXUXUXUXUXUXUXUXUXUXUXUXUXUXUXUXUXUX",
"UXUXUXUXUXUXUXUXUXUXUXUXUXUXUXUXUXUXUXUXUXUXUXy P.T.Y.T.H.1XNXNXVXwX1XH.U.Y.U.K.y UXUXUXUXUXUXUXUXUXUXUXUXUXUXUXUXUXUXUXUXUXUXUX",
"UXUXUXUXUXUXUXUXUXUXUXUXUXUXUXUXUXUXUXUXUXUXUXF.HXDXY.FXAXwXNXVXVXVXwXSXFXY.DXHXD.UXUXUXUXUXUXUXUXUXUXUXUXUXUXUXUXUXUXUXUXUXUXUX",
"UXUXUXUXUXUXUXUXUXUXUXUXUXUXUXUXUXUXUXUXUXUXUXS.CXKXLXJX+Xl.l.z.z.z.l.rXJXLXGXCXA.UXUXUXUXUXUXUXUXUXUXUXUXUXUXUXUXUXUXUXUXUXUXUX",
"UXUXUXUXUXUXUXUXUXUXUXUXUXUXUXUXUXUXUXUXUXUXUXUXUXN.G.B.W ^ ~ ~ ~ ~ ~ E B.S.A.UXUXUXUXUXUXUXUXUXUXUXUXUXUXUXUXUXUXUXUXUXUXUXUXUX",
"UXUXUXUXUXUXUXUXUXUXUXUXUXUXUXUXUXUXUXUXUXUXUXUXUXUX7 #.J L L L L L L J #.2 UXUXUXUXUXUXUXUXUXUXUXUXUXUXUXUXUXUXUXUXUXUXUXUXUXUX",
"UXUXUXUXUXUXUXUXUXUXUXUXUXUXUXUXUXUXUXUXUXUXUXUXUXUX+.8Xi.[ { $.$.{ ] y.8Xl UXUXUXUXUXUXUXUXUXUXUXUXUXUXUXUXUXUXUXUXUXUXUXUXUXUX",
"UXUXUXUXUXUXUXUXUXUXUXUXUXUXUXUXUXUXUXUXUXUXUXUXUXUX@.qXy.n.C.R.R.C.m.g.qXz UXUXUXUXUXUXUXUXUXUXUXUXUXUXUXUXUXUXUXUXUXUXUXUXUXUX",
"UXUXUXUXUXUXUXUXUXUXUXUXUXUXUXUXUXUXUXUXUXUXUXUXUXUX@.8X>.I / ( ( / I p.8Xz UXUXUXUXUXUXUXUXUXUXUXUXUXUXUXUXUXUXUXUXUXUXUXUXUXUX",
"UXUXUXUXUXUXUXUXUXUXUXUXUXUXUXUXUXUXUXUXUXUXUXUXUXUX..s.=.W ^ ^ ^ ^ W =.s.} UXUXUXUXUXUXUXUXUXUXUXUXUXUXUXUXUXUXUXUXUXUXUXUXUXUX",
"UXUXUXUXUXUXUXUXUXUXUXUXUXUXUXUXUXUXUXUXUXUXUXUXUX= I P M.tXZXZXZXZXtX%.E P = UXUXUXUXUXUXUXUXUXUXUXUXUXUXUXUXUXUXUXUXUXUXUXUXUX",
"UXUXUXUXUXUXUXUXUXUXUXUXUXUXUXUXUXUXUXUXUXUXUXUXUX1 l.:XiXdXsXyXyXsXdXiX:Xk.1 UXUXUXUXUXUXUXUXUXUXUXUXUXUXUXUXUXUXUXUXUXUXUXUXUX",
"UXUXUXUXUXUXUXUXUXUXUXUXUXUXUXUXUXUXUXUXUXUXUXUXUX5 5XVXVXNXaX<X<XBXNXVXNX1X6 UXUXUXUXUXUXUXUXUXUXUXUXUXUXUXUXUXUXUXUXUXUXUXUXUX",
"UXUXUXUXUXUXUXUXUXUXUXUXUXUXUXUXUXUXUXUXUXUXUXUXUX5 >X0Xx.3XnXv.v.nX4Xx.0Xz.4 UXUXUXUXUXUXUXUXUXUXUXUXUXUXUXUXUXUXUXUXUXUXUXUXUX",
"UXUXUXUXUXUXUXUXUXUXUXUXUXUXUXUXUXUXUXUXUXUXUXUXUXUX .:.-.q.w.9.9.w.0.;.:. .UXUXUXUXUXUXUXUXUXUXUXUXUXUXUXUXUXUXUXUXUXUXUXUXUXUX",
"UXUXUXUXUXUXUXUXUXUXUXUXUXUXUXUXUXUXUXUXUXUXUXUXUXUXUX. , K G C C K K > . UXUXUXUXUXUXUXUXUXUXUXUXUXUXUXUXUXUXUXUXUXUXUXUXUXUXUX",
"UXUXUXUXUXUXUXUXUXUXUXUXUXUXUXUXUXUXUXUXUXUXUXUXUXUXUXUX< L K C C K L > UXUXUXUXUXUXUXUXUXUXUXUXUXUXUXUXUXUXUXUXUXUXUXUXUXUXUXUX",
"UXUXUXUXUXUXUXUXUXUXUXUXUXUXUXUXUXUXUXUXUXUXUXUXUXUXUX: Y 8.! F F _ 7.U : UXUXUXUXUXUXUXUXUXUXUXUXUXUXUXUXUXUXUXUXUXUXUXUXUXUXUX",
"UXUXUXUXUXUXUXUXUXUXUXUXUXUXUXUXUXUXUXUXUXUXUXUXUXUXUX> R ` Q D F Q ` T : UXUXUXUXUXUXUXUXUXUXUXUXUXUXUXUXUXUXUXUXUXUXUXUXUXUXUX",
"UXUXUXUXUXUXUXUXUXUXUXUXUXUXUXUXUXUXUXUXUXUXUXUXUXUXUX; Z F D - - D F A - UXUXUXUXUXUXUXUXUXUXUXUXUXUXUXUXUXUXUXUXUXUXUXUXUXUXUX",
"UXUXUXUXUXUXUXUXUXUXUXUXUXUXUXUXUXUXUXUXUXUXUXUXUXUXUXUXo * o UXUX* * o UXUXUXUXUXUXUXUXUXUXUXUXUXUXUXUXUXUXUXUXUXUXUXUXUXUXUXUX"
};
