/* XPM */
static char *c39a6284fc2646aeb8b4846e9916c978[] = {
/* columns rows colors chars-per-pixel */
"40 70 2 1 ",
"  c black",
". c None",
/* pixels */
"........................................",
"........................................",
"........................................",
"........................................",
"........................................",
"........................................",
"........................................",
"........................................",
"........................................",
"........................................",
"........................................",
"........................................",
".......     ............................",
".....         ..........................",
"....           .........................",
"...            .........................",
"...             ........................",
"..              ........................",
"..              ........................",
"..              ........................",
"..              ........................",
"...             ........................",
"...            .........................",
"....           .........................",
".....        ...........................",
".......     ............................",
"........   .............................",
"........   .............................",
".......    .............................",
".......     ............................",
"......      ............................",
"......       ...........................",
"......       ...........................",
".....         ..........................",
".....         ..........................",
"....   .      ..........................",
"....   .   .   .........................",
"...    .   .   .........................",
"...   ..   .    ........................",
"...   ..   ..   ........................",
"..   ...   ..   ........................",
"..   ...   ...   .......................",
".   ...    ...   .......................",
".   ...     ...   ......................",
"    ..      ...   ......................",
"   ...       ..   ......................",
". ....   .   ... .......................",
".....   ..   ...........................",
".....   ...   ..........................",
".....   ...   ..........................",
"....   ....   ..........................",
"....   .....   .........................",
"...   ......   .........................",
"...   .......   ........................",
"...   .......   ........................",
"...   .......   ........................",
"...   .......   ........................",
"...   .......   ........................",
"...   .......   ........................",
"...   .......   ........................",
"...   .......   ........................",
"...   .......   ........................",
"...   .......   ........................",
"...   .......   ........................",
"...   .......   ........................",
"...   .......   ........................",
"..   ........   ........................",
".    .........    ......................",
"    ...........   ......................",
".  .............  ......................"
};
