/* XPM */
static char *_542903043363[] = {
/* columns rows colors chars-per-pixel */
"40 70 3 1 ",
"  c black",
". c white",
"X c None",
/* pixels */
"XXXXXXXXXXXXXXXXXXXXXXXXXXXXXXXXXXXXXXXX",
"XXXXXXXXXXXXXXXXXXXXXXXXXXXXXXXXXXXXXXXX",
"XXXXXXXXXXXXXXXXXXXXXXXXXXXXXXXXXXXXXXXX",
"XXXXXXXXXXXXXXXXXXXXXXXXXXXXXXXXXXXXXXXX",
"XXXXXXXXXXXXXXXXXXXXXXXXXXXXXXXXXXXXXXXX",
"XXXXXXXXXXXXXXXXXXXXXXXXXXXXXXXXXXXXXXXX",
"XXXXXXXXXXXXXXXXXXXXXXXXXXXXXXXXXXXXXXXX",
"XXXXXXXXXXXXXXXXXXXXXXXXXXXXXXXXXXXXXXXX",
"XXXXXXXXXXXXXXXXXXXXXXXXXXXXXXXXXXXXXXXX",
"XXXXXXXXXXXXXXXXXXXXXXXXXXXXXXXXXXXXXXXX",
"XXXXXXXXXXXXXXXXXXXXXXXXXXXXXXXXXXXXXXXX",
"XXXXXXX.....XXXXXXXXXXXXXXXXXXXXXXXXXXXX",
"XXXXX..     ..XXXXXXXXXXXXXXXXXXXXXXXXXX",
"XXXX.         .XXXXXXXXXXXXXXXXXXXXXXXXX",
"XXX.           .XXXXXXXXXXXXXXXXXXXXXXXX",
"XX.            .XXXXXXXXXXXXXXXXXXXXXXXX",
"XX.             .XXXXXXXXXXXXXXXXXXXXXXX",
"X.              .XXXXXXXXXXXXXXXXXXXXXXX",
"X.              .XXXXXXXXXXXXXXXXXXXXXXX",
"X.              .XXXXXXXXXXXXXXXXXXXXXXX",
"X.              .XXXXXXXXXXXXXXXXXXXXXXX",
"XX.             .XXXXXXXXXXXXXXXXXXXXXXX",
"XX.            .XXXXXXXXXXXXXXXXXXXXXXXX",
"XXX.           .XXXXXXXXXXXXXXXXXXXXXXXX",
"XXXX.        ..XXXXXXXXXXXXXXXXXXXXXXXXX",
"XXXXX..     .XXXXXXXXXXXXXXXXXXXXXXXXXXX",
"XXXXXXX.   .XXXXXXXXXXXXXXXXXXXXXXXXXXXX",
"XXXXXXX.   .XXXXXXXXXXXXXXXXXXXXXXXXXXXX",
"XXXXXX.    .XXXXXXXXXXXXXXXXXXXXXXXXXXXX",
"XXXXXX.     .XXXXXXXXXXXXXXXXXXXXXXXXXXX",
"XXXXX.      .XXXXXXXXXXXXXXXXXXXXXXXXXXX",
"XXXXX.       .XXXXXXXXXXXXXXXXXXXXXXXXXX",
"XXXXX.       .XXXXXXXXXXXXXXXXXXXXXXXXXX",
"XXXX.         .XXXXXXXXXXXXXXXXXXXXXXXXX",
"XXXX.         .XXXXXXXXXXXXXXXXXXXXXXXXX",
"XXX.   .      .XXXXXXXXXXXXXXXXXXXXXXXXX",
"XXX.   .   .   .XXXXXXXXXXXXXXXXXXXXXXXX",
"XX.    .   .   .XXXXXXXXXXXXXXXXXXXXXXXX",
"XX.   ..   .    .XXXXXXXXXXXXXXXXXXXXXXX",
"XX.   ..   ..   .XXXXXXXXXXXXXXXXXXXXXXX",
"X.   .X.   ..   .XXXXXXXXXXXXXXXXXXXXXXX",
"X.   .X.   .X.   .XXXXXXXXXXXXXXXXXXXXXX",
".   .X.    .X.   .XXXXXXXXXXXXXXXXXXXXXX",
".   .X.     .X.   .XXXXXXXXXXXXXXXXXXXXX",
".  .X.      .X.   .XXXXXXXXXXXXXXXXXXXXX",
".  .X.       ..   .XXXXXXXXXXXXXXXXXXXXX",
". .XX.   .   .X. .XXXXXXXXXXXXXXXXXXXXXX",
"X.XX.   ..   .XX.XXXXXXXXXXXXXXXXXXXXXXX",
"XXXX.   .X.   .XXXXXXXXXXXXXXXXXXXXXXXXX",
"XXXX.   .X.   .XXXXXXXXXXXXXXXXXXXXXXXXX",
"XXX.   .XX.   .XXXXXXXXXXXXXXXXXXXXXXXXX",
"XXX.   .XXX.   .XXXXXXXXXXXXXXXXXXXXXXXX",
"XX.   .XXXX.   .XXXXXXXXXXXXXXXXXXXXXXXX",
"XX.   .XXXXX.   .XXXXXXXXXXXXXXXXXXXXXXX",
"XX.   .XXXXX.   .XXXXXXXXXXXXXXXXXXXXXXX",
"XX.   .XXXXX.   .XXXXXXXXXXXXXXXXXXXXXXX",
"XX.   .XXXXX.   .XXXXXXXXXXXXXXXXXXXXXXX",
"XX.   .XXXXX.   .XXXXXXXXXXXXXXXXXXXXXXX",
"XX.   .XXXXX.   .XXXXXXXXXXXXXXXXXXXXXXX",
"XX.   .XXXXX.   .XXXXXXXXXXXXXXXXXXXXXXX",
"XX.   .XXXXX.   .XXXXXXXXXXXXXXXXXXXXXXX",
"XX.   .XXXXX.   .XXXXXXXXXXXXXXXXXXXXXXX",
"XX.   .XXXXX.   .XXXXXXXXXXXXXXXXXXXXXXX",
"XX.   .XXXXX.   .XXXXXXXXXXXXXXXXXXXXXXX",
"XX.   .XXXXX.   .XXXXXXXXXXXXXXXXXXXXXXX",
"XX.   .XXXXX.   .XXXXXXXXXXXXXXXXXXXXXXX",
"X.   .XXXXXX.   ..XXXXXXXXXXXXXXXXXXXXXX",
".    .XXXXXXX.    .XXXXXXXXXXXXXXXXXXXXX",
".   .XXXXXXXXX.   .XXXXXXXXXXXXXXXXXXXXX",
"XXXXXXXXXXXXXXXXXXXXXXXXXXXXXXXXXXXXXXXX"
};
