/* XPM */
static char *_1a4f099dc7141c2f75894ea0f992895[] = {
/* columns rows colors chars-per-pixel */
"40 70 30 1 ",
"  c black",
". c #000D0D",
"X c gray8",
"o c #1B1B1B",
"O c #252525",
"+ c #2F2F2F",
"@ c #373737",
"# c #3C3C3C",
"$ c #434343",
"% c gray31",
"& c #555555",
"* c gray36",
"= c #656565",
"- c gray44",
"; c #777777",
": c gray50",
"> c #8E8E8E",
", c gray58",
"< c #A0A0A0",
"1 c gray66",
"2 c #AEAEAE",
"3 c #B4B4B4",
"4 c #C1C1C1",
"5 c #C8C8C8",
"6 c #D0D0D0",
"7 c gray84",
"8 c #DFDFDF",
"9 c gray91",
"0 c #EFEFEF",
"q c None",
/* pixels */
"qqqqqqqqqqqqqqqqqqqqqqqqqqqqqqqqqqqqqqqq",
"qqqqqqqqqqqqqqqqqqqqqqqqqqqqqqqqqqqqqqqq",
"qqqqqqqqqqqqqqqqqqqqqqqqqqqqqqqqqqqqqqqq",
"qqqqqqqqqqqqqqqqqqqqqqqqqqqqqqqqqqqqqqqq",
"qqqqqqqqqqqqqqqqqqqqqqqqqqqqqqqqqqqqqqqq",
"qqqqqqqqqqqqqqqqqqqqqqqqqqqqqqqqqqqqqqqq",
"qqqqqqqqqqqqqqqqqqqqqqqqqqqqqqqqqqqqqqqq",
"qqqqqqqqqqqqqqqqqqqqqqqqqqqqqqqqqqqqqqqq",
"qqqqqqqqqqqqqqqqqqqqqqqqqqqqqqqqqqqqqqqq",
"qqqqqqqqqqqqqqqqqqqqqqqqqqqqqqqqqqqqqqqq",
"qqqqqqqqqqqqqqqqqqqqqqqqqqqqqqqqqqqqqqqq",
"qqqqqqqqqqqqqqqqqqqqqqqqqqqqqqqqqqqqqqqq",
"qqqqqqq23334qqqqqqqqqqqqqqqqqqqqqqqqqqqq",
"qqqqq4      o9qqqqqqqqqqqqqqqqqqqqqqqqqq",
"qqqq&         3qqqqqqqqqqqqqqqqqqqqqqqqq",
"qqq4          Xqqqqqqqqqqqqqqqqqqqqqqqqq",
"qqq          . *qqqqqqqqqqqqqqqqqqqqqqqq",
"qq<             qqqqqqqqqqqqqqqqqqqqqqqq",
"qq1             qqqqqqqqqqqqqqqqqqqqqqqq",
"qq<             qqqqqqqqqqqqqqqqqqqqqqqq",
"qq4            Oqqqqqqqqqqqqqqqqqqqqqqqq",
"qqq          . :qqqqqqqqqqqqqqqqqqqqqqqq",
"qqq5          oqqqqqqqqqqqqqqqqqqqqqqqqq",
"qqqq-  .....  5qqqqqqqqqqqqqqqqqqqqqqqqq",
"qqqqq6      %qqqqqqqqqqqqqqqqqqqqqqqqqqq",
"qqqqqqq6  -7qqqqqqqqqqqqqqqqqqqqqqqqqqqq",
"qqqqqqqq  ,qqqqqqqqqqqqqqqqqqqqqqqqqqqqq",
"qqqqqqqq  ,qqqqqqqqqqqqqqqqqqqqqqqqqqqqq",
"qqqqqqq8  +qqqqqqqqqqqqqqqqqqqqqqqqqqqqq",
"qqqqqqq*   5qqqqqqqqqqqqqqqqqqqqqqqqqqqq",
"qqqqqq7    +qqqqqqqqqqqqqqqqqqqqqqqqqqqq",
"qqqqqq;     8qqqqqqqqqqqqqqqqqqqqqqqqqqq",
"qqqqqq      :qqqqqqqqqqqqqqqqqqqqqqqqqqq",
"qqqqq> =  -  0qqqqqqqqqqqqqqqqqqqqqqqqqq",
"qqqqq  8  <: <qqqqqqqqqqqqqqqqqqqqqqqqqq",
"qqqq6 oq  <5  qqqqqqqqqqqqqqqqqqqqqqqqqq",
"qqqq$ 1q  ,q# 4qqqqqqqqqqqqqqqqqqqqqqqqq",
"qqq0  8q  ,q> -qqqqqqqqqqqqqqqqqqqqqqqqq",
"qqq> -qq  ,q0  8qqqqqqqqqqqqqqqqqqqqqqqq",
"qqq  9qq  ,qq: ;qqqqqqqqqqqqqqqqqqqqqqqq",
"qq4 Oqqq  ,qq6 Xqqqqqqqqqqqqqqqqqqqqqqqq",
"qqo 4qqq  ,qqq$ 1qqqqqqqqqqqqqqqqqqqqqqq",
"q5 @qqq4   qqq6  qqqqqqqqqqqqqqqqqqqqqqq",
"q; :qqq=   6qqq  7qqqqqqqqqqqqqqqqqqqqqq",
"9  0qq8 o> $qqq< &qqqqqqqqqqqqqqqqqqqqqq",
"9 +qqq< &0  0qq8 *qqqqqqqqqqqqqqqqqqqqqq",
"q9qqqq  7q- >qqq8qqqqqqqqqqqqqqqqqqqqqqq",
"qqqqq6  qq4 #qqqqqqqqqqqqqqqqqqqqqqqqqqq",
"qqqqq> >qqq  9qqqqqqqqqqqqqqqqqqqqqqqqqq",
"qqqqq  8qqq; -qqqqqqqqqqqqqqqqqqqqqqqqqq",
"qqqq4 *qqqq0  qqqqqqqqqqqqqqqqqqqqqqqqqq",
"qqqq@ 2qqqqq$ 1qqqqqqqqqqqqqqqqqqqqqqqqq",
"qqq8 Xqqqqqq4 $qqqqqqqqqqqqqqqqqqqqqqqqq",
"qqq: ;qqqqqqqX 8qqqqqqqqqqqqqqqqqqqqqqqq",
"qqq: 2qqqqqqq+ 8qqqqqqqqqqqqqqqqqqqqqqqq",
"qqq: 2qqqqqqq+ 8qqqqqqqqqqqqqqqqqqqqqqqq",
"qqq: 2qqqqqqq+ 8qqqqqqqqqqqqqqqqqqqqqqqq",
"qqq: 2qqqqqqq+ 8qqqqqqqqqqqqqqqqqqqqqqqq",
"qqq: 2qqqqqqq+ 8qqqqqqqqqqqqqqqqqqqqqqqq",
"qqq: 2qqqqqqq+ 8qqqqqqqqqqqqqqqqqqqqqqqq",
"qqq: 2qqqqqqq+ 8qqqqqqqqqqqqqqqqqqqqqqqq",
"qqq: 2qqqqqqq+ 8qqqqqqqqqqqqqqqqqqqqqqqq",
"qqq: 2qqqqqqq+ 8qqqqqqqqqqqqqqqqqqqqqqqq",
"qqq: 2qqqqqqq+ 8qqqqqqqqqqqqqqqqqqqqqqqq",
"qqq: 1qqqqqqq+ 8qqqqqqqqqqqqqqqqqqqqqqqq",
"qqq- 4qqqqqqq$ 6qqqqqqqqqqqqqqqqqqqqqqqq",
"qq9  qqqqqqqq2 &qqqqqqqqqqqqqqqqqqqqqqqq",
"q4  3qqqqqqqqq$ -9qqqqqqqqqqqqqqqqqqqqqq",
"8  3qqqqqqqqqqq& @qqqqqqqqqqqqqqqqqqqqqq",
"q>3qqqqqqqqqqqqq;4qqqqqqqqqqqqqqqqqqqqqq"
};
