/* XPM */
static char *adb878caa6524400aa97b9ceecbdb023[] = {
/* columns rows colors chars-per-pixel */
"64 64 201 2 ",
"   c black",
".  c #010101",
"X  c #020000",
"o  c #000201",
"O  c #010003",
"+  c #000303",
"@  c #020202",
"#  c #050000",
"$  c #050100",
"%  c #020005",
"&  c #040404",
"*  c #060606",
"=  c #070707",
"-  c #0D0000",
";  c #080004",
":  c #080204",
">  c #000B01",
",  c #000F0D",
"<  c gray4",
"1  c #0E0E0B",
"2  c #0F0F0C",
"3  c #0E0E0E",
"4  c gray6",
"5  c #100E0A",
"6  c #0E1F0C",
"7  c #13130E",
"8  c #0C0F11",
"9  c #0E1111",
"0  c #0D1515",
"q  c #0C1A1B",
"w  c #101010",
"e  c #111111",
"r  c #111112",
"t  c #131615",
"y  c #121517",
"u  c gray8",
"i  c #151414",
"p  c #141415",
"a  c #151515",
"s  c #171714",
"d  c gray9",
"f  c #191411",
"g  c #131817",
"h  c #1C1A16",
"j  c #121419",
"k  c #161619",
"l  c #14161B",
"z  c #151C1F",
"x  c #181818",
"c  c #191818",
"v  c #191919",
"b  c #1A1919",
"n  c #1B1B1B",
"m  c #1B1E1D",
"M  c #191C1E",
"N  c #1B1E1E",
"B  c gray11",
"V  c #1D1D1D",
"C  c #1E1E1E",
"Z  c gray12",
"A  c #21160F",
"S  c #231E18",
"D  c #1B230F",
"F  c #15251B",
"G  c #1C201A",
"H  c #162B1F",
"J  c #0A331E",
"K  c #23211D",
"L  c #20211E",
"P  c #1E0A20",
"I  c #1F1C20",
"U  c #1C1F21",
"Y  c #0F2525",
"T  c #0F2D23",
"R  c #0C2C27",
"E  c #1A2126",
"W  c #182627",
"Q  c #1C2525",
"!  c #152827",
"~  c #192826",
"^  c #1A2927",
"/  c #19262A",
"(  c #19272B",
")  c #162928",
"_  c #172A29",
"`  c #152B2C",
"'  c #192B28",
"]  c #1B2A28",
"[  c #182B2A",
"{  c #1F2E2C",
"}  c #1C2D2F",
"|  c #0F3427",
" . c #152633",
".. c #1A2A30",
"X. c #1E2F31",
"o. c #1C2E33",
"O. c #1D2139",
"+. c #1D3031",
"@. c #1F3231",
"#. c #1F3032",
"$. c #1E3132",
"%. c #1F3233",
"&. c #1A3F3E",
"*. c #212020",
"=. c gray13",
"-. c #232323",
";. c #262324",
":. c #272B25",
">. c #202E2F",
",. c #2E2C34",
"<. c #203133",
"1. c #263432",
"2. c #213435",
"3. c #293A3C",
"4. c #293C3D",
"5. c #2A3D3E",
"6. c #2B3E3F",
"7. c #313F3A",
"8. c #313E3F",
"9. c #2D443D",
"0. c #36433C",
"q. c #33483E",
"w. c #293B40",
"e. c #2C3F40",
"r. c #244442",
"t. c #2D4041",
"y. c #2E4142",
"u. c #2F4641",
"i. c #2D4444",
"p. c #2F4D40",
"a. c #2B4D47",
"s. c #2E4F47",
"d. c #23454A",
"f. c #2D4548",
"g. c #274848",
"h. c #2E4A49",
"j. c #2D494B",
"k. c #2F4A4C",
"l. c #354344",
"z. c #304646",
"x. c #354646",
"c. c #304D44",
"v. c #3A4944",
"b. c #3E4D45",
"n. c #3E4C47",
"m. c #344748",
"M. c #39464A",
"N. c #344A4B",
"B. c #374A4B",
"V. c #354E4B",
"C. c #31494C",
"Z. c #33494D",
"A. c #354C4D",
"S. c #344C4F",
"D. c #3D4C48",
"F. c #39504B",
"G. c #3F534D",
"H. c #254A55",
"J. c #2C4A53",
"K. c #334E50",
"L. c #334C5D",
"P. c #2C545E",
"I. c #355751",
"U. c #365757",
"Y. c #395557",
"T. c #4D504F",
"R. c #50504B",
"E. c #51524F",
"W. c #435753",
"Q. c #525350",
"!. c #565450",
"~. c #5D7675",
"^. c #6B7B73",
"/. c #617E7A",
"(. c #657A7E",
"). c #64817F",
"_. c #64857D",
"`. c #6E8379",
"'. c #6E827E",
"]. c #637E86",
"[. c #697B82",
"{. c #6C7F81",
"}. c #5B8284",
"|. c #658180",
" X c #678381",
".X c #648082",
"XX c #658583",
"oX c #658086",
"OX c #668286",
"+X c #6A8382",
"@X c #6E8880",
"#X c #61838A",
"$X c #668088",
"%X c #618689",
"&X c #68878C",
"*X c #6D848D",
"=X c #6D888A",
"-X c #738A83",
";X c #738A85",
":X c #70888D",
">X c None",
/* pixels */
">X>X>X>X>X>X>X>X>X>X>X>X>X>X>X>X>X>X>X>X>X>X>X>X>X>X>X>X>X>X>X>X>X>X>X>X>X>X>X>X>X>X>X>X>X>X>X>X>X>X>X>X>X>X>X>X>X>X>X>X>X>X>X>X",
">X>X>X>X>X>X>X>X>X>X>X>X>X>X>X>X>X>X>X>X>X>X>X>X>X>X>X>X>X>X>X>X>X>X>X>X>X>X>X>X>X>X>X>X>X>X>X>X>X>X>X>X>X>X>X>X>X>X>X>X>X>X>X>X",
">X>X>X>X>X>X>X>X>X>X>X>X>X>X>X>X>X>X>X>X>X>X>X>X>X>X>X>X>X>X>X>X>X>X>X>X>X>X>X>X>X>X>X>X>X>X>X>X>X>X>X>X>X>X>X>X>X>X>X>X>X>X>X>X",
">X>X>X>X>X>X>X>X>X>X>X>X>X>X>X>X>X>X>X>X>X>X>X>X>X>X>X>X>X>X>X>X>X>X>X>X>X>X>X>X>X>X>X>X>X>X>X>X>X>X>X>X>X>X>X>X>X>X>X>X>X>X>X>X",
">X>X>X>X>X>X>X>X>X>X>X>X>X>X>X>X>X>X>X>X>X>X>X>X>X>X>X>X>X>X>X>X>X>X>X>X>X>X>X>X>X>X>X>X>X>X>X>X>X>X>X>X>X>X>X>X>X>X>X>X>X>X>X>X",
">X>X>X>X>X>X>X>X>X>X>X>X>X>X>X>X>X>X>X>X>X>X>X>X>X>X>X>X>X>X>X>X>X>X>X>X>X>X>X>X>X>X>X>X>X>X>X>X>X>X>X>X>X>X>X>X>X>X>X>X>X>X>X>X",
">X>X>X>X>X>X>X>X>X>X>X>X>X>X>X>X>X>X>X>X>X>X>X>X>X>X>X>X>X>X>X>X>X>X>X>X>X>X>X>X>X>X>X>X>X>X>X>X>X>X>X>X>X>X>X>X>X>X>X>X>X>X>X>X",
">X>X>X>X>X>X>X>X>X>X>X>X>X>X>X>X>X>X>X>X>X>X>X>X>X>X>X>X>X>X>X>X>X>X>X>X>X>X>X>X>X>X>X>X>X>X>X>X>X>X>X>X>X>X>X>X>X>X>X>X>X>X>X>X",
">X>X>X>X>X>X>X>X>X>X>X>X>X>X>X>X>X>X>X>X>X>X>X>X>X>X>X>X>X>X>X>X>X>X>X>X>X>X>X>X>X>X>X>X>X>X>X>X>X>X>X>X>X>X>X>X>X>X>X>X>X>X>X>X",
">X>X>X>X>X>X>X>X>X>X>X>X>X>X>X>X>X>X>X>X>X>X>X>X>X>X>X>X>X>X>X>X>X>X>X>X>X>X>X>X>X>X>X>X>X>X>X>X>X>X>X>X>X>X>X>X>X>X>X>X>X>X>X>X",
">X>X>X>X>X>X>X>X>X>X>X>X>X>X>X>X>X>X>X>X>X>X>X>X>X>X>X>X>X>X>X>X>X>X>X>X>X>X>X>X>X>X>X>X>X>X>X>X>X>X>X>X>X>X>X>X>X>X>X>X>X>X>X>X",
">X>X>X>X>X>X>X>X>X>X>X>X>X>X>X>X>X>X>X>X>X>X>X>X>X>X>X>X>X>X>X>X>X>X>X>X>X>X>X>X>X>X>X>X>X>X>X>X>X>X>X>X>X>X>X>X>X>X>X>X>X>X>X>X",
">X>X>X>X>X>X>X>X>X>X>X>X>X>X>X>X>X>X>X>X>X>X>X>X>X>X>X>X>X>X>X>X>X>X>X>X>X>X>X>X>X>X>X>X>X>X>X>X>X>X>X>X>X>X>X>X>X>X>X>X>X>X>X>X",
">X>X>X>X>X>X>X>X>X>X>X>X>X>X>X>X>X>X>X>X>X>X>X>X>X>X>X>X>X>X>X>X>X>X>X>X>X>X>X>X>X>X>X>X>X>X>X>X>X>X>X>X>X>X>X>X>X>X>X>X>X>X>X>X",
">X>X>X>X>X>X>X>X>X>X>X>X>X>X>X>X>X>X>X>X>X>X>X>X>X>X>X>X>X>X>X>X>X>X>X>X>X>X>X>X>X>X>X>X>X>X>X>X>X>X>X>X>X>X>X>X>X>X>X>X>X>X>X>X",
">X>X>X>X>X>X>X>X>X>X>X>X>X>X>X>X>X>X>X>X>X>X>X>X>X>X>X>X>X>X>X>X>X>X>X>X>X>X>X>X>X>X>X>X>X>X>X>X>X>X>X>X>X>X>X>X>X>X>X>X>X>X>X>X",
">X>X>X>X>X>X>X>X>X>X>X>X>X>X>X>X>X>X>X>X>X>X>X>X>X>X>X>X>X>X>X>X>X>X>X>X>X>X>X>X>X>X>X>X>X>X>X>X>X>X>X>X>X>X>X>X>X>X>X>X>X>X>X>X",
">X>X>X>X>X>X>X>X>X>X>X>X>X>X>X>X>X>X>X>X>X>X>X>X>X>X>X>X>X>X>X>X>X>X>X>X>X>X>X>X>X>X>X>X>X>X>X>X>X>X>X>X>X>X>X>X>X>X>X>X>X>X>X>X",
">X>X>X>X>X>X>X>X>X>X>X>X>X>X>X>X>X>X>X>X>X>X>X>X>X>X>X>X>X>X>X>X>X>X>X>X>X>X>X>X>X>X>X>X>X>X>X>X>X>X>X>X>X>X>X>X>X>X>X>X>X>X>X>X",
">X>X>X>X>X>X>X>X>X>X>X>X>X>X>X>X>X>X>X>Xd f d e     >X>X>X>X>X>X>X>X>X>X>X>X>Xu f c e     >X>X>X>X>X>X>X>X>X>X>X>X>X>X>X>X>X>X>X",
">X>X>X>X>X>X>X>X>X>X>X>X>X>X>X>X>X>X>X8 B 1 w c       >X>X>X>X>X>X>X>X>X>X>X8 C 7 4 c       >X>X>X>X>X>X>X>X>X>X>X>X>X>X>X>X>X>X",
">X>X>X>X>X>X>X>X>X>X>X>X>X>X>X>X>X>Xc d t m -.4 B *   = >X>X>X>X>X>X>X>X>Xx d t m -.e c *   = >X>X>X>X>X>X>X>X>X>X>X>X>X>X>X>X>X",
">X>X>X>X>X>X>X>X>X>X>X>X>X>X>X>X>X>X1 7 G T.c -.<       >X>X>X>X>X>X>X>X>X4 e S T.k -.=       >X>X>X>X>X>X>X>X>X>X>X>X>X>X>X>X>X",
">X>X>X>X>X>X>X>X>X>X>X>X>X>X>X>X>X>Xi K E.E.C C U       >X>X>X>X>X>X>X>X>Xt K R.Q.S Q C       >X>X>X>X>X>X>X>X>X>X>X>X>X>X>X>X>X",
">X>X>X>X>X>X>X>X>X>X>X>X>X>X>X>X>X>Xt h !.Q.U 4 4     = >X>X>X>Xe.>X>X>X>Xy h !.Q.U w w     * >X>X>X>X>X>X>X>X>X>X>X>X>X>X>X>X>X",
">X>X>X>X>X>X>X>X>X>X>X>X>X>X>X>X>X>XM *.c U B C         >X>X>Xe.x.e.>X>X>Xm *.c m B B   @     >X>X>X>X>X>X>X>X>X>X>X>X>X>X>X>X>X",
">X>X>X>X>X>X>X>X>X>X>X>X>X>X>X>X>X>X9 e U U u d         >X>Xe.e.d.y.e.>X>X9 e U E i d         >X>X>X>X>X>X>X>X>X>X>X>X>X>X>X>X>X",
">X>X>X>X>X>X>X>X>X>X>X>X>X>X>X>X>X>XG.U.`.}.x.B.5.5.<.>.G.Y.e.N.m.5.5.{ } G.U.`.}.m.m.5.5.<.>.>X>X>X>X>X>X>X>X>X>X>X>X>X>X>X>X>X",
">X>X>X>X>X>X>X>X>X>X>X>X>X>X>X>X>X>Xi.H.K.W.e.y.<.2.[ ^ H.K.W.e.6.<.2.^ ^ i.H.K.W.6.y.<.2.[ ^ >X>X>X>X>X>X>X>X>X>X>X>X>X>X>X>X>X",
">X>X>X>X>X>X>X>X>X>X>X>X>X>X>X>X>X>Xn.N.].(.5.6.} +.! ^ b.(.(.e.e.2.+._ [ b.N.].(.5.5.} X.! ^ >X>X>X>X>X>X>X>X>X>X>X>X>X>X>X>X>X",
">X>X>X>X>X>X>X>X>X>X>X>X>X>X>X>X>X>X7.m.:XOXe.e.X.<._ ^ y.:XOXe.e.<.<.[ [ 7.m.:XOX6.y.+.+.[ ] >X>X>X>X>X>X>X>X>X>X>X>X>X>X>X>X>X",
">X>X>X>X>X>X>X>X>X>X>X>X>X>X>X>X>X>Xk.P.~.;X6.e.+.<._ ^ 7.~.=Xe.y.+.+.[ [ C.P.~.-X6.e.<.+.[ ^ >X>X>X>X>X>X>X>X>X>X>X>X>X>X>X>X>X",
">X>X>X>X>X>X>X>X>X>X>X>X>X>X>X>X>X>XA.d.'./.5.e.+.$._ ^ C.:X~.e.y.+.2._ _ A.d.@X/.5.e.X.$._ ] >X>X>X>X>X>X>X>X>X>X>X>X>X>X>X>X>X",
">X>X>X>X>X>X>X>X>X>X>X>X>X>X>X>X>X>X0.v. X#X5.e.+.+._ ^ A.#X~.e.y.+.+._ _ 0.v. X%X5.e.X.$._ [ >X>X>X>X>X>X>X>X>X>X>X>X>X>X>X>X>X",
">X>X>X>X>X>X>X>X>X>X>X>X>X>X>X>X>X>Xb.f.#X'.w.e.<.+._ ^ t.|.#Xe.y.2.+._ [ n.z.#X'.5.e.X.$._ [ >X>X>X>X>X>X>X>X>X>X>X>X>X>X>X>X>X",
">X>X>X>X>X>X>X>X>X>X>X>X>X>X>X>X>X>XK.K.^._.e.e.X.2._ ^ y.^.=X5.5.+.2._ [ K.C.^._.e.e.X.$._ ^ >X>X>X>X>X>X>X>X>X>X>X>X>X>X>X>X>X",
">X>X>X>X>X>X>X>X>X>X>X>X>X>X>X>X>X>XC.h.;XXXy.e.X.2._ ^ A.=X].y.y.%.+._ _ C.h.;X Xe.e.X.+._ ^ >X>X>X>X>X>X>X>X>X>X>X>X>X>X>X>X>X",
">X>X>X>X>X>X>X>X>X>X>X>X>X>X>X>X>X>Xh.g.(.].5.9.X.+._ ^ C.+XOX6.9.<.<.[ _ h.g.].].e.e.X.2.[ ^ >X>X>X>X>X>X>X>X>X>X>X>X>X>X>X>X>X",
">X>X>X>X>X>X>X>X>X>X>X>X>X>X>X>X>X>XA.a.].=X5.e.X.2._ ^ e.XX+Xe.e.$.+.[ [ V.a.).*X5.y.>.+.[ ^ >X>X>X>X>X>X>X>X>X>X>X>X>X>X>X>X>X",
">X>X>X>X>X>X>X>X>X>X>X>X>X>X>X>X>X>X9.c.=X[.e.e.X.+._ ^ F.*X{.e.e.$.<.[ ! 9.c.=X[.e.e.+.+.[ ^ >X>X>X>X>X>X>X>X>X>X>X>X>X>X>X>X>X",
">X>X>X>X>X>X>X>X>X>X>X>X>X>X>X>X>X>XF.q.|.+Xe.e.>.2._ ~ e.+X+Xe.e.$.2._ _ F.q.|.{.e.e.X.+.[ ^ >X>X>X>X>X>X>X>X>X>X>X>X>X>X>X>X>X",
">X>X>X>X>X>X>X>X>X>X>X>X>X>X>X>X>X>Xf.v.OX+X6.e.+.+._ [ e.&X).e.e.$.$._ _ f.n.OX+Xe.e.X.<.[ ^ >X>X>X>X>X>X>X>X>X>X>X>X>X>X>X>X>X",
">X>X>X>X>X>X>X>X>X>X>X>X>X>X>X>X>X>XJ.x.&X(.6.e.>.<.[ ] a.Y.b.B.r.,.,.R R J.l.&X].e.e.X.<.[ ] >X>X>X>X>X>X>X>X>X>X>X>X>X>X>X>X>X",
">X>X>X>X>X>X>X>X>X>X>X>X>X>X>X>X>X>Xs.M.Y.b.8.r.:.,.R H >X>Xe.d.u.e.e.>X>Xs.M.Y.b.7.r.:.,.R H >X>X>X>X>X>X>X>X>X>X>X>X>X>X>X>X>X",
">X>X>X>X>X>X>X>X>X>X>X>X>X>X>X>X>X>Xu.p.L.I.&.5.>.1.T | >X>X>Xe.v.y.>X>X>Xu.p.L.I.&.w.>.1.T | >X>X>X>X>X>X>X>X>X>X>X>X>X>X>X>X>X",
">X>X>X>X>X>X>X>X>X>X>X>X>X>X>X>X>X>Xm S K S A d S S @ ; >X>X>X>Xe.>X>X>X>XG S S S A g S S   ; >X>X>X>X>X>X>X>X>X>X>X>X>X>X>X>X>X",
">X>X>X>X>X>X>X>X>X>X>X>X>X>X>X>X>X>Xx D >X>X1 d >X>X- % >X>X>X>X>X>X>X>X>Xd D >X>X5 k >X>X- % >X>X>X>X>X>X>X>X>X>X>X>X>X>X>X>X>X",
">X>X>X>X>X>X>X>X>X>X>X>X>X>X>X>X>X>Xl y >X>X>   >X>X@ , >X>X>X>X>X>X>X>X>Xk y >X>X>   >X>X@ , >X>X>X>X>X>X>X>X>X>X>X>X>X>X>X>X>X",
">X>X>X>X>X>X>X>X>X>X>X>X>X>X>X>X>X>X0 P S S @   S S ;   >X>X>X>X>X>X>X>X>X0 P S S @   S S =   >X>X>X>X>X>X>X>X>X>X>X>X>X>X>X>X>X",
">X>X>X>X>X>X>X>X>X>X>X>X>X>X>X>X>X>X>X>XO.( X...q *.>X>X>X>X>X>X>X>X>X>X>X>X>XO./ o...q I >X>X>X>X>X>X>X>X>X>X>X>X>X>X>X>X>X>X>X",
">X>X>X>X>X>X>X>X>X>X>X>X>X>X>X>X>X>X>X>XJ ;.Q  .6 z >X>X>X>X>X>X>X>X>X>X>X>X>X` ] ~ ( F Y >X>X>X>X>X>X>X>X>X>X>X>X>X>X>X>X>X>X>X",
">X>X>X>X>X>X>X>X>X>X>X>X>X>X>X>X>X>X>X>X>X>X>X>X>X>X>X>X>X>X>X>X>X>X>X>X>X>X>X>X>X>X>X>X>X>X>X>X>X>X>X>X>X>X>X>X>X>X>X>X>X>X>X>X",
">X>X>X>X>X>X>X>X>X>X>X>X>X>X>X>X>X>X>X>X>X>X>X>X>X>X>X>X>X>X>X>X>X>X>X>X>X>X>X>X>X>X>X>X>X>X>X>X>X>X>X>X>X>X>X>X>X>X>X>X>X>X>X>X",
">X>X>X>X>X>X>X>X>X>X>X>X>X>X>X>X>X>X>X>X>X>X>X>X>X>X>X>X>X>X>X>X>X>X>X>X>X>X>X>X>X>X>X>X>X>X>X>X>X>X>X>X>X>X>X>X>X>X>X>X>X>X>X>X",
">X>X>X>X>X>X>X>X>X>X>X>X>X>X>X>X>X>X>X>X>X>X>X>X>X>X>X>X>X>X>X>X>X>X>X>X>X>X>X>X>X>X>X>X>X>X>X>X>X>X>X>X>X>X>X>X>X>X>X>X>X>X>X>X",
">X>X>X>X>X>X>X>X>X>X>X>X>X>X>X>X>X>X>X>X>X>X>X>X>X>X>X>X>X>X>X>X>X>X>X>X>X>X>X>X>X>X>X>X>X>X>X>X>X>X>X>X>X>X>X>X>X>X>X>X>X>X>X>X",
">X>X>X>X>X>X>X>X>X>X>X>X>X>X>X>X>X>X>X>X>X>X>X>X>X>X>X>X>X>X>X>X>X>X>X>X>X>X>X>X>X>X>X>X>X>X>X>X>X>X>X>X>X>X>X>X>X>X>X>X>X>X>X>X",
">X>X>X>X>X>X>X>X>X>X>X>X>X>X>X>X>X>X>X>X>X>X>X>X>X>X>X>X>X>X>X>X>X>X>X>X>X>X>X>X>X>X>X>X>X>X>X>X>X>X>X>X>X>X>X>X>X>X>X>X>X>X>X>X",
">X>X>X>X>X>X>X>X>X>X>X>X>X>X>X>X>X>X>X>X>X>X>X>X>X>X>X>X>X>X>X>X>X>X>X>X>X>X>X>X>X>X>X>X>X>X>X>X>X>X>X>X>X>X>X>X>X>X>X>X>X>X>X>X",
">X>X>X>X>X>X>X>X>X>X>X>X>X>X>X>X>X>X>X>X>X>X>X>X>X>X>X>X>X>X>X>X>X>X>X>X>X>X>X>X>X>X>X>X>X>X>X>X>X>X>X>X>X>X>X>X>X>X>X>X>X>X>X>X",
">X>X>X>X>X>X>X>X>X>X>X>X>X>X>X>X>X>X>X>X>X>X>X>X>X>X>X>X>X>X>X>X>X>X>X>X>X>X>X>X>X>X>X>X>X>X>X>X>X>X>X>X>X>X>X>X>X>X>X>X>X>X>X>X",
">X>X>X>X>X>X>X>X>X>X>X>X>X>X>X>X>X>X>X>X>X>X>X>X>X>X>X>X>X>X>X>X>X>X>X>X>X>X>X>X>X>X>X>X>X>X>X>X>X>X>X>X>X>X>X>X>X>X>X>X>X>X>X>X",
">X>X>X>X>X>X>X>X>X>X>X>X>X>X>X>X>X>X>X>X>X>X>X>X>X>X>X>X>X>X>X>X>X>X>X>X>X>X>X>X>X>X>X>X>X>X>X>X>X>X>X>X>X>X>X>X>X>X>X>X>X>X>X>X",
">X>X>X>X>X>X>X>X>X>X>X>X>X>X>X>X>X>X>X>X>X>X>X>X>X>X>X>X>X>X>X>X>X>X>X>X>X>X>X>X>X>X>X>X>X>X>X>X>X>X>X>X>X>X>X>X>X>X>X>X>X>X>X>X"
};
