/* XPM */
static char *_e8d6edec8b147f1d947bdea626f224c[] = {
/* columns rows colors chars-per-pixel */
"64 64 241 2 ",
"   c black",
".  c #010101",
"X  c #020000",
"o  c #000201",
"O  c #010003",
"+  c #000303",
"@  c #020202",
"#  c #050000",
"$  c #050100",
"%  c #020005",
"&  c #040404",
"*  c #060606",
"=  c #070707",
"-  c #0D0000",
";  c #080004",
":  c #080204",
">  c #000B01",
",  c #000F0D",
"<  c gray4",
"1  c #0E0E0B",
"2  c #0F0F0C",
"3  c #0E0E0E",
"4  c gray6",
"5  c #100E0A",
"6  c #0E1F0C",
"7  c #13130E",
"8  c #0C0F11",
"9  c #0E1111",
"0  c #0D1515",
"q  c #0C1A1B",
"w  c #101010",
"e  c #111111",
"r  c #111112",
"t  c #131615",
"y  c #121517",
"u  c gray8",
"i  c #151414",
"p  c #141415",
"a  c #151515",
"s  c #171714",
"d  c gray9",
"f  c #191411",
"g  c #131817",
"h  c #1C1A16",
"j  c #121419",
"k  c #161619",
"l  c #14161B",
"z  c #151C1F",
"x  c #181818",
"c  c #191818",
"v  c #191919",
"b  c #1A1919",
"n  c #1B1B1B",
"m  c #1B1E1D",
"M  c #191C1E",
"N  c #1B1E1E",
"B  c gray11",
"V  c #1D1D1D",
"C  c #1E1E1E",
"Z  c gray12",
"A  c #21160F",
"S  c #231E18",
"D  c #1B230F",
"F  c #15251B",
"G  c #1C201A",
"H  c #162B1F",
"J  c #0A331E",
"K  c #23211D",
"L  c #20211E",
"P  c #1E0A20",
"I  c #1F1C20",
"U  c #1C1F21",
"Y  c #0F2525",
"T  c #0F2D23",
"R  c #0C2C27",
"E  c #1A2126",
"W  c #182627",
"Q  c #1C2525",
"!  c #152827",
"~  c #192826",
"^  c #1A2927",
"/  c #19262A",
"(  c #19272B",
")  c #162928",
"_  c #172A29",
"`  c #152B2C",
"'  c #192B28",
"]  c #1B2A28",
"[  c #182B2A",
"{  c #1F2E2C",
"}  c #1C2D2F",
"|  c #0F3427",
" . c #152633",
".. c #1A2A30",
"X. c #1E2F31",
"o. c #1C2E33",
"O. c #1D2139",
"+. c #1D3031",
"@. c #1F3231",
"#. c #1F3032",
"$. c #1E3132",
"%. c #1F3233",
"&. c #1A3F3E",
"*. c #212020",
"=. c gray13",
"-. c #232323",
";. c #262324",
":. c #272B25",
">. c #202E2F",
",. c #2E2C34",
"<. c #203133",
"1. c #263432",
"2. c #213435",
"3. c #293A3C",
"4. c #293C3D",
"5. c #2A3D3E",
"6. c #2B3E3F",
"7. c #313F3A",
"8. c #313E3F",
"9. c #2D443D",
"0. c #36433C",
"q. c #33483E",
"w. c #293B40",
"e. c #2C3F40",
"r. c #244442",
"t. c #2D4041",
"y. c #2E4142",
"u. c #2F4641",
"i. c #2D4444",
"p. c #2F4D40",
"a. c #2B4D47",
"s. c #2E4F47",
"d. c #23454A",
"f. c #2D4548",
"g. c #274848",
"h. c #2E4A49",
"j. c #2D494B",
"k. c #2F4A4C",
"l. c #354344",
"z. c #304646",
"x. c #354646",
"c. c #304D44",
"v. c #3A4944",
"b. c #3E4D45",
"n. c #3E4C47",
"m. c #344748",
"M. c #39464A",
"N. c #344A4B",
"B. c #374A4B",
"V. c #354E4B",
"C. c #31494C",
"Z. c #33494D",
"A. c #354C4D",
"S. c #344C4F",
"D. c #3D4C48",
"F. c #39504B",
"G. c #3F534D",
"H. c #254A55",
"J. c #2C4A53",
"K. c #334E50",
"L. c #334C5D",
"P. c #2C545E",
"I. c #355751",
"U. c #365757",
"Y. c #395557",
"T. c #4D504F",
"R. c #50504B",
"E. c #51524F",
"W. c #435753",
"Q. c #525350",
"!. c #565450",
"~. c #5D7675",
"^. c #6B7B73",
"/. c #617E7A",
"(. c #657A7E",
"). c #FF1D00",
"_. c #FB1E07",
"`. c #FF1F0F",
"'. c #FC1715",
"]. c #FF1B12",
"[. c #FF1D14",
"{. c #FB1918",
"}. c #FF1E19",
"|. c #EF220E",
" X c #FE2002",
".X c #F82600",
"XX c #FE2400",
"oX c #F62905",
"OX c #FF2009",
"+X c #FB230F",
"@X c #F82312",
"#X c #FF221A",
"$X c #EB690C",
"%X c #FF6600",
"&X c #FC6703",
"*X c #FF6507",
"=X c #F06E00",
"-X c #FF6901",
";X c #FF6A00",
":X c #FF6E00",
">X c #FF6C05",
",X c #FF6E04",
"<X c #FF680C",
"1X c #FF6C0E",
"2X c #F47100",
"3X c #FF7200",
"4X c #FF6F14",
"5X c #64817F",
"6X c #64857D",
"7X c #6E8379",
"8X c #6E827E",
"9X c #FFCB00",
"0X c #F5D607",
"qX c #FFD200",
"wX c #FFD300",
"eX c #F8D802",
"rX c #FED30B",
"tX c #FBD20F",
"yX c #FEE100",
"uX c #637E86",
"iX c #697B82",
"pX c #6C7F81",
"aX c #5B8284",
"sX c #658180",
"dX c #678381",
"fX c #648082",
"gX c #658583",
"hX c #658086",
"jX c #668286",
"kX c #6A8382",
"lX c #6E8880",
"zX c #61838A",
"xX c #668088",
"cX c #618689",
"vX c #68878C",
"bX c #6D848D",
"nX c #6D888A",
"mX c #738A83",
"MX c #738A85",
"NX c #70888D",
"BX c None",
/* pixels */
"BXBXBXBXBXBXBXBXBXBXBXBXBXBXBXBXBXBXBXBXBXBXBXBXBXBXBXBXBXBXBXBXBXBXBXBXBXBXBXBXBXBXBXBXBXBXBXBXBXBXBXBXBXBXBXBXBXBXBXBXBXBXBXBX",
"BXBXBXBXBXBXBXBXBXBXBXBXBXBXBXBXBXBXBXBXBXBXBXBXBXBXBXBXBXBXBXBXBXBXBXBXBXBXBXBXBXBXBXBXBXBXBXBXBXBXBXBXBXBXBXBXBXBXBXBXBXBXBXBX",
"BXBXBXBXBXBXBXBXBXBXBXBXBXBXBXBXBXBXBXBXBXBXBXBXBXBXBXBXBXBXBXBXBXBXBXBXBXBXBXBXBXBXBXBXBXBXBXBXBXBXBXBXBXBXBXBXBXBXBXBXBXBXBXBX",
"BXBXBXBXBXBXBXBXBXBXBXBXBXBXBXBXBXBXBXBXBXBXBXBXBXBXBXBXBXBXBXBXBXBXBXBXBXBXBXBXBXBXBXBXBXBXBXBXBXBXBXBXBXBXBXBXBXBXBXBXBXBXBXBX",
"BXBXBXBXBXBXBXBXBXBXBXBXBXBXBXBXBXBXBXBXBXBXBXBXBXBXBXBXBXBXBXBXBXBXBXBXBXBXBXBXBXBXBXBXBXBXBXBXBXBXBXBXBXBXBXBXBXBXBXBXBXBXBXBX",
"BXBXBXBXBXBXBXBXBXBXBXBXBXBXBXBXBXBXBXBXBXBXBXBXBXBXBXBXBXBXBXBXBXBXBXBXBXBXBXBXBXBXBXBXBXBXBXBXBXBXBXBXBXBXBXBXBXBXBXBXBXBXBXBX",
"BXBXBXBXBXBXBXBXBXBXBXBXBXBXBXBXBXBXBXBXBXBXBXBXBXBXBXBXBXBXBXBXBXBXBXBXBXBXBXBXBXBXBXBXBXBXBXBXBXBXBXBXBXBXBXBXBXBXBXBXBXBXBXBX",
"BXBXBXBXBXBXBXBXBXBXBXBXBXBXBXBXBXBXBXBXBXBXBXBXBXBXBXBXBXBXBXBXBXBXBXBXBXBXBXBXBXBXBXBXBXBXBXBXBXBXBXBXBXBXBXBXBXBXBXBXBXBXBXBX",
"BXBXBXBXBXBXBXBXBXBXBXBXBXBXBXBXBXBXBXBXBXBXBXBXBXBXBXBXBXBXBXBXBXBXBXBXBXBXBXBXBXBXBXBXBXBXBXBXBXBXBXBXBXBXBXBXBXBXBXBXBXBXBXBX",
"BXBXBXBXBXBXBXBXBXBXBXBXBXBXBXBXBXBXBXBXBXBXBXBXBXBXBXBXBXBXBXBXBXBXBXBXBXBXBXBXBXBXBXBXBXBXBXBXBXBXBXBXBXBXBXBXBXBXBXBXBXBXBXBX",
"BXBXBXBXBXBXBXBXBXBXBXBXBXBXBXBXBXBXBXBXBXBXBXBXBXBXBXBXBXBXBXBXBXBXBXBXBXBXBXBXBXBXBXBXBXBXBXBXBXBXBXBXBXBXBXBXBXBXBXBXBXBXBXBX",
"BXBXBXBXBXBXBXBXBXBXBXBXBXBXBXBXBXBXBXBXBXBXBXBXBXBXBXBXBXBXBXBXBXBXBXBXBXBXBXBXBXBXBXBXBXBXBXBXBXBXBXBXBXBXBXBXBXBXBXBXBXBXBXBX",
"BXBXBXBXBXBXBXBXBXBXBXBXBXBXBXBXBXBXBXBXBXBXBXBXBXBXBXBXBXBXBXBXBXBXBXBXBXBXBXBXBXBXBXBXBXBXBXBXBXBXBXBXBXBXBXBXBXBXBXBXBXBXBXBX",
"BXBXBXBXBXBXBXBXBXBXBXBXBXBXBXBXBXBXBXBXBXBXBXBXBXBXBXBXBXBXBXBXBXBXBXBXBXBXBXBXBXBXBXBXBXBXBXBXBXBXBXBXBXBXBXBXBXBXBXBXBXBXBXBX",
"BXBXBXBXBXBXBXBXBXBXBXBXBXBXBXBXBXBXBXBXBXBXBXBXBXBXBXBXBXBXBXBXBXBXBXBXBXBXBXBXBXBXBXBXBXBXBXBXBXBXBXBXBXBXBXBXBXBXBXBXBXBXBXBX",
"BXBXBXBXBXBXBXBXBXBXBXBXBXBXBXBXBXBXBXBXBXBXBXBXBXBXBXBXBXBXBXBXBXBXBXBXBXBXBXBXBXBXBXBXBXBXBXBXBXBXBXBXBXBXBXBXBXBXBXBXBXBXBXBX",
"BXBXBXBXBXBXBXBXBXBXBXBXBXBXBXBXBXBXBXBXBXBXBXBXBXBXBXBXBXBXBXBXBXBXBXBXBXBXBXBXBXBXBXBXBXBXBXBXBXBXBXBXBXBXBXBXBXBXBXBXBXBXBXBX",
"BXBXBXBXBXBXBXBXBXBXBXBXBXBXBXBXBXBXBXBXBXBXBXBXBXBXBXBXBXBXBXBXBXBXBXBXBXBXBXBXBXBXBXBXBXBXBXBXBXBXBXBXBXBXBXBXBXBXBXBXBXBXBXBX",
"BXBXBXBXBXBXBXBXBXBXBXBXBXBXBXBXBXBXBXBXBXBXBXBXBXBXBXBXBXBXBXBXBXBXBXBXBXBXBXBXBXBXBXBXBXBXBXBXBXBXBXBXBXBXBXBXBXBXBXBXBXBXBXBX",
"BXBXBXBXBXBXBXBXBXBXBXBXBXBXBXBXBXBXBXBXd f d e     BXBXBXBXBXBXBXBXBXBXBXBXBXu f c e     BXBXBXBXBXBXBXBXBXBXBXBXBXBXBXBXBXBXBX",
"BXBXBXBXBXBXBXBXBXBXBXBXBXBXBXBXBXBXBX8 B 1 w c       BXBXBXBXBXBXBXBXBXBXBX8 C 7 4 c       BXBXBXBXBXBXBXBXBXBXBXBXBXBXBXBXBXBX",
"BXBXBXBXBXBXBXBXBXBXBXBXBXBXBXBXBXBXc d t m -.4 B *   = BXBXBXBXBXBXBXBXBXx d t m -.e c *   = BXBXBXBXBXBXBXBXBXBXBXBXBXBXBXBXBX",
"BXBXBXBXBXBXBXBXBXBXBXBXBXBXBXBXBXBX1 7 G T.c -.<       BXBXBXBXBXBXBXBXBX4 e S T.k -.=       BXBXBXBXBXBXBXBXBXBXBXBXBXBXBXBXBX",
"BXBXBXBXBXBXBXBXBXBXBXBXBXBXBXBXBXBXi K E.E.C C U       BXBXBXBXBXBXBXBXBXt K R.Q.S Q C       BXBXBXBXBXBXBXBXBXBXBXBXBXBXBXBXBX",
"BXBXBXBXBXBXBXBXBXBXBXBXBXBXBXBXBXBXt h !.Q.U 4 4     = BXBXBXBXe.BXBXBXBXy h !.Q.U w w     * BXBXBXBXBXBXBXBXBXBXBXBXBXBXBXBXBX",
"BXBXBXBXBXBXBXBXBXBXBXBXBXBXBXBXBXBXM *.c U B C         BXBXBXe.x.e.BXBXBXm *.c m B B   @     BXBXBXBXBXBXBXBXBXBXBXBXBXBXBXBXBX",
"BXBXBXBXBXBXBXBXBXBXBXBXBXBXBXBXBXBX9 e U U u d         BXBXe.e.d.y.e.BXBX9 e U E i d         BXBXBXBXBXBXBXBXBXBXBXBXBXBXBXBXBX",
"BXBXBXBXBXBXBXBXBXBXBXBXBXBXBXBXBXBXG.U.7XaXx.B.5.5.<.>.G.Y.e.N.m.5.5.{ } G.U.7XaXm.m.5.5.<.>.BXBXBXBXBXBXBXBXBXBXBXBXBXBXBXBXBX",
"BXBXBXBXBXBXBXBXBXBXBXBXBXBXBXBXBXBXi.H.K.W.e.y.<.2.[ ^ H.K.W.e.6.<.2.^ ^ i.H.K.W.6.y.<.2.[ ^ BXBXBXBXBXBXBXBXBXBXBXBXBXBXBXBXBX",
"BXBXBXBXBXBXBXBXBXBXBXBXBXBXBXBXBXBXn.N.uX(.5.6.} +.! ^ b.(.(.e.e.2.+._ [ b.N.uX(.5.5.} X.! ^ BXBXBXBXBXBXBXBXBXBXBXBXBXBXBXBXBX",
"BXBXBXBXBXBXBXBXBXBXBXBXBXBXBXBXBXBX7.m.NXjXe.e.X.<._ ^ y.NXjXe.e.<.<.[ [ 7.m.NXjX6.y.+.+.[ ] BXBXBXBXBXBXBXBXBXBXBXBXBXBXBXBXBX",
"BXBXBXBXBXBXBXBXBXBXBXBXBXBXBXBXBXBXk.P.~.MX6.e.+.<._ ^ 7.~.nXe.y.+.+.[ [ C.P.~.mX6.e.<.+.[ ^ BXBXBXBXBXBXBXBXBXBXBXBXBXBXBXBXBX",
"BXBXBXBXBXBXBXBXBXBXBXBXBXBXBXBXBXBXA.d.8X5X5.e.+.<.[ ^ k.NX~.e.y.+.2._ _ A.d.lX/.5.e.X.$._ ] BXBXBXBXBXBXBXBXBXBXBXBXBXBXBXBXBX",
"BXBXBXBXBXBXBXBXBXBXBXBXBXBXBXBXBXBX0.v.6XzX5.e.+.+.[ ] K.zX~.e.y.+.+._ _ 0.v.dXcX5.e.X.$._ [ BXBXBXBXBXBXBXBXBXBXBXBXBXBXBXBXBX",
"BXBXBXBXBXBXBXBXBXBXBXBXBXBXBXBXBXBXn.z.zX8X5.e.>.+.! ] e.kXzXe.y.2.+._ [ n.z.zX8X5.e.X.$._ [ BXBXBXBXBXBXBXBXBXBXBXBXBXBXBXBXBX",
"BXBXBXBXBXBXBXBXBXBXBXBXBXBXBXBXBXBXK.C.^.6Xe.e.X.2.! ( e.^.nXe.5.+.2._ [ K.C.^.6Xe.e.X.$._ ^ BXBXBXBXBXBXBXBXBXBXBXBXBXBXBXBXBX",
"BXBXBXBXBXBXBXBXBXBXBXBXBXBXBXBXBXBXC.k.MXdXe.e.X.2._ ^ N.nXuXe.y.%.+._ _ C.h.MXdXe.e.X.+._ ^ BXBXBXBXBXBXBXBXBXBXBXBXBXBXBXBXBX",
"BXBXBXBXBXBXBXBXBXBXBXBXBXBXBXBXBXBXh.g.uXuX5.e.X.+._ ^ h.kXjXe.9.<.<.[ _ h.g.uXuXe.e.X.2.[ ^ BXBXBXBXBXBXBXBXBXBXBXBXBXBXBXBXBX",
"BXBXBXBXBXBXBXBXBXBXBXBXBXBXBXBXBXBXA.a.sXnX5.e.X.2._ ^ e.jXkXe.e.$.+.[ [ V.a.5XbX5.y.>.+.[ ^ BXBXBXBXBXBXBXBXBXBXBXBXBXBXBXBXBX",
"BXBXBXBXBXBXBXBXBXBXBXBXBXBXBXBXBXBX9.c.nXiXe.e.X.+._ ^ F.bXpXe.e.$.<.[ ! 9.c.nXiXe.e.+.+.[ ^ BXBXBXBXBXBXBXBXBXBXBXBXBXBXBXBXBX",
"BXBXBXBXBXBXBXBXBXBXBXBXBXBXBXBXBXBXF.0.sXkXe.e.+.<.[ ^ 6.kXkX9.e.$.2._ _ F.q.sXpXe.e.X.+.[ ^ BXBXBXBXBXBXBXBXBXBXBXBXBXBXBXBXBX",
"BXBXBXBXBXBXBXBXBXBXBXBXBXBXBXBXBXBXf.b.jXkXe.e.+.<.[ ^ e.vX5X6.e.$.$._ _ f.n.jXkXe.e.X.<.[ ^ BXBXBXBXBXBXBXBXBXBXBXBXBXBXBXBXBX",
"BXBXBXBXBXBXBXBXBXBXBXBXBXBXBXBXBXBXJ.l.vX(.e.e.X.+.^ ] a.Y.b.B.r.,.,.R R J.l.vXuXe.e.X.<.[ ] BXBXBXBXBXBXBXBXBXBXBXBXBXBXBXBXBX",
"BXBXBXBXBXBXBXBXBXBXBXBXBXBXBXBXBXBXs.B.Y.b.6.r.:.,.R H BXBXy.d.u.e.e.BXBXs.M.Y.b.7.r.:.,.R H BXBXBXBXBXBXBXBXBXBXBXBXBXBXBXBXBX",
"BXBXBXBXBXBXBXBXBXBXBXBXBXBXBXBXBXBXu.p.L.I.&.5.>.1.T | BXBXBXe.v.y.BXBXBXu.p.L.I.&.w.>.1.T | BXBXBXBXBXBXBXBXBXBXBXBXBXBXBXBXBX",
"BXBXBXBXBXBXBXBXBXBXBXBXBXBXBXBXBXBXm S K S A d S S @ ; BXBXBXBXe.BXBXBXBXG S S S A g S S   ; BXBXBXBXBXBXBXBXBXBXBXBXBXBXBXBXBX",
"BXBXBXBXBXBXBXBXBXBXBXBXBXBXBXBXBXBXd D BXBX1 d BXBX- % BXBXBXBXBXBXBXBXBXd D BXBX5 k BXBX- % BXBXBXBXBXBXBXBXBXBXBXBXBXBXBXBXBX",
"BXBXBXBXBXBXBXBXBXBXBXBXBXBXBXBXBXBXl y BXBX>   BXBX@ , BXBXBXBXBXBXBXBXBXk y BXBX>   BXBX@ , BXBXBXBXBXBXBXBXBXBXBXBXBXBXBXBXBX",
"BXBXBXBXBXBXBXBXBXBXBXBXBXBXBXBXBXBX0 P S S @   S S ;   BXBXBXBXBXBXBXBXBX0 P S S @   S S =   BXBXBXBXBXBXBXBXBXBXBXBXBXBXBXBXBX",
"BXBXBXBXBXBXBXBXBXBXBXBXBXBXBXBXBXBXBXBXO.( X...q I BXBXBXBXBXBXBXBXBXBXBXBXBXO.( o...q I BXBXBXBXBXBXBXBXBXBXBXBXBXBXBXBXBXBXBX",
"BXBXBXBXBXBXBXBXBXBXBXBXBXBXBXBXBXBXBXBXJ ;.Q  .6 U BXBXBXBXBXBXBXBXBXBXBXBXBX` ^ ~ ( F Y BXBXBXBXBXBXBXBXBXBXBXBXBXBXBXBXBXBXBX",
"BXBXBXBXBXBXBXBXBXBXBXBXBXBXBXBXBXBXBXBXBXBX+X|.BXBXBXBXBXBXBXBXBXBXBXBXBXBXBXBXBX`.|.BXBXBXBXBXBXBXBXBXBXBXBXBXBXBXBXBXBXBXBXBX",
"BXBXBXBXBXBXBXBXBXBXBXBXBXBXBXBXBXBXBXBXBX'.XX].{.BXBXBXBXBXBXBXBXBXBXBXBXBXBXBX'.XX].{.BXBXBXBXBXBXBXBXBXBXBXBXBXBXBXBXBXBXBXBX",
"BXBXBXBXBXBXBXBXBXBXBXBXBXBXBXBXBXBXBXBX#X@X=X4X).oXBXBXBXBXBXBXBXBXBXBXBXBXBX#X@X=X4X).oXBXBXBXBXBXBXBXBXBXBXBXBXBXBXBXBXBXBXBX",
"BXBXBXBXBXBXBXBXBXBXBXBXBXBXBXBXBXBXBXBX X-XrX,X&X+XBXBXBXBXBXBXBXBXBXBXBXBXBX X-XrX,X&X+XBXBXBXBXBXBXBXBXBXBXBXBXBXBXBXBXBXBXBX",
"BXBXBXBXBXBXBXBXBXBXBXBXBXBXBXBXBXBXBXBX<XeXqXtX2X3XBXBXBXBXBXBXBXBXBXBXBXBXBX<XeXqXtX2X3XBXBXBXBXBXBXBXBXBXBXBXBXBXBXBXBXBXBXBX",
"BXBXBXBXBXBXBXBXBXBXBXBXBXBXBXBXBXBXBXBX,XqX9XyX*X.XBXBXBXBXBXBXBXBXBXBXBXBXBX,XqX9XyX*X.XBXBXBXBXBXBXBXBXBXBXBXBXBXBXBXBXBXBXBX",
"BXBXBXBXBXBXBXBXBXBXBXBXBXBXBXBXBXBXBXBXBX*X0X$X}.BXBXBXBXBXBXBXBXBXBXBXBXBXBXBX&X0X$X}.BXBXBXBXBXBXBXBXBXBXBXBXBXBXBXBXBXBXBXBX",
"BXBXBXBXBXBXBXBXBXBXBXBXBXBXBXBXBXBXBXBXBXBX:X:XBXBXBXBXBXBXBXBXBXBXBXBXBXBXBXBXBX:X:XBXBXBXBXBXBXBXBXBXBXBXBXBXBXBXBXBXBXBXBXBX",
"BXBXBXBXBXBXBXBXBXBXBXBXBXBXBXBXBXBXBXBXBXBX1X_.BXBXBXBXBXBXBXBXBXBXBXBXBXBXBXBXBX1X_.BXBXBXBXBXBXBXBXBXBXBXBXBXBXBXBXBXBXBXBXBX",
"BXBXBXBXBXBXBXBXBXBXBXBXBXBXBXBXBXBXBXBXBXBX[.BXBXBXBXBXBXBXBXBXBXBXBXBXBXBXBXBXBX[.BXBXBXBXBXBXBXBXBXBXBXBXBXBXBXBXBXBXBXBXBXBX",
"BXBXBXBXBXBXBXBXBXBXBXBXBXBXBXBXBXBXBXBXBXBXBX:XBXBXBXBXBXBXBXBXBXBXBXBXBXBXBXBXBXBX:XBXBXBXBXBXBXBXBXBXBXBXBXBXBXBXBXBXBXBXBXBX",
"BXBXBXBXBXBXBXBXBXBXBXBXBXBXBXBXBXBXBXBXBXBXOXBXBXBXBXBXBXBXBXBXBXBXBXBXBXBXBXBXBXOXBXBXBXBXBXBXBXBXBXBXBXBXBXBXBXBXBXBXBXBXBXBX",
"BXBXBXBXBXBXBXBXBXBXBXBXBXBXBXBXBXBXBXBXBXBX-XBXBXBXBXBXBXBXBXBXBXBXBXBXBXBXBXBXBX-XBXBXBXBXBXBXBXBXBXBXBXBXBXBXBXBXBXBXBXBXBXBX"
};
