/* XPM */
static char *_9cc46a199584ba9bf4c25c690f36915[] = {
/* columns rows colors chars-per-pixel */
"64 64 201 2 ",
"   c black",
".  c #010101",
"X  c #020000",
"o  c #000201",
"O  c #010003",
"+  c #000303",
"@  c #020202",
"#  c #050000",
"$  c #050100",
"%  c #020005",
"&  c #040404",
"*  c #060606",
"=  c #070707",
"-  c #0D0000",
";  c #080004",
":  c #080204",
">  c #000B01",
",  c #000F0D",
"<  c gray4",
"1  c #0E0E0B",
"2  c #0F0F0C",
"3  c #0E0E0E",
"4  c gray6",
"5  c #100E0A",
"6  c #0E1F0C",
"7  c #13130E",
"8  c #0C0F11",
"9  c #0E1111",
"0  c #0D1515",
"q  c #0C1A1B",
"w  c #101010",
"e  c #111111",
"r  c #111112",
"t  c #131615",
"y  c #121517",
"u  c gray8",
"i  c #151414",
"p  c #141415",
"a  c #151515",
"s  c #171714",
"d  c gray9",
"f  c #191411",
"g  c #131817",
"h  c #1C1A16",
"j  c #121419",
"k  c #161619",
"l  c #14161B",
"z  c #151C1F",
"x  c #181818",
"c  c #191818",
"v  c #191919",
"b  c #1A1919",
"n  c #1B1B1B",
"m  c #1B1E1D",
"M  c #191C1E",
"N  c #1B1E1E",
"B  c gray11",
"V  c #1D1D1D",
"C  c #1E1E1E",
"Z  c gray12",
"A  c #21160F",
"S  c #231E18",
"D  c #1B230F",
"F  c #15251B",
"G  c #1C201A",
"H  c #162B1F",
"J  c #0A331E",
"K  c #23211D",
"L  c #20211E",
"P  c #1E0A20",
"I  c #1F1C20",
"U  c #1C1F21",
"Y  c #0F2525",
"T  c #0F2D23",
"R  c #0C2C27",
"E  c #1A2126",
"W  c #182627",
"Q  c #1C2525",
"!  c #152827",
"~  c #192826",
"^  c #1A2927",
"/  c #19262A",
"(  c #19272B",
")  c #162928",
"_  c #172A29",
"`  c #152B2C",
"'  c #192B28",
"]  c #1B2A28",
"[  c #182B2A",
"{  c #1F2E2C",
"}  c #1C2D2F",
"|  c #0F3427",
" . c #152633",
".. c #1A2A30",
"X. c #1E2F31",
"o. c #1C2E33",
"O. c #1D2139",
"+. c #1D3031",
"@. c #1F3231",
"#. c #1F3032",
"$. c #1E3132",
"%. c #1F3233",
"&. c #1A3F3E",
"*. c #212020",
"=. c gray13",
"-. c #232323",
";. c #262324",
":. c #272B25",
">. c #202E2F",
",. c #2E2C34",
"<. c #203133",
"1. c #263432",
"2. c #213435",
"3. c #293A3C",
"4. c #293C3D",
"5. c #2A3D3E",
"6. c #2B3E3F",
"7. c #313F3A",
"8. c #313E3F",
"9. c #2D443D",
"0. c #36433C",
"q. c #33483E",
"w. c #293B40",
"e. c #2C3F40",
"r. c #244442",
"t. c #2D4041",
"y. c #2E4142",
"u. c #2F4641",
"i. c #2D4444",
"p. c #2F4D40",
"a. c #2B4D47",
"s. c #2E4F47",
"d. c #23454A",
"f. c #2D4548",
"g. c #274848",
"h. c #2E4A49",
"j. c #2D494B",
"k. c #2F4A4C",
"l. c #354344",
"z. c #304646",
"x. c #354646",
"c. c #304D44",
"v. c #3A4944",
"b. c #3E4D45",
"n. c #3E4C47",
"m. c #344748",
"M. c #39464A",
"N. c #344A4B",
"B. c #374A4B",
"V. c #354E4B",
"C. c #31494C",
"Z. c #33494D",
"A. c #354C4D",
"S. c #344C4F",
"D. c #3D4C48",
"F. c #39504B",
"G. c #3F534D",
"H. c #254A55",
"J. c #2C4A53",
"K. c #334E50",
"L. c #334C5D",
"P. c #2C545E",
"I. c #355751",
"U. c #365757",
"Y. c #395557",
"T. c #4D504F",
"R. c #50504B",
"E. c #51524F",
"W. c #435753",
"Q. c #525350",
"!. c #565450",
"~. c #5D7675",
"^. c #6B7B73",
"/. c #617E7A",
"(. c #657A7E",
"). c #64817F",
"_. c #64857D",
"`. c #6E8379",
"'. c #6E827E",
"]. c #637E86",
"[. c #697B82",
"{. c #6C7F81",
"}. c #5B8284",
"|. c #658180",
" X c #678381",
".X c #648082",
"XX c #658583",
"oX c #658086",
"OX c #668286",
"+X c #6A8382",
"@X c #6E8880",
"#X c #61838A",
"$X c #668088",
"%X c #618689",
"&X c #68878C",
"*X c #6D848D",
"=X c #6D888A",
"-X c #738A83",
";X c #738A85",
":X c #70888D",
">X c None",
/* pixels */
">X>X>X>X>X>X>X>X>X>X>X>X>X>X>X>X>X>X>X>X>X>X>X>X>X>X>X>X>X>X>X>X>X>X>X>X>X>X>X>X>X>X>X>X>X>X>X>X>X>X>X>X>X>X>X>X>X>X>X>X>X>X>X>X",
">X>X>X>X>X>X>X>Xu d f f x d e         >X>X>X>X>X>X>X>X>X>X>X>X>X>X>X>X>X>X>X>X>X>X>X>X>X>Xd d f f d d e e         >X>X>X>X>X>X>X",
">X>X>X>X>X>X>X>Xu u f f d d e         >X>X>X>X>X>X>X>X>X>X>X>X>X>X>X>X>X>X>X>X>X>X>X>X>X>Xd u f f d d e e         >X>X>X>X>X>X>X",
">X>X>X>X>X>X8 8 B B 5 2 e e c             >X>X>X>X>X>X>X>X>X>X>X>X>X>X>X>X>X>X>X>X>X>X8 8 B B 1 5 9 e c c             >X>X>X>X>X",
">X>X>X>X>X>X8 8 B B 1 4 4 e c             >X>X>X>X>X>X>X>X>X>X>X>X>X>X>X>X>X>X>X>X>X>X8 8 m B 1 4 7 4 c c             >X>X>X>X>X",
">X>X>X>Xc c d d t t m m -.-.e c c * *     = = >X>X>X>X>X>X>X>X>X>X>X>X>X>X>X>X>X>Xc c d d t d m m -.-.4 4 m c * *     = = >X>X>X",
">X>X>X>Xc c d d t t m m -.-.9 c B * *     = = >X>X>X>X>X>X>X>X>X>X>X>X>X>X>X>X>X>Xc c d d t d m m -.-.4 4 c c * &     = = >X>X>X",
">X>X>X>X1 1 7 7 L L T.T.c c -.< <           & >X>X>X>X>X>X>X>X>X>X>X>X>X>X>X>X>X>X4 5 7 7 G L T.T.k d -.-.< <           & >X>X>X",
">X>X>X>X1 1 7 7 L L T.T.x c -.< <         &   >X>X>X>X>X>X>X>X>X>X>X>X>X>X>X>X>X>X1 1 7 7 L L T.T.c x Q -.< <         &   >X>X>X",
">X>X>X>Xi u K K R.R.E.E.B G Q I Z             >X>X>X>X>X>X>X>X>X>X>X>X>X>X>X>X>X>Xd t S K R.R.E.Q.B I I B Z Z             >X>X>X",
">X>X>X>Xi i L K R.R.Q.E.I I S B B             >X>X>X>X>X>X>X>X>X>X>X>X>X>X>X>X>X>Xy y S L R.T.Q.Q.B I S -.B B             >X>X>X",
">X>X>X>Xy y h h !.!.Q.Q.Q S 8 w e @       = * >X>X>X>X>X>X>X>X>X>X>X>X>X>X>X>X>X>Xj t B h !.!.Q.E.-.Z 2 8 2 w &   @   = = >X>X>X",
">X>X>X>Xy y x h !.!.Q.Q.B S 8 8 2   @     * = >X>X>X>X>X>X>X>X>X>X>X>X>X>X>X>X>X>Xt y h h !.!.Q.Q.B -.4 8 2 w         * = >X>X>X",
">X>X>X>XM M L -.c x U m B B B     @ &         >X>X>X>X>X>X>X>X>X>X>X>X>X>X>X>X>X>XM M -.Z x c U m m c B B       *         >X>X>X",
">X>X>X>Xz U S -.c c U m B B B     @ @         >X>X>X>X>X>X>X>X>X>X>X>X>X>X>X>X>X>Xm U Z *.c c G B B B B B     @           >X>X>X",
">X>X>X>X8 r r e E I E U u d d             @ @ >X>X>X>X>X>X>X>X>X>X>X>X>X>X>X>X>X>X9 8 8 u I I E E e d d d             &   >X>X>X",
">X>X>X>X9 9 e e Q B E E i i d             @ @ >X>X>X>X>X>X>X>X>X>X>X>X>X>X>X>X>X>X9 9 9 e B E E E y e d d             @ @ >X>X>X",
">X>X>X>XG.G.U.U.`.`.}.}.m.m.B.3.3.5.5.#.#.{ { G.G.U.U.e.e.A.B.B.B.4.5.4.5.>.} { { G.G.U.U.`.`.}.}.B.x.B.B.3.4.4.5.#.$.{ { >X>X>X",
">X>X>X>XG.G.U.U.`.`.}.}.m.B.B.3.3.5.4.#.#.{ { G.G.U.U.e.e.B.B.B.B.5.4.4.5.{ } { { G.W.U.U.`.`.}.}.m.m.A.B.5.4.5.5.#.{ { { >X>X>X",
">X>X>X>Xi.i.H.H.K.K.W.W.w.t.t.#.#.2.2._ ' ^ ' H.H.K.K.W.W.e.e.e.e.#.<.2.2.^ ^ ] ^ i.i.H.H.K.K.W.W.e.e.t.t.<.#.$.2._ [ ' ' >X>X>X",
">X>X>X>XD.n.B.B.$X$X(.(.4.4.5.} } +.#.) ) ) ~ b.b.(.(.(.(.e.e.e.e.#.%.%.%._ _ _ _ n.n.B.N.$X$X(.(.4.4.5.5.} } #.} ! ) ^ ^ >X>X>X",
">X>X>X>XD.D.N.N.$X$X(.(.4.5.5.} } +.+.) ) ^ ~ b.D.(.(.(.(.e.e.e.e.#.%.%.%._ _ _ _ b.n.N.N.$X$X(.(.4.5.6.5.} } #.#.! ! ^ ^ >X>X>X",
">X>X>X>X7.7.x.x.:X:XoXoX5.5.t.X.X.#.#.[ _ ] ^ e.e.:X:XoXoXe.e.e.t.%.%.%.%._ _ _ _ 7.7.x.x.:X:XoX].6.6.t.e.X.X.<.#.[ _ ] ] >X>X>X",
">X>X>X>X7.7.x.x.:X:XoXoX6.6.t.X.#.#.#._ _ ] ] e.e.:X:XoXoXe.e.e.t.%.%.%.#._ _ _ _ 7.7.x.x.:X:XoXoX6.6.t.t.X.X.<.#._ _ ] ] >X>X>X",
">X>X>X>Xk.k.P.P.~.~.-X-X6.6.t.#.#.$.$.[ _ ^ ^ 7.7.~.~.:X:Xe.e.e.t.#.%.%.%._ _ _ _ k.k.P.P.~.~.-X-Xw.w.t.t.#.#.%.$.[ ' ^ ^ >X>X>X",
">X>X>X>Xk.j.P.P.~.~.-X-Xe.w.t.<.#.$.$.[ _ ^ ^ 9.7.~.~.:X:Xe.e.e.t.#.%.%.%._ _ _ _ k.k.P.P.~.~.-X-Xw.9.t.t.#.#.%.$.[ ) ^ ^ >X>X>X",
">X>X>X>XA.A.d.d.@X@X/./.5.5.e.X.#.%.$.[ _ ^ ] k.j.:X:X~.~.e.e.e.t.%.%.%.%._ _ _ _ A.A.d.d.@X@X/.).4.5.t.w.#.+.%.$.[ [ ^ ^ >X>X>X",
">X>X>X>XA.A.d.d.@X@X/./.5.5.e.X.#.$.$.[ _ ^ ^ k.N.:X:X~.~.e.e.e.9.%.%.%.%._ _ _ _ A.A.d.d.@X@X/./.5.5.w.9.#.#.%.$.[ [ ) ^ >X>X>X",
">X>X>X>X0.0.v.v. X X%X%X5.5.e.X.#.$.$.[ [ ' ] A.A.#X#X~.~.9.e.e.w.%.%.%.%._ _ _ _ 0.0.v.v. X X#X%X5.5.9.t.#.#.%.#._ _ ] ] >X>X>X",
">X>X>X>X0.0.v.v. X X%X#X5.5.e.X.#.$.#.[ [ ^ ] A.A.#X#X~.~.w.e.e.t.%.%.%.%._ _ _ _ 0.0.v.v. X X#X%X5.5.5.w.X.{ %.%._ _ ^ ] >X>X>X",
">X>X>X>XD.D.x.N.#X#X'.'.9.w.t.X.#.+.$.! ! ^ ^ w.w. X X%X#X9.e.e.w.$.%.%.%._ _ _ _ D.b.z.z.#X#X'.'.5.e.e.w.#.+.$.#.[ ) ^ ^ >X>X>X",
">X>X>X>XD.D.i.i.#X#X'.'.w.5.9.X.+.#.$.[ ) ^ ^ 9.t. X X#X%Xt.e.e.t.%.%.%.%._ _ _ [ D.D.z.z.#X#X'.'.e.5.e.9.+.#.#.#.) _ ^ ^ >X>X>X",
">X>X>X>XS.S.N.N.^.^._._.5.e.e.X.#.$.#.[ [ ^ ^ t.e.^.^.*X*Xe.e.e.t.$.%.%.%.[ [ [ _ S.S.Z.Z.^.^._._.t.5.t.t.#.#.#.$.[ [ ^ ^ >X>X>X",
">X>X>X>XS.S.Z.N.^.^._._.e.5.e.X.#.$.$.[ _ ^ ^ w.e.^.^.*X*Xe.e.e.t.$.%.%.%.[ _ _ _ S.S.Z.Z.^.^._._.w.5.t.w.X.#.#.$.[ ) ^ ^ >X>X>X",
">X>X>X>Xj.Z.j.j.-X-XXXXX5.e.e.X.#.$.$.[ _ ^ ^ A.K.*X*X].].e.e.e.t.$.$.%.#._ _ _ _ k.N.j.j.-X;XXX%X9.5.t.w.X.#.%.$.[ [ ^ ^ >X>X>X",
">X>X>X>Xj.Z.j.j.;X;XXX Xe.5.e.X.#.$.#._ _ ^ ^ A.A.*X*X].].e.e.e.t.#.%.%.$._ _ _ _ N.k.f.j.-X;XoX X5.5.t.9.#.#.#.$.[ [ ) ^ >X>X>X",
">X>X>X>Xa.N.g.g. X X].].5.e.e.X.#.$.$.[ _ ^ ^ j.N.+X+X XXXe.e.e.t.%.%.%.$.[ [ [ ' j.a.g.g.).).].].5.e.e.e.X.#.#.#._ _ ^ ^ >X>X>X",
">X>X>X>Xj.a.g.g..X.X].].e.5.e.X.+.$.$.[ _ ^ ^ j.j.+X XXX Xe.e.e.t.%.%.%.$.[ ! [ ) j.j.a.g. X).].].5.5.e.e.X.#.%.%._ _ ^ ^ >X>X>X",
">X>X>X>XV.V.a.a..X.X*X*X5.e.e.X.#.%.$.[ _ ] ] e.t.XXXX X+Xe.e.e.t.$.%.%.$.! [ [ _ V.N.a.a.].].*X*Xe.5.e.e.X.X.%.%.[ _ ^ ^ >X>X>X",
">X>X>X>XV.N.a.a..X].*X*Xe.5.e.X.#.$.$.[ ] ^ ^ e.e.XXXX+X+Xe.e.e.t.$.%.$.$.[ [ ! ) V.V.a.a. X X*X*X5.e.e.e.X.X.#.#.[ _ ^ ^ >X>X>X",
">X>X>X>X9.9.c.c.=X=X[.[.5.5.e.X.#.$.$.[ [ ^ ^ F.F.*X*X{.{.6.e.e.t.%.%.%.$.[ [ _ _ 9.9.s.c.=X=X[.[.e.5.e.w.X.X.%.$.[ _ ^ ^ >X>X>X",
">X>X>X>X9.9.c.c.=X=X[.[.w.9.e.X.#.$.$.[ [ ) ^ F.F.*X*X+X{.e.e.e.9.%.%.%.$.[ [ _ _ 9.9.s.c.=X=X[.[.5.e.e.t.X.X.%.$.[ _ ^ ^ >X>X>X",
">X>X>X>XF.F.q.q.). X{.{.w.e.e.X.#.$.$.[ _ ^ ^ 9.t. X+X+X+Xe.e.e.w.%.%.%.$.[ _ _ ) F.F.q.q. X+X{.{.5.e.e.w.#.X.%.$.[ [ ^ ^ >X>X>X",
">X>X>X>XF.F.q.q.[.+X{.+X9.w.e.X.#.#.$.[ _ ^ ^ w.w.+X+X+X+Xe.e.e.t.%.%.%.#._ _ _ ) F.F.q.0.).).+X{.e.e.w.9.#.X.%.%.[ _ ^ ^ >X>X>X",
">X>X>X>Xf.f.D.D.XXoX X+Xe.5.9.o.#.%.#._ _ ^ ^ t.e.&X&X).).e.e.e.t.#.%.%.%._ _ _ ^ i.f.D.D.oXoX X+Xe.5.e.9.X.X.%.#._ _ ^ ^ >X>X>X",
">X>X>X>Xf.f.D.D.oXoX+X+X5.5.w.#.#.%.%._ _ ^ / 9.e.&X&X X).e.e.e.t.$.%.o.%._ [ [ _ f.f.b.D.oXoX+X+X5.e.e.5.#.X.%.%._ _ ^ ^ >X>X>X",
">X>X>X>XJ.J.l.l.&X&X). Xe.5.t.+.+.#.#.[ ] ^ ^ a.s.Y.Y.b.b.B.A.r.r.,.,.,.,.R R R R J.J.x.x.&X&X).).e.5.e.t.#.#.$.%.[ _ ^ ^ >X>X>X",
">X>X>X>Xs.s.M.M.Y.Y.b.b.8.8.r.:.:.,.,.R R H H >X>X>X>Xe.w.g.d.q.q.t.t.9.w.>X>X>X>Xs.s.M.M.Y.Y.b.b.8.8.r.r.:.:.,.,.R R H H >X>X>X",
">X>X>X>Xs.s.m.B.U.Y.b.b.8.8.9.:.:.,.,.R R H H >X>X>X>Xe.e.g.d.q.q.e.e.e.t.>X>X>X>Xs.s.B.M.Y.Y.b.b.8.8.r.r.:.:.,.,.R R H H >X>X>X",
">X>X>X>Xq.i.s.q.L.L.I.I.&.&.w.} >.1.1.T T | | >X>X>X>X>X>Xe.w.v.v.e.e.>X>X>X>X>X>Xu.u.p.s.L.L.I.I.&.&.w.w.>.>.1.1.T T | | >X>X>X",
">X>X>X>Xi.q.q.s.L.L.I.I.&.&.w.} >.1.1.T T | | >X>X>X>X>X>Xe.6.n.v.e.t.>X>X>X>X>X>Xu.u.q.q.L.L.I.I.&.&.w.w.X.X.1.1.T T | | >X>X>X",
">X>X>X>XG G S S S S S S A A g S S S S @ @ ; ; >X>X>X>X>X>X>X>Xe.e.>X>X>X>X>X>X>X>XG G S S S S S S A A g t S S S S @ @ ; ; >X>X>X",
">X>X>X>XG G S S S S S S A A t S S S S     ; ; >X>X>X>X>X>X>X>Xe.e.>X>X>X>X>X>X>X>XG G S S S S S S A A k g S S S S @   ; ; >X>X>X",
">X>X>X>Xd d D D >X>X>X>X1 5 k >X>X>X>X- - % @ >X>X>X>X>X>X>X>X>X>X>X>X>X>X>X>X>X>Xt s D D >X>X>X>X5 2 k k >X>X>X>X- - & & >X>X>X",
">X>X>X>Xs t D D >X>X>X>X5 2 k >X>X>X>X- - % @ >X>X>X>X>X>X>X>X>X>X>X>X>X>X>X>X>X>Xs s D D >X>X>X>X5 5 k k >X>X>X>X- - & @ >X>X>X",
">X>X>X>Xk y k y >X>X>X>X> >   >X>X>X>X; @ , , >X>X>X>X>X>X>X>X>X>X>X>X>X>X>X>X>X>Xl l k l >X>X>X>X> >     >X>X>X>X@ @ , , >X>X>X",
">X>X>X>Xl l j y >X>X>X>X> >   >X>X>X>X@ ; , , >X>X>X>X>X>X>X>X>X>X>X>X>X>X>X>X>X>Xk l y y >X>X>X>X> > @ @ >X>X>X>X; @ , , >X>X>X",
">X>X>X>X0 0 P P S S S S @ ;   S S S S ; ; @ & >X>X>X>X>X>X>X>X>X>X>X>X>X>X>X>X>X>X0 0 P P S S S S @ @     S S S S ; & &   >X>X>X",
">X>X>X>X0 0 P P S S S S @ @   K S S K ; : @ @ >X>X>X>X>X>X>X>X>X>X>X>X>X>X>X>X>X>X0 0 P P S S S S ; @     K S S S ; ; & & >X>X>X",
">X>X>X>X>X>X>X>XO.O./ / X.X.} q q Z B >X>X>X>X>X>X>X>X>X>X>X>X>X>X>X>X>X>X>X>X>X>X>X>X>X>XO.O.( / X.X.....q q I S >X>X>X>X>X>X>X",
">X>X>X>X>X>X>X>XO.O./ / X.o...q q I I >X>X>X>X>X>X>X>X>X>X>X>X>X>X>X>X>X>X>X>X>X>X>X>X>X>XO.O./ / o.o.....q q I I >X>X>X>X>X>X>X",
">X>X>X>X>X>X>X>XJ J ;.;.Q Q  .6 6 z z >X>X>X>X>X>X>X>X>X>X>X>X>X>X>X>X>X>X>X>X>X>X>X>X>X>X` ` ' ^ ~ W / ( F F Y Y >X>X>X>X>X>X>X",
">X>X>X>X>X>X>X>XJ J ;.;.Q Q  .6 6 z M >X>X>X>X>X>X>X>X>X>X>X>X>X>X>X>X>X>X>X>X>X>X>X>X>X>X` ` ' ^ / W / ( F F Y Y >X>X>X>X>X>X>X",
">X>X>X>X>X>X>X>X>X>X>X>X>X>X>X>X>X>X>X>X>X>X>X>X>X>X>X>X>X>X>X>X>X>X>X>X>X>X>X>X>X>X>X>X>X>X>X>X>X>X>X>X>X>X>X>X>X>X>X>X>X>X>X>X"
};
