/* XPM */
static char *af029f40f1d4477bf0d567233fb0be0c[] = {
/* columns rows colors chars-per-pixel */
"64 64 211 2 ",
"   c black",
".  c #010101",
"X  c #020000",
"o  c #000201",
"O  c #010003",
"+  c #000303",
"@  c #020202",
"#  c #050000",
"$  c #050100",
"%  c #020005",
"&  c #040404",
"*  c #060606",
"=  c #070707",
"-  c #0D0000",
";  c #080004",
":  c #080204",
">  c #000B01",
",  c #000F0D",
"<  c gray4",
"1  c #0E0E0B",
"2  c #0F0F0C",
"3  c #0E0E0E",
"4  c gray6",
"5  c #100E0A",
"6  c #13130E",
"7  c #0C0F11",
"8  c #0E1111",
"9  c #0D1515",
"0  c #0C1A1B",
"q  c #101010",
"w  c #111111",
"e  c #111112",
"r  c #131615",
"t  c #121517",
"y  c gray8",
"u  c #151414",
"i  c #141415",
"p  c #151515",
"a  c #171714",
"s  c gray9",
"d  c #191411",
"f  c #131817",
"g  c #1C1A16",
"h  c #121419",
"j  c #161619",
"k  c #14161B",
"l  c #181818",
"z  c #191818",
"x  c #191919",
"c  c #1A1919",
"v  c #1B1B1B",
"b  c #1B1E1D",
"n  c #191C1E",
"m  c #1B1E1E",
"M  c gray11",
"N  c #1D1D1D",
"B  c #1E1E1E",
"V  c gray12",
"C  c #21160F",
"Z  c #231E18",
"A  c #1B230F",
"S  c #15251B",
"D  c #1C201A",
"F  c #162B1F",
"G  c #23211D",
"H  c #20211E",
"J  c #1E0A20",
"K  c #1F1C20",
"L  c #1C1F21",
"P  c #0F2525",
"I  c #0F2D23",
"U  c #0C2C27",
"Y  c #1A2126",
"T  c #182627",
"R  c #152827",
"E  c #192826",
"W  c #1A2927",
"Q  c #19262A",
"!  c #19272B",
"~  c #162928",
"^  c #172A29",
"/  c #152B2C",
"(  c #192B28",
")  c #1B2A28",
"_  c #182B2A",
"`  c #1F2E2C",
"'  c #1C2D2F",
"]  c #0F3427",
"[  c #1A2A30",
"{  c #1E2F31",
"}  c #1C2E33",
"|  c #1D2139",
" . c #1D3031",
".. c #1F3231",
"X. c #1F3032",
"o. c #1E3132",
"O. c #1F3233",
"+. c #1A3F3E",
"@. c #212020",
"#. c gray13",
"$. c #232323",
"%. c #272B25",
"&. c #202E2F",
"*. c #2E2C34",
"=. c #203133",
"-. c #263432",
";. c #213435",
":. c #293A3C",
">. c #293C3D",
",. c #2A3D3E",
"<. c #2B3E3F",
"1. c #313F3A",
"2. c #313E3F",
"3. c #2D443D",
"4. c #36433C",
"5. c #33483E",
"6. c #293B40",
"7. c #2C3F40",
"8. c #244442",
"9. c #2D4041",
"0. c #2E4142",
"q. c #2F4641",
"w. c #2D4444",
"e. c #2F4D40",
"r. c #2B4D47",
"t. c #2E4F47",
"y. c #23454A",
"u. c #2D4548",
"i. c #274848",
"p. c #2E4A49",
"a. c #2D494B",
"s. c #2F4A4C",
"d. c #354344",
"f. c #304646",
"g. c #354646",
"h. c #304D44",
"j. c #3A4944",
"k. c #3E4D45",
"l. c #3E4C47",
"z. c #344748",
"x. c #39464A",
"c. c #344A4B",
"v. c #374A4B",
"b. c #354E4B",
"n. c #31494C",
"m. c #33494D",
"M. c #354C4D",
"N. c #344C4F",
"B. c #3D4C48",
"V. c #39504B",
"C. c #3F534D",
"Z. c #254A55",
"A. c #2C4A53",
"S. c #334E50",
"D. c #334C5D",
"F. c #2C545E",
"G. c #355751",
"H. c #365757",
"J. c #395557",
"K. c #4D504F",
"L. c #50504B",
"P. c #51524F",
"I. c #435753",
"U. c #525350",
"Y. c #565450",
"T. c #5D7675",
"R. c #6B7B73",
"E. c #617E7A",
"W. c #657A7E",
"Q. c #F86B00",
"!. c #FE6A00",
"~. c #FF7400",
"^. c #FF7500",
"/. c #64817F",
"(. c #64857D",
"). c #6E8379",
"_. c #6E827E",
"`. c #DA8C09",
"'. c #DC9100",
"]. c #E18400",
"[. c #E18F00",
"{. c #E58D00",
"}. c #E88C00",
"|. c #E88A09",
" X c #E69000",
".X c #FECF00",
"XX c #FFC709",
"oX c #FFDC07",
"OX c #FFD00D",
"+X c #637E86",
"@X c #697B82",
"#X c #6C7F81",
"$X c #5B8284",
"%X c #658180",
"&X c #678381",
"*X c #648082",
"=X c #658583",
"-X c #658086",
";X c #668286",
":X c #6A8382",
">X c #6E8880",
",X c #61838A",
"<X c #668088",
"1X c #618689",
"2X c #68878C",
"3X c #6D848D",
"4X c #6D888A",
"5X c #738A83",
"6X c #738A85",
"7X c #70888D",
"8X c None",
/* pixels */
"8X8X8X8X8X8X8X8X8X8X8X8X8X8X8X8X8X8X8X8X8X8X8X8X8X8X8X8X8X8X8X8X8X8X8X8X8X8X8X8X8X8X8X8X8X8X8X8X8X8X8X8X8X8X8X8X8X8X8X8X8X8X8X8X",
"8X8X8X8X8X8X8X8X8X8X8X8X8X8X8X8X8X8X8X8X8X8X8X8X8X8X8X8X8X8X8X8X8X8X8X8X8X8X8X8X8X8X8X8X8X8X8X8X8X8X8X8X8X8X8X8X8X8X8X8X8X8X8X8X",
"8X8X8X8X8X8X8X8X8X8X8X8X8X8X8X8X8X8X8X8X8X8X8X8X8X8X8X8X8X8X8X8X8X8X8X8X8X8X8X8X8X8X8X8X8X8X8X8X8X8X8X8X8X8X8X8X8X8X8X8X8X8X8X8X",
"8X8X8X8X8X8X8X8X8X8X8X8X8X8X8X8X8X8X8X8X8X8X8X8X8X8X8X8X8X8X8X8X8X8X8X8X8X8X8X8X8X8X8X8X8X8X8X8X8X8X8X8X8X8X8X8X8X8X8X8X8X8X8X8X",
"8X8X8X8X8X8X8X8X8X8X8X8X8X8X8X8X8X8X8X8X8X8X8X8X8X8X8X8X8X8X8X8X8X8X8X8X8X8X8X8X8X8X8X8X8X8X8X8X8X8X8X8X8X8X8X8X8X8X8X8X8X8X8X8X",
"8X8X8X8X8X8X8X8X8X8X8X8X8X8X8X8X8X8X8X8X8X8X8X8X8X8X8X8X8X8X8X8X8X8X8X8X8X8X8X8X8X8X8X8X8X8X8X8X8X8X8X8X8X8X8X8X8X8X8X8X8X8X8X8X",
"8X8X8X8X8X8X8X8X8X8X8X8X8X8X8X8X8X8X8X8X8X8X8X8X8X8X8X8X8X8X8X8X8X8X8X8X8X8X8X8X8X8X8X8X8X8X8X8X8X8X8X8X8X8X8X8X8X8X8X8X8X8X8X8X",
"8X8X8X8X8X8X8X8X8X8X8X8X8X8X8X8X8X8X8X8X8X8X8X8X8X8X8X8X8X8X8X8X8X8X8X8X8X8X8X8X8X8X8X8X8X8X8X8X8X8X8X8X8X8X8X8X8X8X8X8X8X8X8X8X",
"8X8X8X8X8X8X8X8X8X8X8X8X8X8X8X8X8X8X8X8X8X8X8X8X8X8X8X8X8X8X8X8X8X8X8X8X8X8X8X8X8X8X8X8X8X8X8X8X8X8X8X8X8X8X8X8X8X8X8X8X8X8X8X8X",
"8X8X8X8X8X8X8X8X8X8X8X8X8X8X8X8X8X8X8X8X8X8X8X8X8X8X8X8X8X8X8X8X8X8X8X8X8X8X8X8X8X8X8X8X8X8X8X8X8X8X8X8X8X8X8X8X8X8X8X8X8X8X8X8X",
"8X8X8X8X8X8X8X8X8X8X8X8X8X8X8X8X8X8X8X8X8X8X8X8X8X8X8X8X8X8X8X8X8X8X8X8X8X8X8X8X8X8X8X8X8X8X8X8X8X8X8X8X8X8X8X8X8X8X8X8X8X8X8X8X",
"8X8X8X8X8X8X8X8X8X8X8X8X8X8X8X8X8X8X8X8X8X8X8X8X8X8X8X8X8X8X8X8X8X8X8X8X8X8X8X8X8X8X8X8X8X8X8X8X8X8X8X8X8X8X8X8X8X8X8X8X8X8X8X8X",
"8X8X8X8X8X8X8X8X8X8X8X8X8X8X8X8X8X8X8X8X8X8X8X8X8X8X8X8X8X8X8X8X8X8X8X8X8X8X8X8X8X8X8X8X8X8X8X8X8X8X8X8X8X8X8X8X8X8X8X8X8X8X8X8X",
"8X8X8X8X8X8X8X8X8X8X8X8X8X8X8X8X8X8X8X8X8X8X8X8X8X8X8X8X8X8X8X8X8X8X8X8X8X8X8X8X8X8X8X8X8X8X8X8X8X8X8X8X8X8X8X8X8X8X8X8X8X8X8X8X",
"8X8X8X8X8X8X8X8X8X8X8X8X8X8X8X8X8X8X8X8X8X8X8X8X8X8X8X8X8X8X8X8X8X8X8X8X8X8X8X8X8X8X8X8X8X8X8X8X8X8X8X8X8X8X8X8X8X8X8X8X8X8X8X8X",
"8X8X8X8X8X8X8X8X8X8X8X8X8X8X8X8X8X8X8X8X8X8X8X8X8X8X8X8X8X8X8X8X8X8X8X8X8X8X8X8X8X8X8X8X8X8X8X8X8X8X8X8X8X8X8X8X8X8X8X8X8X8X8X8X",
"8X8X8X8X8X8X8X8X8X8X8X8X8X8X8X8X8X8X8X8X8X8X8X8X8X8X8X8X8X8X8X8X8X8X8X8X8X8X8X8X8X8X8X8X8X8X8X8X8X8X8X8X8X8X8X8X8X8X8X8X8X8X8X8X",
"8X8X8X8X8X8X8X8X8X8X8X8X8X8X8X8X8X8X8X8X8X8X8X8X8X8X8X8X8X8X8X8X8X8X8X8X8X8X8X8X8X8X8X8X8X8X8X8X8X8X8X8X8X8X8X8X8X8X8X8X8X8X8X8X",
"8X8X8X8X8X8X8X8X8X8X8X8X8X8X8X8X8X8X8X8X8X8X8X8X8X8X8X8X8X8X8X8X8X8X8X8X8X8X8X8X8X8X8X8X8X8X8X8X8X8X8X8X8X8X8X8X8X8X8X8X8X8X8X8X",
"8X8X8X8X8X8X8X8X8X8X8X8X8X8X8X8X8X8X8X8X8X8X8X8X8X8X8X8X8X8X8X8X8X8X8X8X8X8X8X8X8X8X8X8X8X8X8X8X8X8X8X8X8X8X8X8X8X8X8X8X8X8X8X8X",
"8X8X8X8X8X8X8X8X8X8X8X8X8X8X8X8X8X8X8X8X8X8X8X8X8X8X8X8X8X8X8X8X8X8X8X8X8X8X8X8X8X8X8X8X8X8X8X8X8X8X8X8X8X8X8X8X8X8X8X8X8X8X8X8X",
"8X8X8X8X8X8X8X8X8X8X8X8X8X8X8X8X8X8X8X8X8X8X8X8X8X8X8X8X8X8X8X8X8X8X8X8X8X8X8X8X8X8X8X8X8X8X8X8X8X8X8X8X8X8X8X8X8X8X8X8X8X8X8X8X",
"8X8X8X8X8X8X8X8X8X8X8X8X8X8X8X8X8X8X8X8X8X8X8X8X8X8X8X8X8X8X8X8X8X8X8X8X8X8X8X8X8X8X8X8X8X8X8X8X8X8X8X8X8X8X8X8X8X8X8X8X8X8X8X8X",
"8X8X8X8X8X8X8X8X8X8X8X8X8X8X8X8X8X8X8X8X8X8X8X8X8X8X8X8X8X8X8X8X8X8X8X8X8X8X8X8X8X8X8X8X8X8X8X8X8X8X8X8X8X8X8X8X8X8X8X8X8X8X8X8X",
"8X8X8X8X8X8X8X8X8X8X8X8X8X8X8X8X8X8X8X8X8X8X8X8X8X8X8X8X8X8X8X8X8X8X8X8X8X8X8X8X8X8X8X8X8X8X8X8X8X8X8X8X8X8X8X8X8X8X8X8X8X8X8X8X",
"8X8X8X8X8X8X8X8X8X8X8X8X8X8X8X8X8X8X8X8X8X8X8X8X8X8X8X8X8X8X8X8X8X8X8X8X8X8X8X8X8X8X8X8X8X8X8X8X8X8X8X8X8X8X8X8X8X8X8X8X8X8X8X8X",
"8X8X8X8X8X8X8X8X8X8X8X8X8X8X8X8X8X8X8X8X8X8X8X8X8X8X8X8X8X8X8X8X8X8X8X8X8X8X8X8X8X8X8X8X8X8X8X8X8X8X8X8X8X8X8X8X8X8X8X8X8X8X8X8X",
"8X8X8X8X8X8X8X8X8X8X8X8X8X8X8X8X8X8X8X8X8X8X8X8X8X8X8X8X8X8X8X8X8X8X8X8X8X8X8X8X8X8X8X8X8X8X8X8X8X8X8X8X8X8X8X8X8X8X8X8X8X8X8X8X",
"8X8X8X8X8X8X8X8X8X8X8X8X8X8X8X8X8X8X8X8X8X8X8X8X8X8X8X8X8X8X8X8X8X8X8X8X8X8X8X8X8X8X8X8X8X8X8X8X8X8X8X8X8X8X8X8X8X8X8X8X8X8X8X8X",
"8X8X8X8X8X8X8X8X8X8X8X8X8X8X8X8X8X8X8X8X8X8X8X8X8X8X8X8X8X8X8X8X8X8X8X8X8X8X8X8X8X8X8X8X8X8X8X8X8X8X8X8X8X8X8X8X8X8X8X8X8X8X8X8X",
"8X8X8X8X8X8X8X8X8X8X8X8X8X8X8X8X8X8X8X8X8X8X8X8X8X8X8X8X8X8X8X8X8X8X8X8X8X8X8X8X8X8X8X8X8X8X8X8X8X8X8X8X8X8X8X8X8X8X8X8X8X8X8X8X",
"8X8X8X8X8X8X8X8X8X8X8X8X8X8X8X8X8X8X8X8X8X8X8X8X8X8X8X8X8X8X8X8X8X8X8X8X8X8X8X8X8X8X8X8X8X8X8X8X8X8X8X8X8X8X8X8X8X8X8X8X8X8X8X8X",
"8X8X8X8X8X8X8X8X8X8X8X8X8X8X8X8X8X8X8X8Xu d j e @ @ 8X8X8X8X8X8X8X8X8X8X8X8X8Xu d u e @ @ 8X8X8X8X8X8X8X8X8X8X8X8X8X8X8X8X8X8X8X",
"8X8X8X8X8X8X8X8X8X8X8X8X8X8X8X8X8X8X8X8 N 2 e z @ @ @ 8X8X8X8X8X8X8X8X8X8X8X7 N 2 e z @ @ @ 8X8X8X8X8X8X8X8X8X8X8X8X8X8X8X8X8X8X",
"8X8X8X8X8X8X8X8X8X8X8X8X8X8X8X8X8X8Xz f t n $.8 z & @ & 8X8X8X8X8X8X8X8X8Xz u f N $.7 M @ @ & 8X8X8X8X8X8X8X8X8X8X8X8X8X8X8X8X8X",
"8X8X8X8X8X8X8X8X8X8X8X8X8X8X8X8X8X8X5 6 H K.z #.< @ @ @ 8X8X8X8X8X8X8X8X8X2 6 H K.z @.< @ @ @ 8X8X8X8X8X8X8X8X8X8X8X8X8X8X8X8X8X",
"8X8X8X8X8X8X8X8X8X8X8X8X8X8X8X8X8X8Xu G L.L.@.Z N @ @ @ 8X8X8X8X8X8X8X8X8Xu H L.L.N H N @ @ @ 8X8X8X8X8X8X8X8X8X8X8X8X8X8X8X8X8X",
"8X8X8X8X8X8X8X8X8X8X8X8X8X8X8X8X8X8Xh g Y.U.Y 5 2 @ @ & 8X8X8X8X7.8X8X8X8Xt g Y.Y.Y 2 q @ @ & 8X8X8X8X8X8X8X8X8X8X8X8X8X8X8X8X8X",
"8X8X8X8X8X8X8X8X8X8X8X8X8X8X8X8X8X8Xn H z n N N @ @ @ @ 8X8X8X7.g.7.8X8X8Xn @.c n N z @ @ @ @ 8X8X8X8X8X8X8X8X8X8X8X8X8X8X8X8X8X",
"8X8X8X8X8X8X8X8X8X8X8X8X8X8X8X8X8X8X8 e L Y y e @ @ @ @ 8X8X7.7.y.7.7.8X8Xe e L Y u u @ @ @ @ 8X8X8X8X8X8X8X8X8X8X8X8X8X8X8X8X8X",
"8X8X8X8X8X8X8X8X8X8X8X8X8X8X8X8X8X8XC.H.).$Xz.v.:.>.O.` C.H.7.v.v.>.>.` ` C.H.).$Xv.v.:.>.O.` 8X8X8X8X8X8X8X8X8X8X8X8X8X8X8X8X8X",
"8X8X8X8X8X8X8X8X8X8X8X8X8X8X8X8X8X8Xw.Z.S.I.<.w.O.=._ W Z.N.I.7.7.=.;.W W w.Z.N.I.>.w.O.;.^ W 8X8X8X8X8X8X8X8X8X8X8X8X8X8X8X8X8X",
"8X8X8X8X8X8X8X8X8X8X8X8X8X8X8X8X8X8XB.v.<XW.:.>.` } R T k.W.W.7.7.O.O.^ _ l.v.<X@X:.:.` { R W 8X8X8X8X8X8X8X8X8X8X8X8X8X8X8X8X8X",
"8X8X8X8X8X8X8X8X8X8X8X8X8X8X8X8X8X8X1.g.7X+X<.w.O.O.^ W 9.7X;X7.7.O.O.^ _ 1.f.7X+X7.7.{ O._ W 8X8X8X8X8X8X8X8X8X8X8X8X8X8X8X8X8X",
"8X8X8X8X8X8X8X8X8X8X8X8X8X8X8X8X8X8Xs.F.T.5X<.3.O.X.^ W 1.T.7X7.7.O.O.^ ^ s.F.T.5X>.7.=.=._ W 8X8X8X8X8X8X8X8X8X8X8X8X8X8X8X8X8X",
"8X8X8X8X8X8X8X8X8X8X8X8X8X8X8X8X8X8XN.y._./.<.<.O.X.^ _ m.7XT.7.7.O.O.^ ^ M.y.>X/.>.7.{ X.^ W 8X8X8X8X8X8X8X8X8X8X8X8X8X8X8X8X8X",
"8X8X8X8X8X8X8X8X8X8X8X8X8X8X8X8X8X8X4.j.:X1X>.7.{ X._ _ M.1XT.<.7.O.O.^ ^ 4.j.&X$X>.<.{ X.^ _ 8X8X8X8X8X8X8X8X8X8X8X8X8X8X8X8X8X",
"8X8X8X8X8X8X8X8X8X8X8X8X8X8X8X8X8X8Xk.f.,X_.<.7.` O.T W 7.&X1X<.7.O.O.^ ^ B.f.,X_.w.3.{ X.^ W 8X8X8X8X8X8X8X8X8X8X8X8X8X8X8X8X8X",
"8X8X8X8X8X8X8X8X8X8X8X8X8X8X8X8X8X8XM.m.R.(.>.w.{ O.^ W w.R.3X<.3.O.O.^ ^ m.m.R.(.7.7.{ O.^ W 8X8X8X8X8X8X8X8X8X8X8X8X8X8X8X8X8X",
"8X8X8X8X8X8X8X8X8X8X8X8X8X8X8X8X8X8Xm.s.5X=X>.w.{ =.^ W M.3X+X<.7.O.O.^ ^ m.a.5X&X7.7.{ O.^ W 8X8X8X8X8X8X8X8X8X8X8X8X8X8X8X8X8X",
"8X8X8X8X8X8X8X8X8X8X8X8X8X8X8X8X8X8Xa.i.*X+X>.>.{ O.^ W a.:X;X7.7.X.O.^ ^ a.i./.+X7.w.` O.^ W 8X8X8X8X8X8X8X8X8X8X8X8X8X8X8X8X8X",
"8X8X8X8X8X8X8X8X8X8X8X8X8X8X8X8X8X8Xb.r.*X3X9.9.{ O.^ W <.=X:X3.9.X.O.^ ^ b.r.+X3X7.>.O.O.^ W 8X8X8X8X8X8X8X8X8X8X8X8X8X8X8X8X8X",
"8X8X8X8X8X8X8X8X8X8X8X8X8X8X8X8X8X8X3.h.4X@X<.7.{ O.^ W V.3X#X<.7.X.O./ ^ 3.h.4X@X9.3.{ O.^ W 8X8X8X8X8X8X8X8X8X8X8X8X8X8X8X8X8X",
"8X8X8X8X8X8X8X8X8X8X8X8X8X8X8X8X8X8XV.5.&X#X<.<.{ O.^ W <.:X:X<.7.X.O.^ ^ V.5.&X@X>.7.{ O.^ W 8X8X8X8X8X8X8X8X8X8X8X8X8X8X8X8X8X",
"8X8X8X8X8X8X8X8X8X8X8X8X8X8X8X8X8X8Xu.l.;X:X<.<.{ O.^ W <.2X/.w.w.O.O.^ ^ u.B.+X:X6.7.{ O.^ W 8X8X8X8X8X8X8X8X8X8X8X8X8X8X8X8X8X",
"8X8X8X8X8X8X8X8X8X8X8X8X8X8X8X8X8X8XA.d.2X/.<.w.{ O.^ W t.J.k.x.8.*.*.U U A.d.2X(.7.7.{ O.^ W 8X8X8X8X8X8X8X8X8X8X8X8X8X8X8X8X8X",
"8X8X8X8X8X8X8X8X8X8X8X8X8X8X8X8X8X8Xt.x.J.k.2.8.%.*.I F 8X8X<.y.5.>.7.8X8Xt.x.J.k.2.8.%.*.U E 8X8X8X8X8X8X8X8X8X8X8X8X8X8X8X8X8X",
"8X8X8X8X8X8X8X8X8X8X8X8X8X8X8X8X8X8Xq.e.D.G.+.>.&.-.I ] 8X8X8Xw.j.w.8X8X8Xq.e.D.G.+.:.&.-.I ] 8X8X8X8X8X8X8X8X8X8X8X8X8X8X8X8X8X",
"8X8X8X8X8X8X8X8X8X8X8X8X8X8X8X8X8X8XD Z oX.XC f {.`.@ ; 8X8X8X8X<.8X8X8X8XD Z oX.XC t {.`.@ ; 8X8X8X8X8X8X8X8X8X8X8X8X8X8X8X8X8X",
"8X8X8X8X8X8X8X8X8X8X8X8X8X8X8X8X8X8Xu A XXOX5 k ].|.- % 8X8X8X8X8X8X8X8X8Xu A XXOX2 j ].|.- % 8X8X8X8X8X8X8X8X8X8X8X8X8X8X8X8X8X",
"8X8X8X8X8X8X8X8X8X8X8X8X8X8X8X8X8X8Xk h {.'.> @ ~.Q.$ , 8X8X8X8X8X8X8X8X8Xk h  X'.> @ ~.Q.$ , 8X8X8X8X8X8X8X8X8X8X8X8X8X8X8X8X8X",
"8X8X8X8X8X8X8X8X8X8X8X8X8X8X8X8X8X8X9 J [.}.$ @ ~.!.: % 8X8X8X8X8X8X8X8X8X9 J [.}.$ @ ~.!.: @ 8X8X8X8X8X8X8X8X8X8X8X8X8X8X8X8X8X",
"8X8X8X8X8X8X8X8X8X8X8X8X8X8X8X8X8X8X8X8X| ! { [ 0 L 8X8X8X8X8X8X8X8X8X8X8X8X8X| ! { [ 0 L 8X8X8X8X8X8X8X8X8X8X8X8X8X8X8X8X8X8X8X",
"8X8X8X8X8X8X8X8X8X8X8X8X8X8X8X8X8X8X8X8X^ _ T ! S P 8X8X8X8X8X8X8X8X8X8X8X8X8X/ _ T ! S P 8X8X8X8X8X8X8X8X8X8X8X8X8X8X8X8X8X8X8X"
};
