/* XPM */
static char *_f1c27f033d544f9b471466182aaaf73[] = {
/* columns rows colors chars-per-pixel */
"64 64 201 2 ",
"   c black",
".  c #010101",
"X  c #020000",
"o  c #000201",
"O  c #010003",
"+  c #000303",
"@  c #020202",
"#  c #050000",
"$  c #050100",
"%  c #020005",
"&  c #040404",
"*  c #060606",
"=  c #070707",
"-  c #0D0000",
";  c #080004",
":  c #080204",
">  c #000B01",
",  c #000F0D",
"<  c gray4",
"1  c #0E0E0B",
"2  c #0F0F0C",
"3  c #0E0E0E",
"4  c gray6",
"5  c #100E0A",
"6  c #0E1F0C",
"7  c #13130E",
"8  c #0C0F11",
"9  c #0E1111",
"0  c #0D1515",
"q  c #0C1A1B",
"w  c #101010",
"e  c #111111",
"r  c #111112",
"t  c #131615",
"y  c #121517",
"u  c gray8",
"i  c #151414",
"p  c #141415",
"a  c #151515",
"s  c #171714",
"d  c gray9",
"f  c #191411",
"g  c #131817",
"h  c #1C1A16",
"j  c #121419",
"k  c #161619",
"l  c #14161B",
"z  c #151C1F",
"x  c #181818",
"c  c #191818",
"v  c #191919",
"b  c #1A1919",
"n  c #1B1B1B",
"m  c #1B1E1D",
"M  c #191C1E",
"N  c #1B1E1E",
"B  c gray11",
"V  c #1D1D1D",
"C  c #1E1E1E",
"Z  c gray12",
"A  c #21160F",
"S  c #231E18",
"D  c #1B230F",
"F  c #15251B",
"G  c #1C201A",
"H  c #162B1F",
"J  c #0A331E",
"K  c #23211D",
"L  c #20211E",
"P  c #1E0A20",
"I  c #1F1C20",
"U  c #1C1F21",
"Y  c #0F2525",
"T  c #0F2D23",
"R  c #0C2C27",
"E  c #1A2126",
"W  c #182627",
"Q  c #1C2525",
"!  c #152827",
"~  c #192826",
"^  c #1A2927",
"/  c #19262A",
"(  c #19272B",
")  c #162928",
"_  c #172A29",
"`  c #152B2C",
"'  c #192B28",
"]  c #1B2A28",
"[  c #182B2A",
"{  c #1F2E2C",
"}  c #1C2D2F",
"|  c #0F3427",
" . c #152633",
".. c #1A2A30",
"X. c #1E2F31",
"o. c #1C2E33",
"O. c #1D2139",
"+. c #1D3031",
"@. c #1F3231",
"#. c #1F3032",
"$. c #1E3132",
"%. c #1F3233",
"&. c #1A3F3E",
"*. c #212020",
"=. c gray13",
"-. c #232323",
";. c #262324",
":. c #272B25",
">. c #202E2F",
",. c #2E2C34",
"<. c #203133",
"1. c #263432",
"2. c #213435",
"3. c #293A3C",
"4. c #293C3D",
"5. c #2A3D3E",
"6. c #2B3E3F",
"7. c #313F3A",
"8. c #313E3F",
"9. c #2D443D",
"0. c #36433C",
"q. c #33483E",
"w. c #293B40",
"e. c #2C3F40",
"r. c #244442",
"t. c #2D4041",
"y. c #2E4142",
"u. c #2F4641",
"i. c #2D4444",
"p. c #2F4D40",
"a. c #2B4D47",
"s. c #2E4F47",
"d. c #23454A",
"f. c #2D4548",
"g. c #274848",
"h. c #2E4A49",
"j. c #2D494B",
"k. c #2F4A4C",
"l. c #354344",
"z. c #304646",
"x. c #354646",
"c. c #304D44",
"v. c #3A4944",
"b. c #3E4D45",
"n. c #3E4C47",
"m. c #344748",
"M. c #39464A",
"N. c #344A4B",
"B. c #374A4B",
"V. c #354E4B",
"C. c #31494C",
"Z. c #33494D",
"A. c #354C4D",
"S. c #344C4F",
"D. c #3D4C48",
"F. c #39504B",
"G. c #3F534D",
"H. c #254A55",
"J. c #2C4A53",
"K. c #334E50",
"L. c #334C5D",
"P. c #2C545E",
"I. c #355751",
"U. c #365757",
"Y. c #395557",
"T. c #4D504F",
"R. c #50504B",
"E. c #51524F",
"W. c #435753",
"Q. c #525350",
"!. c #565450",
"~. c #5D7675",
"^. c #6B7B73",
"/. c #617E7A",
"(. c #657A7E",
"). c #64817F",
"_. c #64857D",
"`. c #6E8379",
"'. c #6E827E",
"]. c #637E86",
"[. c #697B82",
"{. c #6C7F81",
"}. c #5B8284",
"|. c #658180",
" X c #678381",
".X c #648082",
"XX c #658583",
"oX c #658086",
"OX c #668286",
"+X c #6A8382",
"@X c #6E8880",
"#X c #61838A",
"$X c #668088",
"%X c #618689",
"&X c #68878C",
"*X c #6D848D",
"=X c #6D888A",
"-X c #738A83",
";X c #738A85",
":X c #70888D",
">X c None",
/* pixels */
">X>X>X>X>X>X>Xu u f f d d e e         >X>X>X>X>X>X>X>X>X>X>X>X>X>X>X>X>X>X>X>X>X>X>X>X>X>Xd i f f d d 7 e         >X>X>X>X>X>X>X",
">X>X>X>X>X>X>Xd u f f d d e e         >X>X>X>X>X>X>X>X>X>X>X>X>X>X>X>X>X>X>X>X>X>X>X>X>X>Xu i f f d d e e         >X>X>X>X>X>X>X",
">X>X>X>X>X8 8 V B 2 2 w e c c             >X>X>X>X>X>X>X>X>X>X>X>X>X>X>X>X>X>X>X>X>X>X8 8 V V 4 2 2 8 c c             >X>X>X>X>X",
">X>X>X>X>X8 8 V V 5 2 w e c c             >X>X>X>X>X>X>X>X>X>X>X>X>X>X>X>X>X>X>X>X>X>X9 8 V V 1 2 e e c c             >X>X>X>X>X",
">X>X>Xc c d d t t N V -.-.4 4 c N @ *     = = >X>X>X>X>X>X>X>X>X>X>X>X>X>X>X>X>X>Xc c d x t t G V -.-.2 w M c * *     = = >X>X>X",
">X>X>Xc c d d t t N G =.-.9 8 V c * @     = = >X>X>X>X>X>X>X>X>X>X>X>X>X>X>X>X>X>Xc c d k t t V N -.-.8 2 B B * &     = = >X>X>X",
">X>X>X1 1 7 7 L G T.T.c c =.=.< <           & >X>X>X>X>X>X>X>X>X>X>X>X>X>X>X>X>X>X1 4 7 7 G L T.T.x x =.=.< <         &   >X>X>X",
">X>X>X1 1 7 7 L =.T.T.c c =.=.< 4         &   >X>X>X>X>X>X>X>X>X>X>X>X>X>X>X>X>X>X1 1 7 7 =.=.T.T.c x =.=.< <           & >X>X>X",
">X>X>Xp d K K R.R.Q.T.V V I I V S O           >X>X>X>X>X>X>X>X>X>X>X>X>X>X>X>X>X>Xp p L K R.R.Q.R.=.V =.=.V V             >X>X>X",
">X>X>Xp t K K R.T.Q.Q.I S Q =.G I             >X>X>X>X>X>X>X>X>X>X>X>X>X>X>X>X>X>Xd u K L R.R.R.Q.V V V V V =.            >X>X>X",
">X>X>Xt t c h !.!.!.Q.S I 2 8 2 2     @   = * >X>X>X>X>X>X>X>Xe.t.>X>X>X>X>X>X>X>Xt t h h !.!.Q.Q.I V e 4 4 e     &   * * >X>X>X",
">X>X>Xj t h h !.!.R.Q.Q I 8 2 w e   @   O = * >X>X>X>X>X>X>X>Xe.6.>X>X>X>X>X>X>X>Xj p h h !.!.Q.E.Q V 4 4 4 e         < * >X>X>X",
">X>X>XN N I =.c c N N c V V V     @ @         >X>X>X>X>X>Xe.e.x.x.t.6.>X>X>X>X>X>XN M I =.c c N V B B V V                 >X>X>X",
">X>X>XM N I =.c c N N M V V V     @ @         >X>X>X>X>X>Xe.e.x.x.6.t.>X>X>X>X>X>XM N I =.c c N V B B V V       *         >X>X>X",
">X>X>X9 9 e 9 I Q E E p d e d             @ @ >X>X>X>Xe.e.e.e.d.d.6.t.6.t.>X>X>X>X9 9 p e I U E E u i d d                 >X>X>X",
">X>X>X9 9 e e Q I E U d e d d             @ @ >X>X>X>Xe.e.e.e.d.d.t.6.t.6.>X>X>X>X9 9 e e Q U E E u u u d             *   >X>X>X",
">X>X>XG.G.U.U.`.`.}.}.m.m.B.B.4.3.4.4.+.<.{ { G.G.U.U.6.6.B.B.B.B.4.4.4.4.{ { >.} G.G.U.U.`.`.}.}.m.m.B.B.3.3.4.4.<.@.>.] >X>X>X",
">X>X>XG.G.U.U.`.`.}.}.m.m.B.B.4.3.4.6.+.@.>.{ G.W.U.U.6.6.B.B.B.B.4.4.4.4.{ { >.} G.G.U.U.`.`.}.}.z.m.B.N.6.3.4.4.@.@.>.{ >X>X>X",
">X>X>Xi.i.H.H.K.K.W.W.e.e.y.y.<.>.2.2.[ ' ] ~ H.H.K.K.W.W.e.e.e.9.<.<.2.2.~ ^ ^ ~ i.i.H.H.K.K.W.W.e.e.t.y.<.<.2.2.[ [ ^ ^ >X>X>X",
">X>X>Xi.i.H.H.K.K.W.W.e.e.t.y.<.<.<.2.} ' ~ ~ H.H.K.K.W.W.e.e.e.6.<.<.2.2.~ ~ [ ^ i.i.H.H.K.V.W.W.e.t.y.y.<.<.2.2.[ [ ^ ^ >X>X>X",
">X>X>Xn.D.N.N.$X$X(.(.4.4.4.6.} } +.X.! ) ~ ~ n.n.(.(.(.(.e.e.e.6.<.<.%.<.' ) [ ' n.n.B.N.OX].(.(.6.4.6.6.} } +.} ! ) ~ ^ >X>X>X",
">X>X>Xn.D.N.N.$X].(.(.6.4.6.4.X.} +.X.! ) ~ ~ n.n.(.(.(.(.e.e.e.e.<.%.%.+.[ [ ) ) D.n.B.A.$X$X[.(.4.4.6.4.} } +.+.) ) ~ ~ >X>X>X",
">X>X>X7.7.x.x.:X:XOXOX6.6.e.t.X.X.+.<.[ [ ] ~ t.e.:X:X].OXe.e.e.t.%.%.%.+.[ ) [ ) 7.9.x.x.:X*XOX].6.6.t.6.X.X.+.+.' [ ~ { >X>X>X",
">X>X>X7.7.x.x.:X:X].OXw.e.e.t.+.+.%.+.[ ) ] [ 9.e.:X:XOX].e.e.e.9.%.%.%.<.) [ ) [ 7.7.x.x.:X:X].OX6.6.e.t.X.X.<.+.[ [ ^ ~ >X>X>X",
">X>X>XC.k.P.P.~.~.-X-X6.6.t.t.>.<.<.%.) ~ ~ ~ 7.7.~.~.:X:Xe.e.e.w.<.%.%.%.) ' ) ) V.k.P.P.~.~.;X-X6.9.t.t.+.+.2.2.) [ ~ ~ >X>X>X",
">X>X>Xk.k.P.P.~.~.-X-X6.6.e.t.<.+.<.%.' [ ^ [ 0.7.~.~.:X:Xe.e.e.t.%.%.%.%.) ) [ ) C.k.P.P.~.~.;X-Xe.w.t.t.<.<.+.+.[ [ ~ ] >X>X>X",
">X>X>XA.A.d.d.@X'././.6.6.6.e.X.+.%.%.) [ ~ ~ C.h.:X:X~.~.e.e.e.e.%.%.%.%.) [ ) ' K.V.d.d.@X@X/./.6.6.w.e.>.X.<.2.[ ) ~ ~ >X>X>X",
">X>X>XA.A.d.d.@X@X/./.6.6.e.e.+.+.%.%.[ [ [ ~ C.k.:X:X~.~.e.e.e.e.%.%.%.%.[ ) [ ) C.V.d.d.@X@X/./.6.6.e.e.X.+.2.+.' [ [ ] >X>X>X",
">X>X>X0.0.v.v. X X%X%X6.6.6.t.>.X.<.%.) [ [ ] A.A.#X#X~.~.9.e.e.t.%.%.%.%.) [ ) ) 0.0.v.v. X X%X#X6.4.6.e.X.X.+.<.) [ ] ] >X>X>X",
">X>X>X0.0.v.v. X X%X%X6.6.w.6.+.+.%.%.[ [ ] ] A.A.#X#X~.~.w.e.e.t.%.%.%.%.[ ) [ [ 0.0.v.v. X X#X%X6.6.6.e.X.X.<.+.[ ) ] ] >X>X>X",
">X>X>XD.D.z.z.#X#X'.'.w.9.t.w.+.X.+.%.) W [ ^ e.e. X X#X%Xt.9.e.w.2.%.%.%.) [ ) [ D.n.z.z.#X#X'.'.6.6.6.e.X.+.+.<.) ) ~ ~ >X>X>X",
">X>X>XD.D.z.z.#X#X'.'.9.6.w.t.+.X.%.+.) ) ~ ^ 6.e. X X#X%Xt.w.e.t.%.%.%.%.[ ) [ [ D.n.z.z.#X#X'.'.6.6.6.e.+.<.%.+.) [ ~ ] >X>X>X",
">X>X>XS.S.A.C.^.^._.).9.6.e.e.X.+.%.+.[ [ ^ [ e.e.^.^.*X*Xe.e.e.t.+.%.%.%.[ ) [ ) S.S.Z.Z.^.^._._.6.6.w.e.X.X.%.%.) [ ~ ~ >X>X>X",
">X>X>XS.S.C.C.^.^._._.t.6.e.e.X.+.<.<.) ~ ^ ^ e.e.^.^.*X*Xe.e.e.t.%.%.%.%.[ [ ) [ K.S.A.Z.^.^._._.6.9.t.e.X.X.%.%.[ [ ^ ^ >X>X>X",
">X>X>XC.Z.j.k.;X;XXXXXw.6.e.e.X.+.<.<.[ [ ~ ~ A.K.*X*X].].e.e.e.t.%.%.%.+.[ ) [ ) C.k.k.j.;X;X X X6.w.w.e.X.X.%.%.[ ) ^ ^ >X>X>X",
">X>X>Xj.Z.j.h.;X;XXX X6.6.e.e.X.+.<.+.[ [ ~ [ C.A.*X*X].].e.e.e.6.+.%.%.%.) [ ) ) C.C.k.j.;X;XOXXXw.9.t.e.X.X.%.%.) [ [ ^ >X>X>X",
">X>X>Xh.h.g.g.).).].].6.6.e.e.X.+.%.%.) [ ~ ~ h.h.+X+XXXXXe.e.e.t.%.%.%.%.[ ) [ ) h.h.g.g. X X].oXw.9.w.e.X.X.%.<.) [ ^ ^ >X>X>X",
">X>X>Xh.h.g.g.). X].].6.6.e.e.X.>.<.+.} [ ~ ^ N.h.+X+XXXXXe.e.e.t.%.%.%.%.[ [ ) ) a.h.g.g.)..X].].t.t.w.e.X.X.%.+.[ [ ~ ^ >X>X>X",
">X>X>XA.V.a.a..X].*X*X6.6.e.e.X.+.%.%.) [ ~ [ e.e.XXXX+X+Xe.e.e.t.+.%.%.+.[ ) [ ) V.B.a.a.]..X*X*X6.6.w.e.X.X.%.<.[ [ ~ ^ >X>X>X",
">X>X>XA.V.a.a..X).*X*X6.6.e.e.X.+.%.%.[ [ ^ ~ e.e.XXXX+X+Xe.e.e.t.%.%.%.%.) [ ) [ V.V.a.a.)..X*X*X6.6.9.e.X.X.%.<.) [ ^ ^ >X>X>X",
">X>X>X9.9.c.c.=X=X(.[.6.6.6.e.X.X.%.%.) ' [ ^ B.F.*X*X{.{.e.e.e.t.2.+.2.%.[ ) [ ) 9.9.s.p.=X=X[.[.6.6.e.e.X.X.%.%.[ ~ ~ [ >X>X>X",
">X>X>X9.9.c.c.=X:X[.[.6.6.e.e.X.X.%.<.) ) [ ~ G.F.*X*X{.{.e.e.e.6.+.2.+.%.) [ ) [ 9.9.c.s.=X=X[.[.6.6.e.e.X.X.%.%.) [ ^ ^ >X>X>X",
">X>X>XF.F.q.q. X X+X+X6.6.e.e.X.X.%.%.[ [ ^ ~ 9.w.+X+X+X+Xe.e.e.t.2.+.2.%.[ ) [ ) F.F.q.q.(. X{.{.6.e.e.e.X.X.%.%.) [ [ ^ >X>X>X",
">X>X>XF.F.q.q.).(.{.{.6.6.e.e.X.X.%.%.) [ ^ [ e.9.+X+X+X+Xe.e.e.6.+.2.+.%.) [ ) [ F.F.q.q. X).{.{.6.w.e.e.X.X.%.%.[ ) ~ ^ >X>X>X",
">X>X>Xf.f.D.D.OXOX+X+Xt.6.e.e.X.+.+.<.) ~ ~ ^ 6.w.&X&X).).e.e.e.t.+.+.2.+.' ) [ ) f.f.D.D.OXOX+X+X6.6.e.e.X.X.%.<.) [ ^ ^ >X>X>X",
">X>X>Xf.f.D.D.OXXX+X+Xw.6.e.e.X.<.2.+.[ ) [ ^ e.9.=X&X.X).e.e.e.t.%.2.+.%.[ [ ) [ f.f.n.D.OXOX+X+X6.6.e.e.X.X.<.+.[ [ ~ ^ >X>X>X",
">X>X>XJ.J.l.x.&X&X).).6.6.e.e.X.X.<.+.[ [ ] ^ c.s.Y.Y.b.n.B.B.r.r.,.,.,.,.R R R R J.J.l.l.&X&X).).6.6.e.9.X.+.+.2.) [ ~ ^ >X>X>X",
">X>X>XJ.J.l.l.&X*X).).6.6.e.e.<.+.+.<.) [ ] ] a.s.Y.Y.b.n.B.B.r.r.,.,.,.,.R R R R J.J.l.l.&X&X).).6.6.e.6.X.<.2.+.[ [ ^ ^ >X>X>X",
">X>X>Xs.s.M.M.Y.Y.n.b.6.8.r.r.:.:.,.,.R R ~ H >X>X>X>Xe.e.d.d.q.q.e.e.e.e.>X>X>X>Xs.s.B.M.Y.Y.n.n.8.8.r.r.:.:.,.,.R R H H >X>X>X",
">X>X>Xs.s.N.M.Y.Y.n.n.0.8.r.r.:.:.,.,.R R H H >X>X>X>Xe.e.d.d.q.q.e.e.e.e.>X>X>X>Xs.s.N.M.Y.Y.n.n.8.8.r.r.:.:.,.,.R R H H >X>X>X",
">X>X>Xi.i.q.q.L.L.I.I.&.&.w.4.>.>.1.1.T T | | >X>X>X>X>X>Xe.e.v.v.e.e.>X>X>X>X>X>Xu.i.q.q.L.L.I.I.&.&.6.w.>.>.1.1.T T | | >X>X>X",
">X>X>Xq.p.p.p.L.L.I.I.&.&.w.w.>.>.1.1.T T | | >X>X>X>X>X>Xe.e.v.v.e.e.>X>X>X>X>X>Xu.p.p.p.L.L.I.I.&.&.4.w.>.>.1.1.T T | | >X>X>X",
">X>X>XG G K S S S S S A A t g S S S S @   ; ; >X>X>X>X>X>X>X>Xe.e.>X>X>X>X>X>X>X>XG G S S S S S S A A g g S S S S @ @ ; ; >X>X>X",
">X>X>XG G S S S S S S A A d g S S S S @ @ ; ; >X>X>X>X>X>X>X>Xe.e.>X>X>X>X>X>X>X>XG G S S S S S S A A g g S S S S @ @ ; ; >X>X>X",
">X>X>Xi s D D >X>X>X>X5 5 k k >X>X>X>X- - @ O >X>X>X>X>X>X>X>X>X>X>X>X>X>X>X>X>X>Xs d D D >X>X>X>X5 5 k k >X>X>X>X- - % O >X>X>X",
">X>X>Xd s D D >X>X>X>X5 5 k k >X>X>X>X- - % O >X>X>X>X>X>X>X>X>X>X>X>X>X>X>X>X>X>Xs s D D >X>X>X>X5 5 k k >X>X>X>X- - O O >X>X>X",
">X>X>Xl l j k >X>X>X>X> > @ O >X>X>X>X@ # , , >X>X>X>X>X>X>X>X>X>X>X>X>X>X>X>X>X>Xl l j j >X>X>X>X> > O   >X>X>X>X@ @ , , >X>X>X",
">X>X>Xl l j j >X>X>X>X> > @ O >X>X>X>X@ # , , >X>X>X>X>X>X>X>X>X>X>X>X>X>X>X>X>X>Xk l j j >X>X>X>X> > @ O >X>X>X>X# @ , , >X>X>X",
">X>X>X0 0 P P S S S S @ @     S S S K ; :   & >X>X>X>X>X>X>X>X>X>X>X>X>X>X>X>X>X>X0 0 P P S S S S @ @     S S S S ; : &   >X>X>X",
">X>X>X0 0 P P S S S S @ @ &   S S S S ; : & & >X>X>X>X>X>X>X>X>X>X>X>X>X>X>X>X>X>X0 0 P P S S S S #   &   S S S S ; : & & >X>X>X",
">X>X>X>X>X>X>XO.O./ / o.X.....q q I I >X>X>X>X>X>X>X>X>X>X>X>X>X>X>X>X>X>X>X>X>X>X>X>X>X>XO.O./ / o.o.....q q I I >X>X>X>X>X>X>X",
">X>X>X>X>X>X>XO.O./ / ..X.....q q I I >X>X>X>X>X>X>X>X>X>X>X>X>X>X>X>X>X>X>X>X>X>X>X>X>X>XO.O./ / >.o...} q q I I >X>X>X>X>X>X>X",
">X>X>X>X>X>X>XJ J ;.;.Q ^  . .6 6 z z >X>X>X>X>X>X>X>X>X>X>X>X>X>X>X>X>X>X>X>X>X>X>X>X>X>X` ` [ [ ~ / ( / F F Y Y >X>X>X>X>X>X>X",
">X>X>X>X>X>X>XJ J ;.;.Q Q  . .6 6 z z >X>X>X>X>X>X>X>X>X>X>X>X>X>X>X>X>X>X>X>X>X>X>X>X>X>X` ) [ ~ ~ / ( } F F Y Y >X>X>X>X>X>X>X"
};
