/* XPM */
static char *d6a18f400bbf47a3911cd604985ec4d3[] = {
/* columns rows colors chars-per-pixel */
"64 64 195 2 ",
"   c black",
".  c #010101",
"X  c #020000",
"o  c #000201",
"O  c #010003",
"+  c #000303",
"@  c #020202",
"#  c #050000",
"$  c #050100",
"%  c #020005",
"&  c #040404",
"*  c #060606",
"=  c #070707",
"-  c #0D0000",
";  c #080004",
":  c #080204",
">  c #000B01",
",  c #000F0D",
"<  c gray4",
"1  c #0E0E0B",
"2  c #0F0F0C",
"3  c #0E0E0E",
"4  c gray6",
"5  c #100E0A",
"6  c #13130E",
"7  c #0C0F11",
"8  c #0E1111",
"9  c #0D1515",
"0  c #0C1A1B",
"q  c #101010",
"w  c #111111",
"e  c #111112",
"r  c #131615",
"t  c #121517",
"y  c gray8",
"u  c #151414",
"i  c #141415",
"p  c #151515",
"a  c #171714",
"s  c gray9",
"d  c #191411",
"f  c #131817",
"g  c #1C1A16",
"h  c #121419",
"j  c #161619",
"k  c #14161B",
"l  c #181818",
"z  c #191818",
"x  c #191919",
"c  c #1A1919",
"v  c #1B1B1B",
"b  c #1B1E1D",
"n  c #191C1E",
"m  c #1B1E1E",
"M  c gray11",
"N  c #1D1D1D",
"B  c #1E1E1E",
"V  c gray12",
"C  c #21160F",
"Z  c #231E18",
"A  c #1B230F",
"S  c #15251B",
"D  c #1C201A",
"F  c #162B1F",
"G  c #23211D",
"H  c #20211E",
"J  c #1E0A20",
"K  c #1F1C20",
"L  c #1C1F21",
"P  c #0F2525",
"I  c #0F2D23",
"U  c #0C2C27",
"Y  c #1A2126",
"T  c #182627",
"R  c #152827",
"E  c #192826",
"W  c #1A2927",
"Q  c #19262A",
"!  c #19272B",
"~  c #162928",
"^  c #172A29",
"/  c #152B2C",
"(  c #192B28",
")  c #1B2A28",
"_  c #182B2A",
"`  c #1F2E2C",
"'  c #1C2D2F",
"]  c #0F3427",
"[  c #1A2A30",
"{  c #1E2F31",
"}  c #1C2E33",
"|  c #1D2139",
" . c #1D3031",
".. c #1F3231",
"X. c #1F3032",
"o. c #1E3132",
"O. c #1F3233",
"+. c #1A3F3E",
"@. c #212020",
"#. c gray13",
"$. c #232323",
"%. c #272B25",
"&. c #202E2F",
"*. c #2E2C34",
"=. c #203133",
"-. c #263432",
";. c #213435",
":. c #293A3C",
">. c #293C3D",
",. c #2A3D3E",
"<. c #2B3E3F",
"1. c #313F3A",
"2. c #313E3F",
"3. c #2D443D",
"4. c #36433C",
"5. c #33483E",
"6. c #293B40",
"7. c #2C3F40",
"8. c #244442",
"9. c #2D4041",
"0. c #2E4142",
"q. c #2F4641",
"w. c #2D4444",
"e. c #2F4D40",
"r. c #2B4D47",
"t. c #2E4F47",
"y. c #23454A",
"u. c #2D4548",
"i. c #274848",
"p. c #2E4A49",
"a. c #2D494B",
"s. c #2F4A4C",
"d. c #354344",
"f. c #304646",
"g. c #354646",
"h. c #304D44",
"j. c #3A4944",
"k. c #3E4D45",
"l. c #3E4C47",
"z. c #344748",
"x. c #39464A",
"c. c #344A4B",
"v. c #374A4B",
"b. c #354E4B",
"n. c #31494C",
"m. c #33494D",
"M. c #354C4D",
"N. c #344C4F",
"B. c #3D4C48",
"V. c #39504B",
"C. c #3F534D",
"Z. c #254A55",
"A. c #2C4A53",
"S. c #334E50",
"D. c #334C5D",
"F. c #2C545E",
"G. c #355751",
"H. c #365757",
"J. c #395557",
"K. c #4D504F",
"L. c #50504B",
"P. c #51524F",
"I. c #435753",
"U. c #525350",
"Y. c #565450",
"T. c #5D7675",
"R. c #6B7B73",
"E. c #617E7A",
"W. c #657A7E",
"Q. c #64817F",
"!. c #64857D",
"~. c #6E8379",
"^. c #6E827E",
"/. c #637E86",
"(. c #697B82",
"). c #6C7F81",
"_. c #5B8284",
"`. c #658180",
"'. c #678381",
"]. c #648082",
"[. c #658583",
"{. c #658086",
"}. c #668286",
"|. c #6A8382",
" X c #6E8880",
".X c #61838A",
"XX c #668088",
"oX c #618689",
"OX c #68878C",
"+X c #6D848D",
"@X c #6D888A",
"#X c #738A83",
"$X c #738A85",
"%X c #70888D",
"&X c None",
/* pixels */
"&X&X&X&X&X&X&X&X&X&X&X&X&X&X&X&X&X&X&X&X&X&X&X&X&X&X&X&X&X&X&X&X&X&X&X&X&X&X&X&X&X&X&X&X&X&X&X&X&X&X&X&X&X&X&X&X&X&X&X&X&X&X&X&X",
"&X&X&X&X&X&X&X&X&X&X&X&X&X&X&X&X&X&X&X&X&X&X&X&X&X&X&X&X&X&X&X&X&X&X&X&X&X&X&X&X&X&X&X&X&X&X&X&X&X&X&X&X&X&X&X&X&X&X&X&X&X&X&X&X",
"&X&X&X&X&X&X&X&X&X&X&X&X&X&X&X&X&X&X&X&X&X&X&X&X&X&X&X&X&X&X&X&X&X&X&X&X&X&X&X&X&X&X&X&X&X&X&X&X&X&X&X&X&X&X&X&X&X&X&X&X&X&X&X&X",
"&X&X&X&X&X&X&X&X&X&X&X&X&X&X&X&X&X&X&X&X&X&X&X&X&X&X&X&X&X&X&X&X&X&X&X&X&X&X&X&X&X&X&X&X&X&X&X&X&X&X&X&X&X&X&X&X&X&X&X&X&X&X&X&X",
"&X&X&X&X&X&X&X&X&X&X&X&X&X&X&X&X&X&X&X&X&X&X&X&X&X&X&X&X&X&X&X&X&X&X&X&X&X&X&X&X&X&X&X&X&X&X&X&X&X&X&X&X&X&X&X&X&X&X&X&X&X&X&X&X",
"&X&X&X&X&X&X&X&X&X&X&X&X&X&X&X&X&X&X&X&X&X&X&X&X&X&X&X&X&X&X&X&X&X&X&X&X&X&X&X&X&X&X&X&X&X&X&X&X&X&X&X&X&X&X&X&X&X&X&X&X&X&X&X&X",
"&X&X&X&X&X&X&X&X&X&X&X&X&X&X&X&X&X&X&X&X&X&X&X&X&X&X&X&X&X&X&X&X&X&X&X&X&X&X&X&X&X&X&X&X&X&X&X&X&X&X&X&X&X&X&X&X&X&X&X&X&X&X&X&X",
"&X&X&X&X&X&X&X&X&X&X&X&X&X&X&X&X&X&X&X&X&X&X&X&X&X&X&X&X&X&X&X&X&X&X&X&X&X&X&X&X&X&X&X&X&X&X&X&X&X&X&X&X&X&X&X&X&X&X&X&X&X&X&X&X",
"&X&X&X&X&X&X&X&X&X&X&X&X&X&X&X&X&X&X&X&X&X&X&X&X&X&X&X&X&X&X&X&X&X&X&X&X&X&X&X&X&X&X&X&X&X&X&X&X&X&X&X&X&X&X&X&X&X&X&X&X&X&X&X&X",
"&X&X&X&X&X&X&X&X&X&X&X&X&X&X&X&X&X&X&X&X&X&X&X&X&X&X&X&X&X&X&X&X&X&X&X&X&X&X&X&X&X&X&X&X&X&X&X&X&X&X&X&X&X&X&X&X&X&X&X&X&X&X&X&X",
"&X&X&X&X&X&X&X&X&X&X&X&X&X&X&X&X&X&X&X&X&X&X&X&X&X&X&X&X&X&X&X&X&X&X&X&X&X&X&X&X&X&X&X&X&X&X&X&X&X&X&X&X&X&X&X&X&X&X&X&X&X&X&X&X",
"&X&X&X&X&X&X&X&X&X&X&X&X&X&X&X&X&X&X&X&X&X&X&X&X&X&X&X&X&X&X&X&X&X&X&X&X&X&X&X&X&X&X&X&X&X&X&X&X&X&X&X&X&X&X&X&X&X&X&X&X&X&X&X&X",
"&X&X&X&X&X&X&X&X&X&X&X&X&X&X&X&X&X&X&X&X&X&X&X&X&X&X&X&X&X&X&X&X&X&X&X&X&X&X&X&X&X&X&X&X&X&X&X&X&X&X&X&X&X&X&X&X&X&X&X&X&X&X&X&X",
"&X&X&X&X&X&X&X&X&X&X&X&X&X&X&X&X&X&X&X&X&X&X&X&X&X&X&X&X&X&X&X&X&X&X&X&X&X&X&X&X&X&X&X&X&X&X&X&X&X&X&X&X&X&X&X&X&X&X&X&X&X&X&X&X",
"&X&X&X&X&X&X&X&X&X&X&X&X&X&X&X&X&X&X&X&X&X&X&X&X&X&X&X&X&X&X&X&X&X&X&X&X&X&X&X&X&X&X&X&X&X&X&X&X&X&X&X&X&X&X&X&X&X&X&X&X&X&X&X&X",
"&X&X&X&X&X&X&X&X&X&X&X&X&X&X&X&X&X&X&X&X&X&X&X&X&X&X&X&X&X&X&X&X&X&X&X&X&X&X&X&X&X&X&X&X&X&X&X&X&X&X&X&X&X&X&X&X&X&X&X&X&X&X&X&X",
"&X&X&X&X&X&X&X&X&X&X&X&X&X&X&X&X&X&X&X&X&X&X&X&X&X&X&X&X&X&X&X&X&X&X&X&X&X&X&X&X&X&X&X&X&X&X&X&X&X&X&X&X&X&X&X&X&X&X&X&X&X&X&X&X",
"&X&X&X&X&X&X&X&X&X&X&X&X&X&X&X&X&X&X&X&X&X&X&X&X&X&X&X&X&X&X&X&X&X&X&X&X&X&X&X&X&X&X&X&X&X&X&X&X&X&X&X&X&X&X&X&X&X&X&X&X&X&X&X&X",
"&X&X&X&X&X&X&X&X&X&X&X&X&X&X&X&X&X&X&X&X&X&X&X&X&X&X&X&X&X&X&X&X&X&X&X&X&X&X&X&X&X&X&X&X&X&X&X&X&X&X&X&X&X&X&X&X&X&X&X&X&X&X&X&X",
"&X&X&X&X&X&X&X&X&X&X&X&X&X&X&X&X&X&X&X&X&X&X&X&X&X&X&X&X&X&X&X&X&X&X&X&X&X&X&X&X&X&X&X&X&X&X&X&X&X&X&X&X&X&X&X&X&X&X&X&X&X&X&X&X",
"&X&X&X&X&X&X&X&X&X&X&X&X&X&X&X&X&X&X&X&X&X&X&X&X&X&X&X&X&X&X&X&X&X&X&X&X&X&X&X&X&X&X&X&X&X&X&X&X&X&X&X&X&X&X&X&X&X&X&X&X&X&X&X&X",
"&X&X&X&X&X&X&X&X&X&X&X&X&X&X&X&X&X&X&X&X&X&X&X&X&X&X&X&X&X&X&X&X&X&X&X&X&X&X&X&X&X&X&X&X&X&X&X&X&X&X&X&X&X&X&X&X&X&X&X&X&X&X&X&X",
"&X&X&X&X&X&X&X&X&X&X&X&X&X&X&X&X&X&X&X&X&X&X&X&X&X&X&X&X&X&X&X&X&X&X&X&X&X&X&X&X&X&X&X&X&X&X&X&X&X&X&X&X&X&X&X&X&X&X&X&X&X&X&X&X",
"&X&X&X&X&X&X&X&X&X&X&X&X&X&X&X&X&X&X&X&X&X&X&X&X&X&X&X&X&X&X&X&X&X&X&X&X&X&X&X&X&X&X&X&X&X&X&X&X&X&X&X&X&X&X&X&X&X&X&X&X&X&X&X&X",
"&X&X&X&X&X&X&X&X&X&X&X&X&X&X&X&X&X&X&X&X&X&X&X&X&X&X&X&X&X&X&X&X&X&X&X&X&X&X&X&X&X&X&X&X&X&X&X&X&X&X&X&X&X&X&X&X&X&X&X&X&X&X&X&X",
"&X&X&X&X&X&X&X&X&X&X&X&X&X&X&X&X&X&X&X&X&X&X&X&X&X&X&X&X&X&X&X&X&X&X&X&X&X&X&X&X&X&X&X&X&X&X&X&X&X&X&X&X&X&X&X&X&X&X&X&X&X&X&X&X",
"&X&X&X&X&X&X&X&X&X&X&X&X&X&X&X&X&X&X&X&X&X&X&X&X&X&X&X&X&X&X&X&X&X&X&X&X&X&X&X&X&X&X&X&X&X&X&X&X&X&X&X&X&X&X&X&X&X&X&X&X&X&X&X&X",
"&X&X&X&X&X&X&X&X&X&X&X&X&X&X&X&X&X&X&X&X&X&X&X&X&X&X&X&X&X&X&X&X&X&X&X&X&X&X&X&X&X&X&X&X&X&X&X&X&X&X&X&X&X&X&X&X&X&X&X&X&X&X&X&X",
"&X&X&X&X&X&X&X&X&X&X&X&X&X&X&X&X&X&X&X&X&X&X&X&X&X&X&X&X&X&X&X&X&X&X&X&X&X&X&X&X&X&X&X&X&X&X&X&X&X&X&X&X&X&X&X&X&X&X&X&X&X&X&X&X",
"&X&X&X&X&X&X&X&X&X&X&X&X&X&X&X&X&X&X&X&X&X&X&X&X&X&X&X&X&X&X&X&X&X&X&X&X&X&X&X&X&X&X&X&X&X&X&X&X&X&X&X&X&X&X&X&X&X&X&X&X&X&X&X&X",
"&X&X&X&X&X&X&X&X&X&X&X&X&X&X&X&X&X&X&X&X&X&X&X&X&X&X&X&X&X&X&X&X&X&X&X&X&X&X&X&X&X&X&X&X&X&X&X&X&X&X&X&X&X&X&X&X&X&X&X&X&X&X&X&X",
"&X&X&X&X&X&X&X&X&X&X&X&X&X&X&X&X&X&X&X&X&X&X&X&X&X&X&X&X&X&X&X&X&X&X&X&X&X&X&X&X&X&X&X&X&X&X&X&X&X&X&X&X&X&X&X&X&X&X&X&X&X&X&X&X",
"&X&X&X&X&X&X&X&X&X&X&X&X&X&X&X&X&X&X&X&Xu d j e @ @ &X&X&X&X&X&X&X&X&X&X&X&X&Xu d u e @ @ &X&X&X&X&X&X&X&X&X&X&X&X&X&X&X&X&X&X&X",
"&X&X&X&X&X&X&X&X&X&X&X&X&X&X&X&X&X&X&X8 N 2 e z @ @ @ &X&X&X&X&X&X&X&X&X&X&X7 N 2 e z @ @ @ &X&X&X&X&X&X&X&X&X&X&X&X&X&X&X&X&X&X",
"&X&X&X&X&X&X&X&X&X&X&X&X&X&X&X&X&X&Xz f t n $.8 z & @ & &X&X&X&X&X&X&X&X&Xz u f N $.7 M @ @ & &X&X&X&X&X&X&X&X&X&X&X&X&X&X&X&X&X",
"&X&X&X&X&X&X&X&X&X&X&X&X&X&X&X&X&X&X5 6 H K.z #.< @ @ & &X&X&X&X&X&X&X&X&X2 6 H K.z @.< @ @ @ &X&X&X&X&X&X&X&X&X&X&X&X&X&X&X&X&X",
"&X&X&X&X&X&X&X&X&X&X&X&X&X&X&X&X&X&Xu G L.L.@.Z N @ @ @ &X&X&X&X&X&X&X&X&Xu H L.L.N H N @ @ @ &X&X&X&X&X&X&X&X&X&X&X&X&X&X&X&X&X",
"&X&X&X&X&X&X&X&X&X&X&X&X&X&X&X&X&X&Xh g Y.U.Y 5 2 @ @ & &X&X&X&X&X&X&X&X&Xt g Y.Y.Y 2 q @ @ & &X&X&X&X&X&X&X&X&X&X&X&X&X&X&X&X&X",
"&X&X&X&X&X&X&X&X&X&X&X&X&X&X&X&X&X&Xn H z n N N @ @ @ @ &X&X&X&X&X&X&X&X&Xn @.c n N z @ @ @ @ &X&X&X&X&X&X&X&X&X&X&X&X&X&X&X&X&X",
"&X&X&X&X&X&X&X&X&X&X&X&X&X&X&X&X&X&X8 e L Y y e @ @ @ @ &X&X&X&X&X&X&X&X&Xe e L Y u u @ @ @ @ &X&X&X&X&X&X&X&X&X&X&X&X&X&X&X&X&X",
"&X&X&X&X&X&X&X&X&X&X&X&X&X&X&X&X&X&XC.H.~._.z.v.>.>.O.&.I.G.<.x.v.>.>.` ` C.H.~._.v.v.:.>.O.` &X&X&X&X&X&X&X&X&X&X&X&X&X&X&X&X&X",
"&X&X&X&X&X&X&X&X&X&X&X&X&X&X&X&X&X&Xw.Z.S.I.<.w.X.X._ _ Z.n.I.<.7.=.;.W W w.Z.N.I.>.w.O.;.^ W &X&X&X&X&X&X&X&X&X&X&X&X&X&X&X&X&X",
"&X&X&X&X&X&X&X&X&X&X&X&X&X&X&X&X&X&XB.v.XXW.:.>.`  .W T k.W.W.<.7.O.O.^ _ l.v.XX(.:.:.` { R W &X&X&X&X&X&X&X&X&X&X&X&X&X&X&X&X&X",
"&X&X&X&X&X&X&X&X&X&X&X&X&X&X&X&X&X&X1.g.%X/.<.w.O.=.R ) 7.%X/.w.7.O.O.^ _ 1.f.%X/.7.7.{ O._ W &X&X&X&X&X&X&X&X&X&X&X&X&X&X&X&X&X",
"&X&X&X&X&X&X&X&X&X&X&X&X&X&X&X&X&X&Xs.F.T.#X<.3.{ X.^ _ 1.T.%X7.7.O.O.^ ^ s.F.T.#X>.7.=.=._ W &X&X&X&X&X&X&X&X&X&X&X&X&X&X&X&X&X",
"&X&X&X&X&X&X&X&X&X&X&X&X&X&X&X&X&X&Xm.y.^.Q.<.<.O.X.^ _ n.%XT.7.7.O.O.^ ^ M.y. XQ.>.7.{ X.^ W &X&X&X&X&X&X&X&X&X&X&X&X&X&X&X&X&X",
"&X&X&X&X&X&X&X&X&X&X&X&X&X&X&X&X&X&X4.j.|.oX>.7.{ X._ _ m.oXT.7.7.O.O.^ ^ 4.j.'._.>.<.{ X.^ _ &X&X&X&X&X&X&X&X&X&X&X&X&X&X&X&X&X",
"&X&X&X&X&X&X&X&X&X&X&X&X&X&X&X&X&X&Xk.f..X^.<.7.` O.R W 7.|.oX7.7.O.O.^ ^ B.f..X^.w.3.{ X.^ W &X&X&X&X&X&X&X&X&X&X&X&X&X&X&X&X&X",
"&X&X&X&X&X&X&X&X&X&X&X&X&X&X&X&X&X&XM.n.R.!.>.7.{ X.^ _ w.R.+X<.3.O.O.^ _ m.m.R.!.7.7.{ O.^ W &X&X&X&X&X&X&X&X&X&X&X&X&X&X&X&X&X",
"&X&X&X&X&X&X&X&X&X&X&X&X&X&X&X&X&X&Xn.s.$X[.7.7.{ =._ W m.+X/.<.7.O.O.^ _ n.a.#X[.>.7.{ O.^ W &X&X&X&X&X&X&X&X&X&X&X&X&X&X&X&X&X",
"&X&X&X&X&X&X&X&X&X&X&X&X&X&X&X&X&X&Xa.i.'./.>.7.` O._ T a.|.{.7.7.X.O.^ ^ a.i.Q./.7.7.{ O.^ W &X&X&X&X&X&X&X&X&X&X&X&X&X&X&X&X&X",
"&X&X&X&X&X&X&X&X&X&X&X&X&X&X&X&X&X&Xb.r./.@X7.7.O.=._ W 3.[.|.7.7.X.O.^ W b.r./.+X>.7.{ O.^ W &X&X&X&X&X&X&X&X&X&X&X&X&X&X&X&X&X",
"&X&X&X&X&X&X&X&X&X&X&X&X&X&X&X&X&X&X3.h.@X(.<.7.{ O.^ W V.+X(.3.7.X.O./ ^ 3.t.@X(.<.7.&.O.^ W &X&X&X&X&X&X&X&X&X&X&X&X&X&X&X&X&X",
"&X&X&X&X&X&X&X&X&X&X&X&X&X&X&X&X&X&XV.5.'.).<.7.{ O.^ W 7.|.|.7.7.X.X._ ^ V.5.'.|.7.7.{ O.^ W &X&X&X&X&X&X&X&X&X&X&X&X&X&X&X&X&X",
"&X&X&X&X&X&X&X&X&X&X&X&X&X&X&X&X&X&Xu.l.{.|.<.7.{ O.^ W 7.OXQ.7.9.O.O._ ^ u.B.[.|.7.7.{ O.^ W &X&X&X&X&X&X&X&X&X&X&X&X&X&X&X&X&X",
"&X&X&X&X&X&X&X&X&X&X&X&X&X&X&X&X&X&XA.d.OXQ.>.w.{ O.^ W t.J.k.v.8.*.*.U U A.d.OXW.7.7.{ O.^ W &X&X&X&X&X&X&X&X&X&X&X&X&X&X&X&X&X",
"&X&X&X&X&X&X&X&X&X&X&X&X&X&X&X&X&X&Xt.x.J.k.2.8.%.*.U F &X&X<.y.5.9.w.&X&Xt.x.J.k.2.8.%.*.U F &X&X&X&X&X&X&X&X&X&X&X&X&X&X&X&X&X",
"&X&X&X&X&X&X&X&X&X&X&X&X&X&X&X&X&X&Xq.e.D.G.+.:.&.-.I ] &X&X&Xw.j.9.&X&X&Xq.e.D.G.+.6.&.-.I ] &X&X&X&X&X&X&X&X&X&X&X&X&X&X&X&X&X",
"&X&X&X&X&X&X&X&X&X&X&X&X&X&X&X&X&X&XD Z D G C f D Z @ ; &X&X&X&X>.&X&X&X&XD Z D Z C f D Z @ ; &X&X&X&X&X&X&X&X&X&X&X&X&X&X&X&X&X",
"&X&X&X&X&X&X&X&X&X&X&X&X&X&X&X&X&X&Xu A &X&X5 j &X&X- % &X&X&X&X&X&X&X&X&Xu A &X&X5 j &X&X- % &X&X&X&X&X&X&X&X&X&X&X&X&X&X&X&X&X",
"&X&X&X&X&X&X&X&X&X&X&X&X&X&X&X&X&X&Xj h &X&X> @ &X&X$ , &X&X&X&X&X&X&X&X&Xk h &X&X> @ &X&X$ , &X&X&X&X&X&X&X&X&X&X&X&X&X&X&X&X&X",
"&X&X&X&X&X&X&X&X&X&X&X&X&X&X&X&X&X&X9 J $ @ $ @ $ @ : @ &X&X&X&X&X&X&X&X&X9 J $ @ $ @ $ @ : @ &X&X&X&X&X&X&X&X&X&X&X&X&X&X&X&X&X",
"&X&X&X&X&X&X&X&X&X&X&X&X&X&X&X&X&X&X&X&X| ! { [ 0 L &X&X&X&X&X&X&X&X&X&X&X&X&X| ! { [ 0 L &X&X&X&X&X&X&X&X&X&X&X&X&X&X&X&X&X&X&X",
"&X&X&X&X&X&X&X&X&X&X&X&X&X&X&X&X&X&X&X&X^ _ T ! S P &X&X&X&X&X&X&X&X&X&X&X&X&X/ _ T ! S P &X&X&X&X&X&X&X&X&X&X&X&X&X&X&X&X&X&X&X"
};
