/* XPM */
static char *_7c28d8c1c484fa09c0dbd55e04f29a3[] = {
/* columns rows colors chars-per-pixel */
"40 70 31 1 ",
"  c black",
". c #000D0D",
"X c gray8",
"o c #1B1B1B",
"O c #252525",
"+ c #2F2F2F",
"@ c #373737",
"# c #3C3C3C",
"$ c #434343",
"% c gray31",
"& c #555555",
"* c gray36",
"= c #656565",
"- c gray44",
"; c #777777",
": c gray50",
"> c #8E8E8E",
", c gray58",
"< c #A0A0A0",
"1 c gray66",
"2 c #AEAEAE",
"3 c #B4B4B4",
"4 c #C1C1C1",
"5 c #C8C8C8",
"6 c #D0D0D0",
"7 c gray84",
"8 c #DFDFDF",
"9 c gray91",
"0 c #EFEFEF",
"q c gray96",
"w c None",
/* pixels */
"wwwwwwwwwwwwwwwwwwwwwwwwwwwwww0wwwwwwwww",
"wwwwwwwwwwww3*===;wwwwwwwwwww8 *wwwwwwww",
"w48wwwwwww9-       2wwwwwwwww7 @wwwwwwww",
"9  wwwwwww          :wwwwwwww& >wwwwwwww",
"w$ <wwwww-           7wwwwwww  wwwwwwwww",
"w5 owwww6            $wwwwww< %wwwwwwwww",
"ww$ 1www<             wwwwww  7wwwwwwwww",
"ww1 *www<             wwwww6 owwwwwwwwww",
"www  8ww<             wwwww$ 1wwwwwwwwww",
"www< &ww8 .          *wwww8 owwwwwwwwwww",
"www9  qwwo           1wwww> =wwwwwwwwwww",
"wwww& ,ww8          &wwwww  9wwwwwwwwwww",
"wwww8  qww2o       &wwwww4 Xwwwwwwwwwwww",
"wwwww  5wwww*     2wwwwwwo 4wwwwwwwwwwww",
"wwwww1 $wwwwww  <wwwwww4o #wwwwwwwwwwwww",
"wwwwwwX 3wwwww  <wwww9$  #wwwwwwwwwwwwww",
"wwwwww;  +:4ww  <ww9;   3wwwwwwwwwwwwwww",
"wwwwwww$O    *  <w3   :wwwwwwwwwwwwwwwww",
"wwwwwwwww6;*    %@  :9wwwwwwwwwwwwwwwwww",
"wwwwwwwwwwww0<    +4wwwwwwwwwwwwwwwwwwww",
"wwwwwwwwwwwwww  -5wwwwwwwwwwwwwwwwwwwwww",
"wwwwwwwwwwwwww  <wwwwwwwwwwwwwwwwwwwwwww",
"wwwwwwwwwwwwww  <wwwwwwwwwwwwwwwwwwwwwww",
"wwwwwwwwwwwwww  <wwwwwwwwwwwwwwwwwwwwwww",
"wwwwwwwwwwwwww  <wwwwwwwwwwwwwwwwwwwwwww",
"wwwwwwwwwwwwww  <wwwwwwwwwwwwwwwwwwwwwww",
"wwwwwwwwwwwwww  <wwwwwwwwwwwwwwwwwwwwwww",
"wwwwwwwwwwwwww  <wwwwwwwwwwwwwwwwwwwwwww",
"wwwwwwwwwwwwww  <wwwwwwwwwwwwwwwwwwwwwww",
"wwwwwwwwwwwwww  <wwwwwwwwwwwwwwwwwwwwwww",
"wwwwwwwwwwwwww  <wwwwwwwwwwwwwwwwwwwwwww",
"wwwwwwwwwwwww2   wwwwwwwwwwwwwwwwwwwwwww",
"wwwwwwwwwwwww3   -wwwwwwwwwwwwwwwwwwwwww",
"wwwwwwwwwwwww3 -= -wwwwwwwwwwwwwwwwwwwww",
"wwwwwwwwwwwww3 ;w% -wwwwwwwwwwwwwwwwwwww",
"wwwwwwwwwwwww3 ;ww@ 2wwwwwwwwwwwwwwwwwww",
"wwwwwwwwwwwww3 ;ww7  6wwwwwwwwwwwwwwwwww",
"wwwwwwwwwwwww3 ;www8  6wwwwwwwwwwwwwwwww",
"wwwwwwwwwwwww3 ;wwww7  6wwwwwwwwwwwwwwww",
"wwwwwwwwwwwww3 ;wwwww4 &wwwwwwwwwwwwwwww",
"wwwwwwwwwwwww3 ;wwwww4 &wwwwwwwwwwwwwwww",
"wwwwwwwwwwwww3 ;wwwww% 2wwwwwwwwwwwwwwww",
"wwwwwwwwwwwww> -wwww9  9wwwwwwwwwwwwwwww",
"wwwwwwwwwwww9  8wwww3 +wwwwwwwwwwwwwwwww",
"wwwwwwwwwwww% <wwwwwo 5wwwwwwwwwwwwwwwww",
"wwwwwwwwwww1 $wwwww8  wwwwwwwwwwwwwwwwww",
"wwwwwwwwww8  7wwwww< :wwwwwwwwwwwwwwwwww",
"wwwwwwwwww= >wwwwww  6wwwwwwwwwwwwwwwwww",
"wwwwwwwww4  0wwwww7 Xqwwwwwwwwwwwwwwwwww",
"wwwwwwwww+ 5wwwwww& <wwwwwwwwwwwwwwwwwww",
"wwwwwwww+ -wwwwwww  8wwwwwwwwwwwwwwwwwww",
"wwwwwww4  0wwwwww4  wwwwwwwwwwwwwwwwwwww",
"wwwwwwww- ;wwwwww  *wwwwwwwwwwwwwwwwwwww",
"wwwwwwwww  wwwwww<  *9wwwwwwwwwwwwwwwwww",
"wwwwwwwww34wwwwwww9   wwwwwwwwwwwwwwwwww",
"wwwwwwwwwwwwwwwwwwww--wwwwwwwwwwwwwwwwww",
"wwwwwwwwwwwwwwwwwwwwwwwwwwwwwwwwwwwwwwww",
"wwwwwwwwwwwwwwwwwwwwwwwwwwwwwwwwwwwwwwww",
"wwwwwwwwwwwwwwwwwwwwwwwwwwwwwwwwwwwwwwww",
"wwwwwwwwwwwwwwwwwwwwwwwwwwwwwwwwwwwwwwww",
"wwwwwwwwwwwwwwwwwwwwwwwwwwwwwwwwwwwwwwww",
"wwwwwwwwwwwwwwwwwwwwwwwwwwwwwwwwwwwwwwww",
"wwwwwwwwwwwwwwwwwwwwwwwwwwwwwwwwwwwwwwww",
"wwwwwwwwwwwwwwwwwwwwwwwwwwwwwwwwwwwwwwww",
"wwwwwwwwwwwwwwwwwwwwwwwwwwwwwwwwwwwwwwww",
"wwwwwwwwwwwwwwwwwwwwwwwwwwwwwwwwwwwwwwww",
"wwwwwwwwwwwwwwwwwwwwwwwwwwwwwwwwwwwwwwww",
"wwwwwwwwwwwwwwwwwwwwwwwwwwwwwwwwwwwwwwww",
"wwwwwwwwwwwwwwwwwwwwwwwwwwwwwwwwwwwwwwww",
"wwwwwwwwwwwwwwwwwwwwwwwwwwwwwwwwwwwwwwww"
};
