/* XPM */
static char *_542903369213[] = {
/* columns rows colors chars-per-pixel */
"40 70 3 1 ",
"  c black",
". c white",
"X c None",
/* pixels */
"XXXXXXXXXXXX......XXXXXXXXXXX...XXXXXXXX",
"X..XXXXXXX..      ..XXXXXXXX.   .XXXXXXX",
".  .XXXXX.          .XXXXXXX.   .XXXXXXX",
".  .XXXXX.           .XXXXXX.   .XXXXXXX",
".   .XXX.             .XXXXX.  .XXXXXXXX",
".   .XX.              .XXXX.   .XXXXXXXX",
"X.   .X.              .XXXX.   .XXXXXXXX",
"X.   .X.              .XXX.   .XXXXXXXXX",
"XX.   ..              .XXX.   .XXXXXXXXX",
"XX.   ..              .XX.   .XXXXXXXXXX",
"XX.    ..             .XX.   .XXXXXXXXXX",
"XXX.   ..            .XXX.   .XXXXXXXXXX",
"XXX.    ..          .XXX.   .XXXXXXXXXXX",
"XXXX.   .X..       .XXX..   .XXXXXXXXXXX",
"XXXX.   .XXX..   ..XX..    .XXXXXXXXXXXX",
"XXXXX.   ...X.   .X..     .XXXXXXXXXXXXX",
"XXXXX.      ..   ..      .XXXXXXXXXXXXXX",
"XXXXXX.          .     ..XXXXXXXXXXXXXXX",
"XXXXXXX..             .XXXXXXXXXXXXXXXXX",
"XXXXXXXXX...        ..XXXXXXXXXXXXXXXXXX",
"XXXXXXXXXXXX..    ..XXXXXXXXXXXXXXXXXXXX",
"XXXXXXXXXXXXX.   .XXXXXXXXXXXXXXXXXXXXXX",
"XXXXXXXXXXXXX.   .XXXXXXXXXXXXXXXXXXXXXX",
"XXXXXXXXXXXXX.   .XXXXXXXXXXXXXXXXXXXXXX",
"XXXXXXXXXXXXX.   .XXXXXXXXXXXXXXXXXXXXXX",
"XXXXXXXXXXXXX.   .XXXXXXXXXXXXXXXXXXXXXX",
"XXXXXXXXXXXXX.   .XXXXXXXXXXXXXXXXXXXXXX",
"XXXXXXXXXXXXX.   .XXXXXXXXXXXXXXXXXXXXXX",
"XXXXXXXXXXXXX.   .XXXXXXXXXXXXXXXXXXXXXX",
"XXXXXXXXXXXXX.   .XXXXXXXXXXXXXXXXXXXXXX",
"XXXXXXXXXXXXX.   .XXXXXXXXXXXXXXXXXXXXXX",
"XXXXXXXXXXXX.    .XXXXXXXXXXXXXXXXXXXXXX",
"XXXXXXXXXXXX.     .XXXXXXXXXXXXXXXXXXXXX",
"XXXXXXXXXXXX.      .XXXXXXXXXXXXXXXXXXXX",
"XXXXXXXXXXXX.   .   .XXXXXXXXXXXXXXXXXXX",
"XXXXXXXXXXXX.   ..   .XXXXXXXXXXXXXXXXXX",
"XXXXXXXXXXXX.   ..    .XXXXXXXXXXXXXXXXX",
"XXXXXXXXXXXX.   .X.    .XXXXXXXXXXXXXXXX",
"XXXXXXXXXXXX.   .XX.    .XXXXXXXXXXXXXXX",
"XXXXXXXXXXXX.   .XXX.   .XXXXXXXXXXXXXXX",
"XXXXXXXXXXXX.   .XXX.   .XXXXXXXXXXXXXXX",
"XXXXXXXXXXXX.   .XXX.   .XXXXXXXXXXXXXXX",
"XXXXXXXXXXXX.   .XX.    .XXXXXXXXXXXXXXX",
"XXXXXXXXXXX.    .XX.   .XXXXXXXXXXXXXXXX",
"XXXXXXXXXXX.   .XXX.   .XXXXXXXXXXXXXXXX",
"XXXXXXXXXX.   .XXX.   .XXXXXXXXXXXXXXXXX",
"XXXXXXXXX.    .XXX.   .XXXXXXXXXXXXXXXXX",
"XXXXXXXXX.   .XXXX.   .XXXXXXXXXXXXXXXXX",
"XXXXXXXX.    .XXX.    .XXXXXXXXXXXXXXXXX",
"XXXXXXXX.   .XXXX.   .XXXXXXXXXXXXXXXXXX",
"XXXXXXX.   .XXXXX.   .XXXXXXXXXXXXXXXXXX",
"XXXXXXX.   .XXXX.   .XXXXXXXXXXXXXXXXXXX",
"XXXXXXX.    .XXX.   .XXXXXXXXXXXXXXXXXXX",
"XXXXXXXX.    .XX.    .XXXXXXXXXXXXXXXXXX",
"XXXXXXXXX.   .XXX.    .XXXXXXXXXXXXXXXXX",
"XXXXXXXXXX...XXXXX..  .XXXXXXXXXXXXXXXXX",
"XXXXXXXXXXXXXXXXXXXX..XXXXXXXXXXXXXXXXXX",
"XXXXXXXXXXXXXXXXXXXXXXXXXXXXXXXXXXXXXXXX",
"XXXXXXXXXXXXXXXXXXXXXXXXXXXXXXXXXXXXXXXX",
"XXXXXXXXXXXXXXXXXXXXXXXXXXXXXXXXXXXXXXXX",
"XXXXXXXXXXXXXXXXXXXXXXXXXXXXXXXXXXXXXXXX",
"XXXXXXXXXXXXXXXXXXXXXXXXXXXXXXXXXXXXXXXX",
"XXXXXXXXXXXXXXXXXXXXXXXXXXXXXXXXXXXXXXXX",
"XXXXXXXXXXXXXXXXXXXXXXXXXXXXXXXXXXXXXXXX",
"XXXXXXXXXXXXXXXXXXXXXXXXXXXXXXXXXXXXXXXX",
"XXXXXXXXXXXXXXXXXXXXXXXXXXXXXXXXXXXXXXXX",
"XXXXXXXXXXXXXXXXXXXXXXXXXXXXXXXXXXXXXXXX",
"XXXXXXXXXXXXXXXXXXXXXXXXXXXXXXXXXXXXXXXX",
"XXXXXXXXXXXXXXXXXXXXXXXXXXXXXXXXXXXXXXXX",
"XXXXXXXXXXXXXXXXXXXXXXXXXXXXXXXXXXXXXXXX"
};
