/* XPM */
static char *_8aa9c73f7ca41c0ac6ab3905613908f[] = {
/* columns rows colors chars-per-pixel */
"40 70 2 1 ",
"  c black",
". c None",
/* pixels */
"........................................",
"........................................",
"........................................",
"........................................",
"........................................",
"........................................",
"........................................",
"........................................",
".......     ............................",
".....        ...........................",
"....           .........................",
"...            .........................",
"...             ........................",
"..              ........................",
"..              ........................",
"..              ........................",
"..              ........................",
"...             ........................",
"...            .........................",
"....           .........................",
".....        ...........................",
".......     ............................",
"........   .............................",
"........   .............................",
"........   .............................",
"........   .............................",
"........    ............................",
"........     ............ ..............",
".......       ..........   .............",
".......        .........   .............",
"......     .    .......   ..............",
".....      ..   ......    ..............",
".....      ...   .....   ...............",
"....   .   ....   ...   ................",
"....   .   .....   .    ................",
"...   ..   ......      .................",
"..    ..   .......    ..................",
"..   ...   .......   ...................",
"..   ...   .............................",
"...  ...   .............................",
"...   ..     ...........................",
"...   ..      ..........................",
"...    .  .     ........................",
"....      ..     .......................",
"....      ....     .....................",
".....     .....    .....................",
".......   .....    .....................",
"......   .....    ......................",
"......   ...     .......................",
"......   ..    .........................",
"......   .    ..........................",
"......       ...........................",
"......      ............................",
".....     ..............................",
"....     ...............................",
"...     ................................",
"...    .................................",
"....    ................................",
"....     ...............................",
"....      ..............................",
"....   .  ..............................",
"...    .................................",
"...   ..................................",
"...   ..................................",
"...   ..................................",
"...   ..................................",
"..   ...................................",
"..       ...............................",
"...      ...............................",
"......   ..............................."
};
