/* XPM */
static char *_542902678319[] = {
/* columns rows colors chars-per-pixel */
"40 70 3 1 ",
"  c black",
". c white",
"X c None",
/* pixels */
"XXXXXXXXXXXXXXXXXXXXXXXXXXXXXXXXXXXXXXXX",
"XXXXXXXXXXXXXXXXXXXXXXXXXXXXXXXXXXXXXXXX",
"XXXXXXXXXXXXXXXXXXXXXXXXXXXXXXXXXXXXXXXX",
"XXXXXXXXXXXXXXXXXXXXXXXXXXXXXXXXXXXXXXXX",
"XXXXXXXXXXXXXXXXXXXXXXXXXXXXXXXXXXXXXXXX",
"XXXXXXXXXXXXXXXXXXXXXXXXXXXXXXXXXXXXXXXX",
"XXXXXXXXXXXXXXXXXXXXXXXXXXXXXXXXXXXXXXXX",
"XXXXXXX.....XXXXXXXXXXXXXXXXXXXXXXXXXXXX",
"XXXXX..     .XXXXXXXXXXXXXXXXXXXXXXXXXXX",
"XXXX.        ..XXXXXXXXXXXXXXXXXXXXXXXXX",
"XXX.           .XXXXXXXXXXXXXXXXXXXXXXXX",
"XX.            .XXXXXXXXXXXXXXXXXXXXXXXX",
"XX.             .XXXXXXXXXXXXXXXXXXXXXXX",
"X.              .XXXXXXXXXXXXXXXXXXXXXXX",
"X.              .XXXXXXXXXXXXXXXXXXXXXXX",
"X.              .XXXXXXXXXXXXXXXXXXXXXXX",
"X.              .XXXXXXXXXXXXXXXXXXXXXXX",
"XX.             .XXXXXXXXXXXXXXXXXXXXXXX",
"XX.            .XXXXXXXXXXXXXXXXXXXXXXXX",
"XXX.           .XXXXXXXXXXXXXXXXXXXXXXXX",
"XXXX.        ..XXXXXXXXXXXXXXXXXXXXXXXXX",
"XXXXX..     .XXXXXXXXXXXXXXXXXXXXXXXXXXX",
"XXXXXXX.   .XXXXXXXXXXXXXXXXXXXXXXXXXXXX",
"XXXXXXX.   .XXXXXXXXXXXXXXXXXXXXXXXXXXXX",
"XXXXXXX.   .XXXXXXXXXXXXXXXXXXXXXXXXXXXX",
"XXXXXXX.   .XXXXXXXXXXXXXXXXXXXXXXXXXXXX",
"XXXXXXX.    .XXXXXXXXXXXX.XXXXXXXXXXXXXX",
"XXXXXXX.     .XXXXXXXXXX. .XXXXXXXXXXXXX",
"XXXXXX.       .XXXXXXXX.   .XXXXXXXXXXXX",
"XXXXXX.        .XXXXXXX.   .XXXXXXXXXXXX",
"XXXXX.     .    .XXXXX.   .XXXXXXXXXXXXX",
"XXXX.      ..   .XXXX.    .XXXXXXXXXXXXX",
"XXXX.      .X.   .XXX.   .XXXXXXXXXXXXXX",
"XXX.   .   .XX.   .X.   .XXXXXXXXXXXXXXX",
"XXX.   .   .XXX.   .    .XXXXXXXXXXXXXXX",
"XX.   ..   .XXXX.      .XXXXXXXXXXXXXXXX",
"X.    ..   .XXXXX.    .XXXXXXXXXXXXXXXXX",
"X.   .X.   .XXXXX.   .XXXXXXXXXXXXXXXXXX",
"X.   .X.   .XXXXXX...XXXXXXXXXXXXXXXXXXX",
"XX.  .X.   ..XXXXXXXXXXXXXXXXXXXXXXXXXXX",
"XX.   ..     .XXXXXXXXXXXXXXXXXXXXXXXXXX",
"XX.   ..      ..XXXXXXXXXXXXXXXXXXXXXXXX",
"XX.    .  .     .XXXXXXXXXXXXXXXXXXXXXXX",
"XXX.      ..     ..XXXXXXXXXXXXXXXXXXXXX",
"XXX.      .X..     .XXXXXXXXXXXXXXXXXXXX",
"XXXX.     .XXX.    .XXXXXXXXXXXXXXXXXXXX",
"XXXXX..   .XXX.    .XXXXXXXXXXXXXXXXXXXX",
"XXXXX.   .XX..    .XXXXXXXXXXXXXXXXXXXXX",
"XXXXX.   .X.     .XXXXXXXXXXXXXXXXXXXXXX",
"XXXXX.   ..    ..XXXXXXXXXXXXXXXXXXXXXXX",
"XXXXX.   .    .XXXXXXXXXXXXXXXXXXXXXXXXX",
"XXXXX.       .XXXXXXXXXXXXXXXXXXXXXXXXXX",
"XXXXX.      .XXXXXXXXXXXXXXXXXXXXXXXXXXX",
"XXXX.     ..XXXXXXXXXXXXXXXXXXXXXXXXXXXX",
"XXX.     .XXXXXXXXXXXXXXXXXXXXXXXXXXXXXX",
"XX.     .XXXXXXXXXXXXXXXXXXXXXXXXXXXXXXX",
"XX.    .XXXXXXXXXXXXXXXXXXXXXXXXXXXXXXXX",
"XXX.    .XXXXXXXXXXXXXXXXXXXXXXXXXXXXXXX",
"XXX.     .XXXXXXXXXXXXXXXXXXXXXXXXXXXXXX",
"XXX.      .XXXXXXXXXXXXXXXXXXXXXXXXXXXXX",
"XXX.   .  .XXXXXXXXXXXXXXXXXXXXXXXXXXXXX",
"XX.    ...XXXXXXXXXXXXXXXXXXXXXXXXXXXXXX",
"XX.   .XXXXXXXXXXXXXXXXXXXXXXXXXXXXXXXXX",
"XX.   .XXXXXXXXXXXXXXXXXXXXXXXXXXXXXXXXX",
"XX.   .XXXXXXXXXXXXXXXXXXXXXXXXXXXXXXXXX",
"XX.   .XXXXXXXXXXXXXXXXXXXXXXXXXXXXXXXXX",
"X.   ....XXXXXXXXXXXXXXXXXXXXXXXXXXXXXXX",
"X.       .XXXXXXXXXXXXXXXXXXXXXXXXXXXXXX",
"XX.      .XXXXXXXXXXXXXXXXXXXXXXXXXXXXXX",
"XXXXXXXXXXXXXXXXXXXXXXXXXXXXXXXXXXXXXXXX"
};
