/* XPM */
static char *fafe4eb9a249485cdf8a34838a65aa6c[] = {
/* columns rows colors chars-per-pixel */
"40 70 31 1 ",
"  c black",
". c #000D0D",
"X c gray8",
"o c #1B1B1B",
"O c #252525",
"+ c #2F2F2F",
"@ c #373737",
"# c #3C3C3C",
"$ c #434343",
"% c gray31",
"& c #555555",
"* c gray36",
"= c #656565",
"- c gray44",
"; c #777777",
": c gray50",
"> c #8E8E8E",
", c gray58",
"< c #A0A0A0",
"1 c gray66",
"2 c #AEAEAE",
"3 c #B4B4B4",
"4 c #C1C1C1",
"5 c #C8C8C8",
"6 c #D0D0D0",
"7 c gray84",
"8 c #DFDFDF",
"9 c gray91",
"0 c #EFEFEF",
"q c gray96",
"w c None",
/* pixels */
"wwwwwwwwwwwwwwwwwwwwwwwwwwwwwwwwwwwwwwww",
"wwwwwwwwwwwwwwwwwwwwwwwwwwwwwwwwwwwwwwww",
"wwwwwwwwwwwwwwwwwwwwwwwwwwwwwwwwwwwwwwww",
"wwwwwwwwwwwwwwwwwwwwwwwwwwwwwwwwwwwwwwww",
"wwwwwwwwwwwwwwwwwwwwwwwwwwwwwwwwwwwwwwww",
"wwwwwwwwwwwwwwwwwwwwwwwwwwwwwwwwwwwwwwww",
"wwwwwwwwwwwwwwwwwwwwwwwwwwwwwwwwwwwwwwww",
"wwwwwwwwwwwwwwwwwwwwwwwwwwwwwwwwwwwwwwww",
"wwwwwww55557wwwwwwwwwwwwwwwwwwwwwwwwwwww",
"wwwww5      %wwwwwwwwwwwwwwwwwwwwwwwwwww",
"wwww=  ....   6wwwwwwwwwwwwwwwwwwwwwwwww",
"www4        . +wwwwwwwwwwwwwwwwwwwwwwwww",
"www            :wwwwwwwwwwwwwwwwwwwwwwww",
"ww,             wwwwwwwwwwwwwwwwwwwwwwww",
"ww<             wwwwwwwwwwwwwwwwwwwwwwww",
"ww<             wwwwwwwwwwwwwwwwwwwwwwww",
"ww3            Xwwwwwwwwwwwwwwwwwwwwwwww",
"www          . :wwwwwwwwwwwwwwwwwwwwwwww",
"www2          owwwwwwwwwwwwwwwwwwwwwwwww",
"wwww%      .  4wwwwwwwwwwwwwwwwwwwwwwwww",
"wwwww3      Owwwwwwwwwwwwwwwwwwwwwwwwwww",
"wwwwwww3  -5wwwwwwwwwwwwwwwwwwwwwwwwwwww",
"wwwwwwww  <wwwwwwwwwwwwwwwwwwwwwwwwwwwww",
"wwwwwwww  <wwwwwwwwwwwwwwwwwwwwwwwwwwwww",
"wwwwwwww  <wwwwwwwwwwwwwwwwwwwwwwwwwwwww",
"wwwwwwww  <wwwwwwwwwwwwwwwwwwwwwwwwwwwww",
"wwwwwwww   0wwwwwwwwwwwwwwwwwwwwwwwwwwww",
"wwwwwwww    9wwwwwwwwwwww9wwwwwwwwwwwwww",
"wwwwwww6  %  9wwwwwwwwww6 >wwwwwwwwwwwww",
"wwwwwwwO  14  0wwwwwwwww: -wwwwwwwwwwwww",
"wwwwww<   <w3  9wwwwwww5 Xwwwwwwwwwwwwww",
"wwwww8    <ww> &wwwwww8  4wwwwwwwwwwwwww",
"wwwww& <  <www$ ;wwwww& >wwwwwwwwwwwwwww",
"wwww5  w  <wwww% ;www- *wwwwwwwwwwwwwwww",
"wwwwo 4w  <wwwww$ ;w5  0wwwwwwwwwwwwwwww",
"www1 +ww  <wwwwww$ -  8wwwwwwwwwwwwwwwww",
"ww2  qww  <wwwwwww%  :wwwwwwwwwwwwwwwwww",
"ww  :www  <wwwwwww8 :wwwwwwwwwwwwwwwwwww",
"ww< %www  1wwwwwwwwwwwwwwwwwwwwwwwwwwwww",
"www  www  2wwwwwwwwwwwwwwwwwwwwwwwwwwwww",
"www* 3ww   $8wwwwwwwwwwwwwwwwwwwwwwwwwww",
"www2 @ww  O  <wwwwwwwwwwwwwwwwwwwwwwwwww",
"www9  9w  w>  %8wwwwwwwwwwwwwwwwwwwwwwww",
"wwww# 33 =ww8%  >wwwwwwwwwwwwwwwwwwwwwww",
"wwww4 -4 -wwww<  O4wwwwwwwwwwwwwwwwwwwww",
"wwwww&6@ 4wwwww9   wwwwwwwwwwwwwwwwwwwww",
"wwwwwww# 8wwwww2  1wwwwwwwwwwwwwwwwwwwww",
"wwwwww6 Owwwww+  1wwwwwwwwwwwwwwwwwwwwww",
"wwwwww8 #www5@  qwwwwwwwwwwwwwwwwwwwwwww",
"wwwwww; :ww<  :wwwwwwwwwwwwwwwwwwwwwwwww",
"wwwwww= 4w*  3wwwwwwwwwwwwwwwwwwwwwwwwww",
"wwwwww  8   2wwwwwwwwwwwwwwwwwwwwwwwwwww",
"wwwwww  X %8wwwwwwwwwwwwwwwwwwwwwwwwwwww",
"wwwww,   4wwwwwwwwwwwwwwwwwwwwwwwwwwwwww",
"wwww6+ @9wwwwwwwwwwwwwwwwwwwwwwwwwwwwwww",
"www-   5wwwwwwwwwwwwwwwwwwwwwwwwwwwwwwww",
"www4   wwwwwwwwwwwwwwwwwwwwwwwwwwwwwwwww",
"wwww1  >wwwwwwwwwwwwwwwwwwwwwwwwwwwwwwww",
"wwww4   ;wwwwwwwwwwwwwwwwwwwwwwwwwwwwwww",
"wwww@ 1$ *wwwwwwwwwwwwwwwwwwwwwwwwwwwwww",
"wwww$ 7w-7wwwwwwwwwwwwwwwwwwwwwwwwwwwwww",
"www8 X0wwwwwwwwwwwwwwwwwwwwwwwwwwwwwwwww",
"www8 +wwwwwwwwwwwwwwwwwwwwwwwwwwwwwwwwww",
"www> -wwwwwwwwwwwwwwwwwwwwwwwwwwwwwwwwww",
"www; 3wwwwwwwwwwwwwwwwwwwwwwwwwwwwwwwwww",
"wwwO 5wwwwwwwwwwwwwwwwwwwwwwwwwwwwwwwwww",
"ww7  wwwwwwwwwwwwwwwwwwwwwwwwwwwwwwwwwww",
"ww<   #<7wwwwwwwwwwwwwwwwwwwwwwwwwwwwwww",
"www:=   owwwwwwwwwwwwwwwwwwwwwwwwwwwwwww",
"wwwwww1:5wwwwwwwwwwwwwwwwwwwwwwwwwwwwwww"
};
