/* XPM */
static char *_542901826349[] = {
/* columns rows colors chars-per-pixel */
"40 70 3 1 ",
"  c black",
". c white",
"X c None",
/* pixels */
"XXXXXXXXXXXXXXXXXXXXXXXXXXXXXXXXXXXXXXXX",
"XXXXXXXXXXXXXXXXXXXXXXXXXXXXXXXXXXXXXXXX",
"XXXXXXXXXXXXXXXXXXXXXXXXXXXXXXXXXXXXXXXX",
"XXXXXXXXXXXXXXXXXXXXXXXXXXXXXXXXXXXXXXXX",
"XXXXXXXXXXXXXXXXXXXXXXXXXXXXXXXXXXXXXXXX",
"XXXXXXXXXXXXXXXXXXXXXXXXXXXXXXXXXXXXXXXX",
"XXXXXXXXXXXXXXXXXXXXXXXXXXXXXXXXXXXXXXXX",
"XXXXXXXXXXXXXXXXXXXXXXXXXXXXXXXXXXXXXXXX",
"XXXXXXXXXXXXXXXXXXXXXXXXXXXXXXXXXXXXXXXX",
"XXXXXXXXXXXXXXXXXXXXXXXXXXXXXXXXXXXXXXXX",
"XXXXXXXXXXXXXXXXXXXXXXXXXXXXXXXXXXXXXXXX",
"XXXXXXXXXXXXXXXXXXXXXXXXXXXXXXXXXXXXXXXX",
"XXXXXXXXXXXXXXXXXXXXXXXXXXXXXXXXXXXXXXXX",
"XXXXXXX.....XXXXXXXXXXXXXXXXXXXXXXXXXXXX",
"XXXXXX.     ..XXXXXXXXXXXXXXXXXXXXXXXXXX",
"XXXX..        .XXXXXXXXXXXXXXXXXXXXXXXXX",
"XXX.           .XXXXXXXXXXXXXXXXXXXXXXXX",
"XXX.            .XXXXXXXXXXXXXXXXXXXXXXX",
"XX.              .XXXXXXXXXXXXXXXXXXXXXX",
"XX.              .XXXXXXXXXXXXXXXXXXXXXX",
"XX.              .XXXXXXXXXXXXXXXXXXXXXX",
"XX.              .XXXXXXXXXXXXXXXXXXXXXX",
"XX.              .XXXXXXXXXXXXXXXXXXXXXX",
"XX.             .XXXXXXXXXXXXXXXXXXXXXXX",
"XXX.            .XXXXXXXXXXXXXXXXXXXXXXX",
"XXX.           .XXXXXXXXXXXXXXXXXXXXXXXX",
"XXXX..        .XXXXXXXXXXXXXXXXXXXXXXXXX",
"XXXXXX.     ..XXXXXXXXXXXXXXXXXXXXXXXXXX",
"XXXXXXX.   .XXXXXXXXXXXXXXXXXXXXXXXXXXXX",
"XXXXXXX.   .XXXXXXXXXXXXXXXXXXXXXXXXXXXX",
"XXXXXXX.   .XXXXXXXXXXXXXXXXXXXXXXXXXXXX",
"XXXXXXX.    .XXXXXXXXXXXXXXXXXXXXXXXXXXX",
"XXXXXX.     .XXXXXXXXXXXXXXXXXXXXXXXXXXX",
"XXXXX.       .XXXXXXXXXXXXXXXXXXXXXXXXXX",
"XXXXX.       .XXXXXXXXXXXXXXXXXXXXXXXXXX",
"XXXX.         .XXXXXXXXXXXXXXXXXXXXXXXXX",
"XXX.   .      .XXXXXXXXXXXXXXXXXXXXXXXXX",
"XXX.   .      .XXXXXXXXXXXXXXXXXXXXXXXXX",
"XX.   ..   .   .XXXXXXXXXXXXXXXXXXXXXXXX",
"X.   .X.   .   .XXXXXXXXXXXXXXXXXXXXXXXX",
"X.   .X.   ..   ..XXXXXXXXXXXXXXXXXXXXXX",
"X.   .X.   ..     ....XXXXXXXXXXXXXXXXXX",
"X.   .X.    ..        ..XXXXXXXXXXXXXXXX",
"X.   .X.    .X..        .XXXXXXXXXXXXXXX",
"X.   .X.    .XXX...     .XXXXXXXXXXXXXXX",
".   .XX.    .XXXXXX..  .XXXXXXXXXXXXXXXX",
".   .XX.    .XXXXXXXX..XXXXXXXXXXXXXXXXX",
".   .XX.     .XXXXXXXXXXXXXXXXXXXXXXXXXX",
".   .XX.      .XXXXXXXXXXXXXXXXXXXXXXXXX",
".   .XX.  .   .XXXXXXXXXXXXXXXXXXXXXXXXX",
"X...XX.   ..   .XXXXXXXXXXXXXXXXXXXXXXXX",
"XXXXXX.   .X.   .XXXXXXXXXXXXXXXXXXXXXXX",
"XXXXXX.   .X.   .XXXXXXXXXXXXXXXXXXXXXXX",
"XXXXXX.   .XX.   .XXXXXXXXXXXXXXXXXXXXXX",
"XXXXXX.   .XXX.   .XXXXXXXXXXXXXXXXXXXXX",
"XXXXXX.   .XXX.   .XXXXXXXXXXXXXXXXXXXXX",
"XXXXX.   .XXXXX.   .XXXXXXXXXXXXXXXXXXXX",
"XXXX.   .XXXXXX.   .XXXXXXXXXXXXXXXXXXXX",
"XXXX.   .XXXXXX.   .XXXXXXXXXXXXXXXXXXXX",
"XXX.   .XXXXXXX.   .XXXXXXXXXXXXXXXXXXXX",
"XXX.   .XXXXXXX.   .XXXXXXXXXXXXXXXXXXXX",
"XX.   .XXXXXXXX.   .XXXXXXXXXXXXXXXXXXXX",
"X.    .XXXXXXXX.   .XXXXXXXXXXXXXXXXXXXX",
"X.   .XXXXXXXXX.   .XXXXXXXXXXXXXXXXXXXX",
".   .XXXXXXXXXX.   .XXXXXXXXXXXXXXXXXXXX",
".    .XXXXXXXXX.   ...XXXXXXXXXXXXXXXXXX",
"X.    .XXXXXXXX.      .XXXXXXXXXXXXXXXXX",
"XX.    .XXXXXXXX.      .XXXXXXXXXXXXXXXX",
"XXX.    .XXXXXXXX..   .XXXXXXXXXXXXXXXXX",
"XXXX.  .XXXXXXXXXXXXXXXXXXXXXXXXXXXXXXXX"
};
