/* XPM */
static char *_542891463689[] = {
/* columns rows colors chars-per-pixel */
"40 70 2 1 ",
"  c black",
". c None",
/* pixels */
"........................................",
"........................................",
"........................................",
"........................................",
"........................................",
"........................................",
"........................................",
"........................................",
"........................................",
"........................................",
"........................................",
"........................................",
"........................................",
"........................................",
".......     ............................",
"......        ..........................",
"....           .........................",
"....            ........................",
"...              .......................",
"...              .......................",
"...              .......................",
"...              .......................",
"...              .......................",
"...             ........................",
"....            ........................",
"....           .........................",
"......        ..........................",
".......     ............................",
"........   .............................",
"........   .............................",
"........   .............................",
"........    ............................",
".......     ............................",
"......       ...........................",
"......       ...........................",
".....         ..........................",
"....   .      ..........................",
"....   .      ..........................",
"...   ..   .   .........................",
"..   ...   .   .........................",
"..   ...   ..   ........................",
"..   ...   ..     ......................",
"..   ...    ..        ..................",
"..   ...    ....        ................",
"..   ...    .......     ................",
".   ....    .........  .................",
".   ....    ............................",
".   ....     ...........................",
".   ....      ..........................",
".   ....  .   ..........................",
".......   ..   .........................",
".......   ...   ........................",
".......   ...   ........................",
".......   ....   .......................",
".......   .....   ......................",
".......   .....   ......................",
"......   .......   .....................",
".....   ........   .....................",
".....   ........   .....................",
"....   .........   .....................",
"....   .........   .....................",
"...   ..........   .....................",
"..    ..........   .....................",
"..   ...........   .....................",
".   ............   .....................",
".    ...........   .....................",
"..    ..........      ..................",
"...    ..........      .................",
"....    ...........   ..................",
".....  ................................."
};
