/* XPM */
static char *_4a274f7699b4e8cfa5eaf562afd284e[] = {
/* columns rows colors chars-per-pixel */
"40 70 30 1 ",
"  c black",
". c #000D0D",
"X c gray8",
"o c #1B1B1B",
"O c #252525",
"+ c #2F2F2F",
"@ c #373737",
"# c #3C3C3C",
"$ c #434343",
"% c gray31",
"& c #555555",
"* c gray36",
"= c #656565",
"- c gray44",
"; c #777777",
": c gray50",
"> c #8E8E8E",
", c gray58",
"< c #A0A0A0",
"1 c gray66",
"2 c #AEAEAE",
"3 c #B4B4B4",
"4 c #C1C1C1",
"5 c #C8C8C8",
"6 c #D0D0D0",
"7 c gray84",
"8 c #DFDFDF",
"9 c gray91",
"0 c #EFEFEF",
"q c None",
/* pixels */
"qqqqqqqqqqqqqqqqqqqqqqqqqqqqqqqqqqqqqqqq",
"qqqqqqqqqqqqqqqqqqqqqqqqqqqqqqqqqqqqqqqq",
"qqqqqqqqqqqqqqqqqqqqqqqqqqqqqqqqqqqqqqqq",
"qqqqqqqqqqqqqqqqqqqqqqqqqqqqqqqqqqqqqqqq",
"qqqqqqqqqqqqqqqqqqqqqqqqqqqqqqqqqqqqqqqq",
"qqqqqqqqqqqqqqqqqqqqqqqqqqqqqqqqqqqqqqqq",
"qqqqqqqqqqqqqqqqqqqqqqqqqqqqqqqqqqqqqqqq",
"qqqqqqqqqqqqqqqqqqqqqqqqqqqqqqqqqqqqqqqq",
"qqqqqqqqqqqqqqqqqqqqqqqqqqqqqqqqqqqqqqqq",
"qqqqqqqqqqqqqqqqqqqqqqqqqqqqqqqqqqqqqqqq",
"qqqqqqqqqqqqqqqqqqqqqqqqqqqqqqqqqqqqqqqq",
"qqqqqqqqqqqqqqqqqqqqqqqqqqqqqqqqqqqqqqqq",
"qqqqqqqqqqqqqqqqqqqqqqqqqqqqqqqqqqqqqqqq",
"qqqqqqqqqqqqqqqqqqqqqqqqqqqqqqqqqqqqqqqq",
"qqqqqqq74444qqqqqqqqqqqqqqqqqqqqqqqqqqqq",
"qqqqqq%      2qqqqqqqqqqqqqqqqqqqqqqqqqq",
"qqqq7         $qqqqqqqqqqqqqqqqqqqqqqqqq",
"qqqq# .        1qqqqqqqqqqqqqqqqqqqqqqqq",
"qqq>            8qqqqqqqqqqqqqqqqqqqqqqq",
"qqq             :qqqqqqqqqqqqqqqqqqqqqqq",
"qqq             >qqqqqqqqqqqqqqqqqqqqqqq",
"qqq             :qqqqqqqqqqqqqqqqqqqqqqq",
"qqq+            1qqqqqqqqqqqqqqqqqqqqqqq",
"qqq,            qqqqqqqqqqqqqqqqqqqqqqqq",
"qqqq#          <qqqqqqqqqqqqqqqqqqqqqqqq",
"qqqq6  .      #qqqqqqqqqqqqqqqqqqqqqqqqq",
"qqqqqq$      1qqqqqqqqqqqqqqqqqqqqqqqqqq",
"qqqqqqq7:  3qqqqqqqqqqqqqqqqqqqqqqqqqqqq",
"qqqqqqqq3  qqqqqqqqqqqqqqqqqqqqqqqqqqqqq",
"qqqqqqqq2  qqqqqqqqqqqqqqqqqqqqqqqqqqqqq",
"qqqqqqqq<  qqqqqqqqqqqqqqqqqqqqqqqqqqqqq",
"qqqqqqqqO  9qqqqqqqqqqqqqqqqqqqqqqqqqqqq",
"qqqqqqq$   =qqqqqqqqqqqqqqqqqqqqqqqqqqqq",
"qqqqqq8     8qqqqqqqqqqqqqqqqqqqqqqqqqqq",
"qqqqqq      -qqqqqqqqqqqqqqqqqqqqqqqqqqq",
"qqqqq: &+    8qqqqqqqqqqqqqqqqqqqqqqqqqq",
"qqqq4 Xq3  : :qqqqqqqqqqqqqqqqqqqqqqqqqq",
"qqqq  5q2  5  qqqqqqqqqqqqqqqqqqqqqqqqqq",
"qqq& *qq2  q$ 1qqqqqqqqqqqqqqqqqqqqqqqqq",
"qq< $qqq2  q5  qqqqqqqqqqqqqqqqqqqqqqqqq",
"qq# 5qqq2  qq$ 1qqqqqqqqqqqqqqqqqqqqqqqq",
"qq$ 7qqq2  qq4  %1qqqqqqqqqqqqqqqqqqqqqq",
"qq$ 7qqq2  4qq+    =39qqqqqqqqqqqqqqqqqq",
"qq$ 7qqq2  <qqqq<$    $<qqqqqqqqqqqqqqqq",
"qqX 7qqq2  <qqqqqqq3O  #qqqqqqqqqqqqqqqq",
"q8 @qqqq2  1qqqqqqqqq86qqqqqqqqqqqqqqqqq",
"q8 @qqqq3  ;qqqqqqqqqqqqqqqqqqqqqqqqqqqq",
"q8 @qqqq-   :qqqqqqqqqqqqqqqqqqqqqqqqqqq",
"q> oqqqqO <  8qqqqqqqqqqqqqqqqqqqqqqqqqq",
"q< 6qqqq+ q< %qqqqqqqqqqqqqqqqqqqqqqqqqq",
"qqqqqqq6 +qq= *qqqqqqqqqqqqqqqqqqqqqqqqq",
"qqqqqqq6 %qqq  4qqqqqqqqqqqqqqqqqqqqqqqq",
"qqqqqqq1 $qqq4 +qqqqqqqqqqqqqqqqqqqqqqqq",
"qqqqqqq* 4qqqq> +qqqqqqqqqqqqqqqqqqqqqqq",
"qqqqqqq- 4qqqqqX 1qqqqqqqqqqqqqqqqqqqqqq",
"qqqqqqq  8qqqqq8  qqqqqqqqqqqqqqqqqqqqqq",
"qqqqqq; -qqqqqqq< &qqqqqqqqqqqqqqqqqqqqq",
"qqqqq6 oqqqqqqqq4 =qqqqqqqqqqqqqqqqqqqqq",
"qqqqq# 1qqqqqqqq4 =qqqqqqqqqqqqqqqqqqqqq",
"qqqq, $qqqqqqqqq4 =qqqqqqqqqqqqqqqqqqqqq",
"qqqq  8qqqqqqqqq4 =qqqqqqqqqqqqqqqqqqqqq",
"qqq, %qqqqqqqqqq4 =qqqqqqqqqqqqqqqqqqqqq",
"qq8  8qqqqqqqqqq4 =qqqqqqqqqqqqqqqqqqqqq",
"qq$ ,qqqqqqqqqqq4 =qqqqqqqqqqqqqqqqqqqqq",
"q- oqqqqqqqqqqqq4 =qqqqqqqqqqqqqqqqqqqqq",
"q5  7qqqqqqqqqqq4 &qqqqqqqqqqqqqqqqqqqqq",
"qq6  8qqqqqqqqqq4  #,7qqqqqqqqqqqqqqqqqq",
"qqq6  2qqqqqqqqqq-X   0qqqqqqqqqqqqqqqqq",
"qqqq6  6qqqqqqqqqqq6*:qqqqqqqqqqqqqqqqqq",
"qqqqq5,qqqqqqqqqqqqqqqqqqqqqqqqqqqqqqqqq"
};
